<svg width="28" height="28" viewBox="0 0 28 28" fill="none" xmlns="http://www.w3.org/2000/svg">
<circle cx="14" cy="14" r="14" fill="#6A71A1"/>
<path d="M20.69 8.20533C20.2666 7.76489 19.6009 7.76489 19.1776 8.20533C16.3046 10.7071 13.7238 13.5856 11.4937 16.7752C10.9457 15.6181 10.3983 14.4625 9.85092 13.3062C9.21874 11.9709 7.37279 13.1506 8.00498 14.4843C8.80536 16.1761 9.60646 17.8678 10.4068 19.5595C10.7183 20.1159 11.384 20.2918 11.8943 19.9517C12.0404 19.8544 12.1637 19.7198 12.2535 19.5595C14.6297 15.9053 17.4706 12.637 20.69 9.85581C21.1033 9.39903 21.1033 8.66289 20.69 8.20533Z" fill="white"/>
</svg>
