<svg width="45" height="45" viewBox="0 0 45 45" fill="none" xmlns="http://www.w3.org/2000/svg">
<path fill-rule="evenodd" clip-rule="evenodd" d="M15.6959 26.9079C21.9731 26.9079 27.0618 21.8481 27.0618 15.6066C27.0618 9.36503 21.9731 4.30526 15.6959 4.30526C9.41862 4.30526 4.3299 9.36503 4.3299 15.6066C4.3299 21.8481 9.41862 26.9079 15.6959 26.9079ZM15.6959 31.2132C24.3645 31.2132 31.3917 24.2259 31.3917 15.6066C31.3917 6.9873 24.3645 0 15.6959 0C7.02728 0 0 6.9873 0 15.6066C0 24.2259 7.02728 31.2132 15.6959 31.2132Z" fill="#F1F1FF"/>
<path fill-rule="evenodd" clip-rule="evenodd" d="M15.727 8.38296C16.4144 8.38296 16.9717 8.93345 16.9717 9.61251V14.1004H21.764C22.4514 14.1004 23.0087 14.6509 23.0087 15.3299C23.0087 16.009 22.4514 16.5595 21.764 16.5595H16.9717V21.6006C16.9717 22.2797 16.4144 22.8302 15.727 22.8302C15.0395 22.8302 14.4823 22.2797 14.4823 21.6006V16.5595H9.62776C8.94031 16.5595 8.38302 16.009 8.38302 15.3299C8.38302 14.6509 8.94031 14.1004 9.62776 14.1004H14.4823V9.61251C14.4823 8.93345 15.0395 8.38296 15.727 8.38296Z" fill="#F1F1FF"/>
<path fill-rule="evenodd" clip-rule="evenodd" d="M25.3571 25.3573C26.2008 24.5136 27.4534 24.3983 28.155 25.0998L44.5408 41.4856C45.2424 42.1871 45.1271 43.4397 44.2834 44.2834C43.4397 45.1271 42.1871 45.2424 41.4856 44.5409L25.0706 28.1248C24.3691 27.4233 24.5134 26.2009 25.3571 25.3573Z" fill="#F1F1FF"/>
</svg>
