<svg width="57" height="56" viewBox="0 0 57 56" fill="none" xmlns="http://www.w3.org/2000/svg">
<g clip-path="url(#clip0_340_776)">
<path d="M0 7.93064C0 3.55067 3.61407 0 8.07225 0H48.9277C53.3859 0 57 3.55067 57 7.93064V48.0694C57 52.4493 53.3859 56 48.9277 56H8.07226C3.61407 56 0 52.4493 0 48.0694V7.93064Z" fill="#F12D15"/>
<path d="M17.4751 45.2337V40.5917H39.5245V45.2337H17.4751Z" fill="white"/>
<path d="M28.4998 16.4297V10.7165C28.4998 10.7165 26.3662 10.6563 25.4711 12.9779C22.4423 20.8335 17.9597 33.9263 17.9597 33.9263H22.4423L24.1384 29.2844H28.4998V25.3565H25.4711L28.4998 16.4297Z" fill="white"/>
<path d="M28.4998 16.4297V10.7165C28.4998 10.7165 30.6333 10.6563 31.5284 12.9779C34.5572 20.8335 39.0398 33.9263 39.0398 33.9263H34.5572L32.8611 29.2844L28.4998 29.2844V25.3565L31.5284 25.3565L28.4998 16.4297Z" fill="white"/>
<rect x="-38" y="13.8524" width="75" height="17" transform="rotate(-44.7702 -38 13.8524)" fill="white"/>
</g>
<defs>
<clipPath id="clip0_340_776">
<rect width="57" height="56" fill="white"/>
</clipPath>
</defs>
</svg>
