<svg width="165" height="126" viewBox="0 0 165 126" fill="none" xmlns="http://www.w3.org/2000/svg">
<path d="M110.037 81.6347H64.3387C61.7914 81.6347 59.727 79.5714 59.727 77.0254C59.727 74.4794 61.7914 72.4161 64.3387 72.4161C64.3387 72.4161 64.6381 72.4161 65.1797 72.4161M58.9778 38.8947H119.26L112.657 72.4169H65.4911L56.3725 25.4858H46.3105M3 53.122C3 25.4404 25.4404 3 53.122 3H112.39C140.072 3 162.512 25.4404 162.512 53.122V72.878C162.512 100.56 140.072 123 112.39 123H53.122C25.4404 123 3 100.56 3 72.878V53.122ZM105.996 89.3624C105.996 92.5699 103.277 95.1693 99.9218 95.1693C96.5666 95.1693 93.8476 92.5699 93.8476 89.3624C93.8476 86.1548 96.5666 83.5554 99.9218 83.5554C103.277 83.5554 105.996 86.1548 105.996 89.3624ZM77.4735 89.3624C77.4735 92.5699 74.7545 95.1693 71.3994 95.1693C68.0443 95.1693 65.3253 92.5699 65.3253 89.3624C65.3253 86.1548 68.0443 83.5554 71.3994 83.5554C74.7545 83.5554 77.4735 86.1548 77.4735 89.3624Z" stroke="#515886" stroke-width="4.83" stroke-linecap="round" stroke-linejoin="round"/>
</svg>
