<svg width="165" height="126" viewBox="0 0 165 126" fill="none" xmlns="http://www.w3.org/2000/svg">
<path d="M83.8811 63.9428V79.7893M83.8811 63.9428L70.3824 49.9122M83.8811 63.9428L97.4556 49.9122M83.8811 79.7893L77.3232 85.1182C76.3383 86.2032 77.1268 87.9157 78.6114 87.9157H89.3023C90.7869 87.9157 91.5754 86.2032 90.5905 85.1182L83.8811 79.7893ZM70.3824 49.9122L56.8836 35.8815C55.8173 34.7068 56.671 32.8525 58.2783 32.8525H109.635C111.123 32.8525 111.965 34.441 111.237 35.6089C111.178 35.7029 111.109 35.7941 111.03 35.8815L97.4556 49.9122M70.3824 49.9122H97.4556M3 53.1219C3 25.4404 25.4404 3 53.122 3H112.39C140.072 3 162.512 25.4404 162.512 53.122V72.8781C162.512 100.56 140.072 123 112.39 123H53.122C25.4404 123 3 100.56 3 72.8781V53.1219ZM84 61L75.3397 52H92.6603L84 61Z" stroke="#515886" stroke-width="4.83"/>
</svg>
