<svg width="184" height="230" viewBox="0 0 184 230" fill="none" xmlns="http://www.w3.org/2000/svg">
<path d="M172.721 225.016C172.721 224.307 172.146 223.732 171.436 223.732H121.983C121.274 223.732 120.699 224.307 120.699 225.016C120.699 225.726 121.274 226.301 121.983 226.301H171.436C172.146 226.301 172.721 225.726 172.721 225.016Z" fill="#484F80"/>
<path d="M172.641 213.391V205.026L92.1996 220.841V224.615H88.9322C87.4114 224.615 86.1785 225.847 86.1785 227.368C86.1785 228.02 86.7069 228.548 87.3587 228.548H183.961C183.961 226.376 182.2 224.615 180.027 224.615H120.86V216.667H169.365C171.175 216.667 172.641 215.2 172.641 213.391Z" fill="#293166"/>
<path d="M160.998 211.53C160.998 210.821 160.423 210.246 159.714 210.246H110.26C109.551 210.246 108.976 210.821 108.976 211.53C108.976 212.239 109.551 212.815 110.26 212.815H159.714C160.423 212.815 160.998 212.239 160.998 211.53Z" fill="#484F80"/>
<path d="M99.876 200.893L167.448 188.266C174.039 187.034 180.316 191.58 181.202 198.226C181.579 201.056 179.69 203.69 176.889 204.242L89.9352 221.351C88.6605 221.602 87.4251 220.767 87.1821 219.491C85.5355 210.847 91.226 202.509 99.876 200.893Z" fill="#363479"/>
<path d="M146.564 191.856L167.46 188.149C174.063 186.978 180.311 191.546 181.197 198.193C181.577 201.041 179.676 203.693 176.857 204.248L136.56 212.177C135.296 212.426 134.07 211.598 133.829 210.332C132.185 201.701 137.913 193.391 146.564 191.856Z" fill="#A4A3C2"/>
<path d="M96.1309 210.325C96.1309 211.61 97.1732 212.653 98.459 212.653C99.7448 212.653 100.787 211.61 100.787 210.325C100.787 209.039 99.7448 207.997 98.459 207.997C97.1732 207.997 96.1309 209.039 96.1309 210.325Z" fill="#D9D9D9"/>
<path d="M164.693 211.451C164.693 212.736 165.736 213.779 167.022 213.779C168.307 213.779 169.35 212.736 169.35 211.451C169.35 210.165 168.307 209.122 167.022 209.122C165.736 209.122 164.693 210.165 164.693 211.451Z" fill="#D9D9D9"/>
<path d="M169.67 211.369H164.532V211.69H169.67V211.369Z" fill="#293166"/>
<path d="M1.27264e-05 0.638672L0 229.382H74.2944L74.2944 0.638676L1.27264e-05 0.638672Z" fill="#3E446D"/>
<path d="M53.1208 193.653C53.1208 202.423 46.0112 209.533 37.2411 209.533C28.4709 209.533 21.3613 202.423 21.3613 193.653C21.3613 184.883 28.4709 177.773 37.2411 177.773C46.0112 177.773 53.1208 184.883 53.1208 193.653Z" fill="#F1F1FF"/>
<path d="M15.3125 17.0848L59.1708 17.0848L59.1708 152.062H15.3125L15.3125 17.0848Z" fill="#F1F1FF"/>
<path d="M20.2266 39.3936L53.4984 39.3936V41.6621L20.2266 41.6621L20.2266 39.3936Z" fill="#D9D9D9"/>
<path d="M20.2266 49.2236L53.4984 49.2236V51.4922L20.2266 51.4922V49.2236Z" fill="#D9D9D9"/>
<path d="M20.2266 59.0537L53.4984 59.0537V61.3222L20.2266 61.3222V59.0537Z" fill="#D9D9D9"/>
<path d="M20.2266 68.8838H53.4984V71.1523H20.2266V68.8838Z" fill="#D9D9D9"/>
</svg>
