<svg width="175" height="159" viewBox="0 0 175 159" fill="none" xmlns="http://www.w3.org/2000/svg">
<path d="M27.8932 92.669C42.7459 92.669 54.7863 104.704 54.7863 119.549C54.7863 134.395 42.7459 146.43 27.8932 146.43C13.0405 146.43 1 134.395 1 119.549C1 104.704 13.0405 92.669 27.8932 92.669Z" fill="#F3D55B"/>
<path fill-rule="evenodd" clip-rule="evenodd" d="M25.1532 121.42H29.8538C42.3206 121.42 42.1162 103.648 29.8538 103.648H22.0876V118.356H19.4308V121.42H22.0876V124.28H19.4308V127.14H22.0876V135.311H25.1532V127.14H34.1456V124.28H25.1532V121.42ZM30.4056 118.356C38.1809 118.356 38.0535 106.1 30.4056 106.1H25.562V118.356H30.4056Z" fill="#D3B232"/>
<path d="M87.4701 68.6468C102.323 68.6468 114.363 80.6815 114.363 95.5272C114.363 110.373 102.323 122.408 87.4701 122.408C72.6174 122.408 60.577 110.373 60.577 95.5272C60.577 80.6815 72.6174 68.6468 87.4701 68.6468Z" fill="#F3D55B"/>
<path fill-rule="evenodd" clip-rule="evenodd" d="M83.3761 97.7359H88.0767C100.543 97.7359 100.339 79.9639 88.0767 79.9639H80.3105V94.6717H77.6537V97.7359H80.3105V100.596H77.6537V103.456H80.3105V111.627H83.3761V103.456H92.3685V100.596H83.3761V97.7359ZM88.6287 94.6716C96.404 94.6716 96.2765 82.4151 88.6287 82.4151H83.785V94.6716H88.6287Z" fill="#D3B232"/>
<path d="M9.77755 146.173H45.6355C48.9363 146.173 51.6118 148.847 51.6118 152.146C51.6118 155.445 48.9363 158.119 45.6355 158.119H9.77755C6.47683 158.119 3.80133 155.445 3.80133 152.146C3.80133 148.847 6.47683 146.173 9.77755 146.173Z" fill="#F0C419"/>
<path d="M69.5411 146.174H105.399C108.7 146.174 111.375 148.848 111.375 152.147C111.375 155.446 108.7 158.121 105.399 158.121H69.5411C66.2404 158.121 63.5649 155.446 63.5649 152.147C63.5649 148.848 66.2404 146.174 69.5411 146.174Z" fill="#F0C419"/>
<path d="M69.5411 134.226H105.399C108.7 134.226 111.375 136.9 111.375 140.2C111.375 143.499 108.7 146.174 105.399 146.174H69.5411C66.2404 146.174 63.5649 143.499 63.5649 140.2C63.5649 136.9 66.2404 134.226 69.5411 134.226Z" fill="#F3D55B"/>
<path d="M69.5411 122.279H105.399C108.7 122.279 111.375 124.954 111.375 128.253C111.375 131.552 108.7 134.226 105.399 134.226H69.5411C66.2404 134.226 63.5649 131.552 63.5649 128.253C63.5649 124.954 66.2404 122.279 69.5411 122.279Z" fill="#F0C419"/>
<path d="M129.303 146.174H165.161C168.462 146.174 171.138 148.848 171.138 152.147C171.138 155.446 168.462 158.121 165.161 158.121H129.303C126.003 158.121 123.327 155.446 123.327 152.147C123.327 148.848 126.003 146.174 129.303 146.174Z" fill="#F0C419"/>
<path d="M129.303 134.226H165.161C168.462 134.226 171.138 136.9 171.138 140.2C171.138 143.499 168.462 146.174 165.161 146.174H129.303C126.003 146.174 123.327 143.499 123.327 140.2C123.327 136.9 126.003 134.226 129.303 134.226Z" fill="#F3D55B"/>
<path d="M129.303 122.279H165.161C168.462 122.279 171.138 124.954 171.138 128.253C171.138 131.552 168.462 134.226 165.161 134.226H129.303C126.003 134.226 123.327 131.552 123.327 128.253C123.327 124.954 126.003 122.279 129.303 122.279Z" fill="#F0C419"/>
<path d="M129.303 110.332H165.161C168.462 110.332 171.138 113.006 171.138 116.306C171.138 119.605 168.462 122.279 165.161 122.279H129.303C126.003 122.279 123.327 119.605 123.327 116.306C123.327 113.006 126.003 110.332 129.303 110.332Z" fill="#F3D55B"/>
<path d="M129.303 98.3863H165.161C168.462 98.3863 171.138 101.061 171.138 104.36C171.138 107.659 168.462 110.332 165.161 110.332H129.303C126.003 110.332 123.327 107.659 123.327 104.36C123.327 101.061 126.003 98.3863 129.303 98.3863Z" fill="#F0C419"/>
<path d="M147.385 44.9634C162.237 44.9634 174.278 56.9981 174.278 71.8437C174.278 86.6893 162.237 98.724 147.385 98.724C132.532 98.724 120.492 86.6893 120.492 71.8437C120.492 56.9981 132.532 44.9634 147.385 44.9634Z" fill="#F3D55B"/>
<path fill-rule="evenodd" clip-rule="evenodd" d="M145.322 73.3755H150.022C162.489 73.3755 162.285 55.6035 150.022 55.6035H142.256V70.3114H139.599V73.3755H142.256V76.2354H139.599V79.0952H142.256V87.2663H145.322V79.0952H154.314V76.2354H145.322V73.3755ZM150.574 70.3117C158.35 70.3117 158.222 58.0552 150.574 58.0552H145.731V70.3117H150.574Z" fill="#D3B232"/>
<path d="M2.58301 72.7695L23.4685 53.8699C25.8867 51.6815 29.5615 51.6504 32.0163 53.7975L39.7821 60.59C42.7481 63.704 46.8101 63.6445 49.4981 61.3756L95.199 16.7724C97.6152 14.5837 101.288 14.5498 103.744 16.6942L120.321 31.1667C122.023 32.652 124.578 32.5924 126.208 31.029C126.208 31.029 140.437 17.3821 149.292 8.88843" stroke="#F1F1FF" stroke-width="3.62" stroke-linecap="round" stroke-linejoin="round"/>
<path d="M157.448 2.70784L156.384 16.3928C156.299 17.5455 155.551 18.5441 154.467 18.946C153.384 19.3478 152.163 19.0831 151.347 18.265L148.266 15.1824L142.266 9.16892L139.184 6.08878C138.371 5.27302 138.106 4.06022 138.508 2.97976C138.91 1.90171 139.904 1.15574 141.055 1.07392L154.763 0.00549868C155.493 -0.0426287 156.206 0.226884 156.721 0.746658C157.236 1.26403 157.501 1.98112 157.448 2.70784Z" fill="#F1F1FF"/>
</svg>
