<svg width="307" height="137" viewBox="0 0 307 137" fill="none" xmlns="http://www.w3.org/2000/svg">
<path d="M98.1758 14.8903H298.766C304.19 59.5642 301.016 75.8637 306.761 119.129L304.19 119.874L304.58 136.999H93.8152L98.1758 14.8903Z" fill="#949CC7"/>
<path d="M90.8369 11.9121H305.272V35.7382H90.8369V11.9121Z" fill="#3E446D"/>
<path d="M125.087 20.1023C125.087 22.9808 122.753 25.3142 119.875 25.3142C116.996 25.3142 114.663 22.9808 114.663 20.1023C114.663 17.2238 116.996 14.8903 119.875 14.8903C122.753 14.8903 125.087 17.2238 125.087 20.1023Z" fill="#292D48"/>
<path d="M282.935 20.1023C282.935 22.9808 280.601 25.3142 277.723 25.3142C274.844 25.3142 272.511 22.9808 272.511 20.1023C272.511 17.2238 274.844 14.8903 277.723 14.8903C280.601 14.8903 282.935 17.2238 282.935 20.1023Z" fill="#292D48"/>
<path d="M204.011 20.1023C204.011 22.9808 201.677 25.3142 198.799 25.3142C195.92 25.3142 193.587 22.9808 193.587 20.1023C193.587 17.2238 195.92 14.8903 198.799 14.8903C201.677 14.8903 204.011 17.2238 204.011 20.1023Z" fill="#292D48"/>
<path d="M116.152 2.23272C116.152 2.23272 116.152 -0.000976541 119.875 -0.000976562C123.598 -0.000976584 123.598 2.23272 123.598 2.23272V20.1023C123.598 20.1023 123.598 21.5914 119.875 21.5914C116.152 21.5914 116.152 20.1023 116.152 20.1023V2.23272Z" fill="#D0CFEB"/>
<path d="M195.076 2.23272C195.076 2.23272 195.076 -0.000976541 198.799 -0.000976562C202.522 -0.000976584 202.522 2.23272 202.522 2.23272V20.1023C202.522 20.1023 202.522 21.5914 198.799 21.5914C195.076 21.5914 195.076 20.1023 195.076 20.1023V2.23272Z" fill="#D0CFEB"/>
<path d="M274 2.23272C274 2.23272 274 -0.000976541 277.723 -0.000976562C281.446 -0.000976584 281.446 2.23272 281.446 2.23272V20.1023C281.446 20.1023 281.446 21.5914 277.723 21.5914C274 21.5914 274 20.1023 274 20.1023V2.23272Z" fill="#D0CFEB"/>
<path d="M125.087 45.1831C125.087 44.0785 125.982 43.1831 127.087 43.1831H143.101C144.205 43.1831 145.101 44.0785 145.101 45.1831V61.197C145.101 62.3016 144.205 63.197 143.101 63.197H127.087C125.982 63.197 125.087 62.3016 125.087 61.197V45.1831Z" fill="#B1BAEB"/>
<path d="M156.359 45.1831C156.359 44.0785 157.254 43.1831 158.359 43.1831H174.373C175.477 43.1831 176.373 44.0785 176.373 45.1831V61.197C176.373 62.3016 175.477 63.197 174.373 63.197H158.359C157.254 63.197 156.359 62.3016 156.359 61.197V45.1831Z" fill="#B1BAEB"/>
<path d="M187.63 45.1831C187.63 44.0785 188.526 43.1831 189.63 43.1831H205.644C206.749 43.1831 207.644 44.0785 207.644 45.1831V61.197C207.644 62.3016 206.749 63.197 205.644 63.197H189.63C188.526 63.197 187.63 62.3016 187.63 61.197V45.1831Z" fill="#B1BAEB"/>
<path d="M218.902 45.1831C218.902 44.0785 219.798 43.1831 220.902 43.1831H236.916C238.021 43.1831 238.916 44.0785 238.916 45.1831V61.197C238.916 62.3016 238.021 63.197 236.916 63.197H220.902C219.798 63.197 218.902 62.3016 218.902 61.197V45.1831Z" fill="#B1BAEB"/>
<path d="M125.087 76.4548C125.087 75.3503 125.982 74.4548 127.087 74.4548H143.101C144.205 74.4548 145.101 75.3503 145.101 76.4548V92.4688C145.101 93.5733 144.205 94.4688 143.101 94.4688H127.087C125.982 94.4688 125.087 93.5733 125.087 92.4688V76.4548Z" fill="#B1BAEB"/>
<path d="M156.359 76.4548C156.359 75.3503 157.254 74.4548 158.359 74.4548H174.373C175.477 74.4548 176.373 75.3503 176.373 76.4548V92.4688C176.373 93.5733 175.477 94.4688 174.373 94.4688H158.359C157.254 94.4688 156.359 93.5733 156.359 92.4688V76.4548Z" fill="#B1BAEB"/>
<path d="M187.63 76.4548C187.63 75.3503 188.526 74.4548 189.63 74.4548H205.644C206.749 74.4548 207.644 75.3503 207.644 76.4548V92.4688C207.644 93.5733 206.749 94.4688 205.644 94.4688H189.63C188.526 94.4688 187.63 93.5733 187.63 92.4688V76.4548Z" fill="#B1BAEB"/>
<path d="M218.902 76.4548C218.902 75.3503 219.798 74.4548 220.902 74.4548H236.916C238.021 74.4548 238.916 75.3503 238.916 76.4548V92.4688C238.916 93.5733 238.021 94.4688 236.916 94.4688H220.902C219.798 94.4688 218.902 93.5733 218.902 92.4688V76.4548Z" fill="#B1BAEB"/>
<path d="M125.087 107.727C125.087 106.622 125.982 105.727 127.087 105.727H143.101C144.205 105.727 145.101 106.622 145.101 107.727V123.74C145.101 124.845 144.205 125.74 143.101 125.74H127.087C125.982 125.74 125.087 124.845 125.087 123.74V107.727Z" fill="#B1BAEB"/>
<path d="M156.359 107.727C156.359 106.622 157.254 105.727 158.359 105.727H174.373C175.477 105.727 176.373 106.622 176.373 107.727V123.74C176.373 124.845 175.477 125.74 174.373 125.74H158.359C157.254 125.74 156.359 124.845 156.359 123.74V107.727Z" fill="#B1BAEB"/>
<path d="M187.63 107.727C187.63 106.622 188.526 105.727 189.63 105.727H205.644C206.749 105.727 207.644 106.622 207.644 107.727V123.74C207.644 124.845 206.749 125.74 205.644 125.74H189.63C188.526 125.74 187.63 124.845 187.63 123.74V107.727Z" fill="#B1BAEB"/>
<path d="M218.902 107.727C218.902 106.622 219.798 105.727 220.902 105.727H236.916C238.021 105.727 238.916 106.622 238.916 107.727V123.74C238.916 124.845 238.021 125.74 236.916 125.74H220.902C219.798 125.74 218.902 124.845 218.902 123.74V107.727Z" fill="#B1BAEB"/>
<path d="M250.174 45.1831C250.174 44.0785 251.069 43.1831 252.174 43.1831H268.188C269.292 43.1831 270.188 44.0785 270.188 45.1831V61.197C270.188 62.3016 269.292 63.197 268.188 63.197H252.174C251.069 63.197 250.174 62.3016 250.174 61.197V45.1831Z" fill="#B1BAEB"/>
<path d="M250.174 76.4548C250.174 75.3503 251.069 74.4548 252.174 74.4548H268.188C269.292 74.4548 270.188 75.3503 270.188 76.4548V92.4688C270.188 93.5733 269.292 94.4688 268.188 94.4688H252.174C251.069 94.4688 250.174 93.5733 250.174 92.4688V76.4548Z" fill="#B1BAEB"/>
<path d="M250.174 107.727C250.174 106.622 251.069 105.727 252.174 105.727H268.188C269.292 105.727 270.188 106.622 270.188 107.727V123.74C270.188 124.845 269.292 125.74 268.188 125.74H252.174C251.069 125.74 250.174 124.845 250.174 123.74V107.727Z" fill="#B1BAEB"/>
<path d="M287.402 113.172C279.349 123.346 279.956 126.574 276.978 136.998C290.062 130.378 295.449 127.775 306.761 119.129C300.386 118.172 291.721 117.908 287.402 113.172Z" fill="#7D85B3"/>
<path d="M237.267 98.5266C240.258 97.437 242.843 95.8239 244.951 93.732C247.267 91.4349 249.096 88.4745 250.387 84.9334C251.015 82.8802 251.202 80.9859 250.94 79.3032C250.702 77.7736 250.089 76.388 249.116 75.1847C247.35 73.0007 244.394 71.3929 240.568 70.5352C237.241 69.789 233.335 69.6641 229.851 70.1922C228.195 70.4438 226.658 70.8405 225.404 71.341C225.241 71.4058 225.083 71.4723 224.93 71.5403C229.259 70.5425 231.848 70.3703 235.245 70.555C241.481 70.8942 245.888 73.2452 248.343 77.5425C248.864 82.4446 247.977 86.6064 245.707 89.9121C243.744 92.7706 241.885 94.0754 237.924 95.6083C229.239 98.9705 219.349 97.8044 215.179 97.264C210.289 94.8548 207.626 91.7779 207.265 88.1184C206.964 85.0687 208.463 83.498 211.367 80.1019C213.803 77.2541 217.272 74.4553 221.136 72.2213C224.757 70.1281 229.083 68.4676 231.747 68.1558C234.173 67.583 236.792 67.4537 239.75 67.7603C239.921 67.5242 238.503 66.9925 238.512 66.942C238.513 66.9377 238.513 66.9339 238.514 66.9308L238.509 66.9256C238.477 66.892 238.373 66.8061 238.099 66.7276C237.883 66.6656 237.606 66.6216 237.276 66.5968C236.321 66.5252 235.152 66.6267 234.378 66.6938C234.102 66.7177 233.883 66.7367 233.726 66.744C233.384 66.8002 233.04 66.8578 232.694 66.9171C228.81 67.5845 224.905 69.0425 221.136 70.7324C217.025 72.5754 213.045 75.2158 209.967 78.9226C205.865 82.8614 204.877 87.3304 206.569 91.8674C207.361 93.9911 208.802 95.8573 210.736 97.264C212.801 98.7659 215.396 99.7058 218.24 99.9825C226.255 100.799 232.3 100.337 237.267 98.5266Z" fill="#F1F1FF"/>
<path d="M138.981 123.156V136.303C70.3089 137.649 30.6764 133.172 0.000640869 136.303V123.156L0.550705 123.172C54.0575 124.771 84.6627 125.686 138.981 123.156Z" fill="#60868C"/>
<path d="M117.695 131.92L138.981 133.172V131.92H117.695Z" fill="#384F53"/>
<path d="M21.2852 128.163L0 129.415V128.163H21.2852Z" fill="#384F53"/>
<path d="M88.8979 128.163L98.2884 127.537L88.8979 126.911L80.1334 127.537L88.8979 128.163Z" fill="#384F53"/>
<path d="M83.8886 136.303L53.2129 135.677L52.5868 124.533C64.4815 125.034 71.994 124.408 83.8886 124.706V136.303Z" fill="#D0CFEB"/>
<path d="M69.645 130.776L68.349 130.885L68.4153 131.674L70.8946 131.466L70.9609 132.255L68.4816 132.463L68.671 134.717L67.8258 134.788L67.6364 132.534L66.9039 132.596L66.8376 131.807L67.5701 131.745L67.5038 130.956L66.7713 131.018L66.7003 130.173L67.4328 130.111L67.0919 126.054L69.233 125.874C72.6138 125.59 73.0821 130.488 69.645 130.776Z" fill="#AFAED0"/>
<path d="M69.6301 129.925L68.3241 130.034L68.0463 126.728L69.3523 126.618C71.4144 126.445 71.7266 129.748 69.6301 129.925Z" fill="#D0CFEB"/>
<path d="M35.9336 107.999C42.82 110.503 45.3271 111.759 53.132 113.277L52.8572 113.3C44.931 113.964 44.3218 114.015 36.5594 113.277C34.0553 111.128 35.9335 111.129 35.9336 107.999Z" fill="#384F53"/>
<path d="M34.0553 126.153V113.006C102.727 111.66 142.36 116.137 173.035 113.006V126.153L172.485 126.137C118.978 124.538 88.3732 123.623 34.0553 126.153Z" fill="#6E969C"/>
<path d="M55.3404 117.389L34.0552 116.137V117.389H55.3404Z" fill="#384F53"/>
<path d="M151.751 121.145L173.036 119.893V121.145H151.751Z" fill="#384F53"/>
<path d="M84.138 121.145L74.7474 121.771L84.138 122.398L92.9025 121.771L84.138 121.145Z" fill="#384F53"/>
<path d="M89.1472 113.006L119.823 113.632L120.449 124.776C108.554 124.275 101.042 124.901 89.1472 124.602V113.006Z" fill="#D0CFEB"/>
<path d="M105.555 119.311H104.255V120.103H106.743V120.895H104.255V123.157H103.407V120.895H102.672V120.103H103.407V119.311H102.672V118.463H103.407V114.392H105.555C108.948 114.392 109.005 119.311 105.555 119.311Z" fill="#AFAED0"/>
<path d="M105.611 118.46H104.3V115.142H105.611C107.68 115.142 107.715 118.46 105.611 118.46Z" fill="#D0CFEB"/>
</svg>
