<svg width="77" height="217" viewBox="0 0 77 217" fill="none" xmlns="http://www.w3.org/2000/svg">
<path d="M0 0V217H77V0H0Z" fill="#343A60"/>
<path d="M46.7084 166.974C49.6394 167.055 51.6444 167.651 52.7234 168.762C53.8024 169.873 54.3419 171.331 54.3419 173.134C54.3419 174.262 54.0359 175.284 53.424 176.202C52.8281 177.12 51.9504 177.861 50.7909 178.425C49.6474 178.988 48.2866 179.311 46.7084 179.391V181.275L49.0274 181.565V182.749H41.9495V181.517L44.2685 181.227V179.391C41.3697 179.311 39.3727 178.691 38.2776 177.531C37.1825 176.371 36.635 174.882 36.635 173.062C36.635 171.935 36.9249 170.928 37.5046 170.042C38.1005 169.157 38.9701 168.448 40.1135 167.917C41.257 167.385 42.642 167.079 44.2685 166.999V165.308L41.9495 164.994V163.81H48.9791V164.994L46.7084 165.308V166.974ZM44.2685 167.989C42.4487 168.102 41.1926 168.593 40.5001 169.463C39.8076 170.332 39.4613 171.484 39.4613 172.917C39.4613 174.366 39.7995 175.598 40.4759 176.613C41.1523 177.612 42.4165 178.183 44.2685 178.328V167.989ZM46.7084 178.352C48.5121 178.207 49.7602 177.684 50.4527 176.782C51.1452 175.864 51.4914 174.656 51.4914 173.159C51.4914 171.725 51.1613 170.55 50.501 169.632C49.8407 168.698 48.5765 168.158 46.7084 168.013V178.352Z" fill="#949CC7"/>
<path d="M23.0247 165.791L21.1405 165.501V164.293H24.3533C24.9331 164.293 25.5048 164.269 26.0685 164.221C26.9381 164.156 27.7594 164.124 28.5324 164.124C30.8676 164.14 32.5183 164.575 33.4846 165.428C34.4509 166.282 34.934 167.57 34.934 169.294C34.934 170.582 34.6361 171.701 34.0402 172.651C33.4443 173.601 32.6149 174.326 31.552 174.825C30.5052 175.325 29.2974 175.574 27.9285 175.574C27.4615 175.574 26.9864 175.566 26.5033 175.55C26.0201 175.518 25.7222 175.494 25.6095 175.478V180.792L28.919 181.058V182.242H21.0197V181.058L23.0247 180.816V165.791ZM25.6095 174.149C26.0604 174.23 26.8334 174.27 27.9285 174.27C29.2008 174.27 30.2315 173.883 31.0206 173.11C31.8258 172.337 32.2284 171.073 32.2284 169.318C32.2284 167.933 31.8822 166.942 31.1897 166.346C30.4972 165.734 29.4182 165.428 27.9527 165.428C27.4373 165.428 26.8898 165.461 26.31 165.525C25.9557 165.557 25.7222 165.573 25.6095 165.573V174.149Z" fill="#949CC7"/>
<path d="M48.5357 150.073C49.1799 150.314 49.8241 150.854 50.4682 151.691C51.1124 152.513 51.8854 153.632 52.7873 155.049C53.3993 156.048 53.8744 156.78 54.2125 157.247C54.5507 157.698 54.8406 157.956 55.0822 158.02L56.0001 158.286V159.47H53.0047C52.6343 159.47 52.2156 159.156 51.7486 158.528C51.2976 157.883 50.7098 156.909 49.9851 155.605C49.1638 154.139 48.4793 153.028 47.9318 152.271C47.3842 151.514 46.8608 151.136 46.3616 151.136H44.8156V158.02L46.9655 158.31V159.47H40.3465V158.262L42.3032 158.02V143.019L40.3465 142.729V141.521H46.8206V142.729L44.8156 143.019V149.976H46.893L51.7727 143.019L49.7435 142.729V141.521H55.6861V142.729L53.7777 143.019L48.5357 150.073Z" fill="#949CC7"/>
<path d="M21.5739 143.019L19.6655 142.729V141.521H26.2362V142.729L24.1587 143.019V149.517H32.6619V143.019L30.7052 142.729V141.521H37.1792V142.729L35.2708 143.019V158.045L37.1792 158.286V159.47H30.681V158.286L32.6619 158.045V151.015H24.1587V158.045L26.2603 158.286V159.47H19.6172V158.286L21.5739 158.045V143.019Z" fill="#949CC7"/>
<path d="M37.0129 91.8018L36.3113 89.8373L36.7322 89.697L40.6614 100.362C40.6614 100.362 40.7317 100.634 40.6614 100.783C40.5768 100.961 40.2404 101.063 40.2404 101.063H37.7145C36.7297 100.482 36.1497 100.231 35.0483 99.9407V98.6778H35.329V99.0988H35.75V98.2568L36.4516 96.8536V95.5906H36.1709L35.75 96.4326C35.75 96.4326 34.7617 94.7842 35.4693 94.468C35.7695 94.3339 36.2073 94.1561 36.3113 94.468C36.3459 94.572 36.2766 94.6447 36.3113 94.7487C36.4152 95.0606 37.1532 94.7487 37.1532 94.7487C37.1532 94.7487 37.1399 94.6615 37.1532 94.6084C37.2064 94.3957 37.7145 94.6084 37.7145 94.6084V93.9067C35.329 93.7664 34.8547 92.4592 37.0129 91.8018Z" fill="#949CC7"/>
<path d="M41.2227 100.642L37.8548 91.6615V91.3809H38.2758L38.4161 90.8196C38.4161 90.8196 39.1354 90.4688 39.3984 90.8196C39.5957 91.0826 39.672 91.4791 39.3984 91.6615C39.216 91.7831 38.9774 91.8018 38.9774 91.8018V92.0825L39.5387 92.5035H40.1001V92.2228C40.7722 92.0066 41.1428 91.9813 41.784 92.2228C42.1393 92.5214 42.3148 92.9052 41.9243 93.4858C41.8783 93.648 41.8515 93.9873 41.784 94.1874L41.363 94.3277V93.0648H40.942C40.6908 93.5176 40.6525 93.7647 40.942 94.1874V95.4503C40.942 95.4503 41.7731 95.1129 42.2049 95.4503C42.4567 95.647 42.5566 95.6997 42.6259 96.0116C42.7239 96.4528 42.4856 97.1342 42.4856 97.1342C42.4856 97.1342 42.5232 96.1484 42.1405 95.9275C41.7609 95.7083 40.942 96.1519 40.942 96.1519C40.5271 96.675 40.6238 97.1429 40.942 98.6778H41.5033V98.3972H42.6259C42.3911 99.5211 42.0859 100.014 41.2227 100.642Z" fill="#949CC7"/>
<path d="M36.1713 98.3975V98.9588H36.5923V98.6781H37.5746C37.58 97.9901 37.5412 97.6262 37.4343 96.9942C36.8374 97.4469 36.5493 97.7421 36.1713 98.3975Z" fill="#343A60"/>
<path d="M36.4034 72.8578C35.9824 72.1562 33.7372 68.0867 37.2453 68.3674L38.9292 70.332V72.8578H37.2453C37.2453 74.9631 35.7017 75.6648 34.1582 75.9454H29.8081V75.3841C29.6677 75.2438 28.4047 73.2796 30.3693 72.8582L31.6323 73.9809L32.8952 72.8578C34.8598 72.8582 33.8775 74.8228 33.8775 75.3841C35.1404 75.1035 36.5436 74.2615 36.4034 72.8578Z" fill="#949CC7"/>
<path d="M37.6663 66.4033L38.9292 67.8065V65L37.6663 66.4033Z" fill="#949CC7"/>
<path d="M30.7903 70.8937L31.6323 71.876L32.4742 70.8937L31.6323 69.9114L30.7903 70.8937Z" fill="#949CC7"/>
<path d="M26.8611 72.8578C25.9007 74.0451 27.5294 75.7283 28.8257 75.5244C28.9881 75.4989 28.8257 75.9454 28.8257 75.9454C28.8257 75.9454 27.9423 76.1187 27.4224 75.9454C26.6872 75.7003 26.3143 75.2588 26.0192 74.5422C25.7271 73.8327 26.0192 72.5776 26.0192 72.5776C26.0192 72.5776 25.3191 72.4605 24.8966 72.5776C24.2945 72.7445 23.8411 72.9705 23.6336 73.5599C23.5063 73.9217 23.6336 74.5422 23.6336 74.5422C23.6336 74.5422 24.8838 75.4807 25.0369 76.3664C25.0929 76.6904 25.1747 76.9098 25.0369 77.2083C24.8899 77.5269 24.3353 77.7696 24.3353 77.7696C24.3353 77.7696 24.686 76.9101 24.3353 76.647C24.0722 76.4498 23.5973 76.3351 23.4933 76.647C23.4587 76.751 23.528 76.8237 23.4933 76.9277C23.3893 77.2396 22.9333 77.0969 22.6514 76.9277C22.1815 76.6457 22.8382 76.0396 22.6514 75.5244C22.4527 74.9768 21.8448 74.9572 21.6691 74.4018C21.5368 73.9838 21.2307 73.2746 21.6691 73.2792C23.2494 73.296 25.7794 71.5547 26.4402 70.613C26.7963 70.1055 27.5372 71.1162 27.5628 71.7356C27.5841 72.2521 26.8611 72.8578 26.8611 72.8578Z" fill="#949CC7"/>
<path d="M38.9292 88.9957V87.3118C38.9292 84.5053 36.4628 80.1048 36.1222 79.5939C35.5609 78.7519 37.8064 77.068 37.8064 77.068C37.8064 77.068 36.4786 77.1142 35.9821 77.2083C33.3433 77.7086 29.1062 77.3487 29.1062 77.3487C27.0746 78.2659 27.0086 79.0284 27.7029 80.5762C31.3514 76.9277 38.087 85.3468 33.8775 88.9957H38.9292Z" fill="#949CC7"/>
<path d="M29.6675 81.8391L30.6497 80.2955L32.1933 81.2778C31.0553 81.2778 30.5015 81.4112 29.6675 81.8391Z" fill="#949CC7"/>
<path d="M17.3188 72.9986C20.9428 78.5767 23.2762 81.4298 28.4045 85.6279C25.8787 88.9957 28.6852 92.0829 33.1756 90.8199V95.8717C32.1838 94.2114 31.4623 93.6239 29.6675 93.6265C28.322 97.6903 27.4855 99.7105 24.3353 98.1169C26.8134 95.8887 27.751 94.7586 27.7029 93.2055H27.0013C23.455 97.6469 22.0471 97.5315 19.985 95.3104C22.5607 94.9737 23.8801 94.3631 25.8787 92.0829L25.0369 91.6619C19.6283 94.7799 17.6641 94.8153 16.3365 91.3812C19.2691 91.6557 21.0144 91.4104 24.3353 90.1183L23.9141 89.4167C16.0458 90.9917 14.4289 89.9621 14.372 86.1892C17.86 87.5426 19.8615 87.8379 23.4933 87.7328V86.7505C15.8099 85.9723 12.8915 84.8553 14.372 79.5939C16.9165 82.584 18.8587 83.6777 23.0722 84.7859V83.944C14.5486 78.7226 14.9426 76.575 17.3188 72.9986Z" fill="#949CC7"/>
<path d="M33.1756 99.5425V97.1346C29.0003 97.8416 28.8818 99.4561 31.211 103.73C29.9117 104.461 29.066 104.609 27.4223 104.572C26.8609 103.73 26.1593 103.449 25.0367 103.87L20.1253 99.2395V98.1169H19.564V96.5733L18.3011 95.4507V96.5733C15.8231 95.9407 15.5586 96.4874 16.6172 98.6782H15.4946L16.4768 99.8008H18.1607V100.081H19.4237L24.1948 104.712C23.3528 106.536 25.0367 108.08 26.8609 107.238L28.5449 108.641L29.3868 107.799L27.7029 106.396C29.5358 105.521 30.6622 105.196 32.895 104.993C32.053 100.222 36.8241 102.046 37.3854 105.694C33.9546 106.105 32.3586 106.97 30.3691 110.185C30.779 111.438 31.2745 111.618 32.1933 111.869C33.4944 108.971 34.6154 107.682 37.8064 106.396V106.957C35.1155 108.306 34.3529 109.534 33.8775 112.29C34.4223 113.139 34.8268 113.403 35.7015 113.553C35.9618 110.74 36.48 109.428 38.2273 107.659C37.629 110.062 37.3623 111.437 37.1047 113.974C37.718 114.776 38.1221 115.073 38.9292 115.377V102.748L37.3854 101.625H35.2581C34.108 101.625 33.1756 100.693 33.1756 99.5425Z" fill="#949CC7"/>
<path d="M41.5036 72.8578C41.9246 72.1562 44.1698 68.0867 40.6617 68.3674L38.9778 70.332V72.8578H40.6617C40.6617 74.9631 42.2053 75.6648 43.7488 75.9454H48.0989V75.3841C48.2393 75.2438 49.5023 73.2796 47.5377 72.8582L46.2747 73.9809L45.0117 72.8578C43.0472 72.8582 44.0295 74.8228 44.0295 75.3841C42.7666 75.1035 41.3634 74.2615 41.5036 72.8578Z" fill="#949CC7"/>
<path d="M40.2407 66.4033L38.9778 67.8065V65L40.2407 66.4033Z" fill="#949CC7"/>
<path d="M47.1167 70.8937L46.2747 71.876L45.4328 70.8937L46.2747 69.9114L47.1167 70.8937Z" fill="#949CC7"/>
<path d="M51.0458 72.8578C52.0063 74.0451 50.3776 75.7283 49.0813 75.5244C48.9189 75.4989 49.0813 75.9454 49.0813 75.9454C49.0813 75.9454 49.9647 76.1187 50.4845 75.9454C51.2198 75.7003 51.5927 75.2588 51.8878 74.5422C52.1799 73.8327 51.8878 72.5776 51.8878 72.5776C51.8878 72.5776 52.5879 72.4605 53.0104 72.5776C53.6125 72.7445 54.0659 72.9705 54.2733 73.5599C54.4007 73.9217 54.2733 74.5422 54.2733 74.5422C54.2733 74.5422 53.0232 75.4807 52.8701 76.3664C52.8141 76.6904 52.7323 76.9098 52.8701 77.2083C53.0171 77.5269 53.5717 77.7696 53.5717 77.7696C53.5717 77.7696 53.221 76.9101 53.5717 76.647C53.8347 76.4498 54.3097 76.3351 54.4137 76.647C54.4483 76.751 54.379 76.8237 54.4137 76.9277C54.5176 77.2396 54.9737 77.0969 55.2556 76.9277C55.7255 76.6457 55.0688 76.0396 55.2556 75.5244C55.4542 74.9768 56.0622 74.9572 56.2379 74.4018C56.3701 73.9838 56.6763 73.2746 56.2379 73.2792C54.6575 73.296 52.1276 71.5547 51.4668 70.613C51.1107 70.1055 50.3698 71.1162 50.3442 71.7356C50.3229 72.2521 51.0458 72.8578 51.0458 72.8578Z" fill="#949CC7"/>
<path d="M38.9778 88.9957V87.3118C38.9778 84.5053 41.4442 80.1048 41.7848 79.5939C42.3461 78.7519 40.1006 77.068 40.1006 77.068C40.1006 77.068 41.4284 77.1142 41.9249 77.2083C44.5636 77.7086 48.8008 77.3487 48.8008 77.3487C50.8324 78.2659 50.8984 79.0284 50.2041 80.5762C46.5556 76.9277 39.82 85.3468 44.0295 88.9957H38.9778Z" fill="#949CC7"/>
<path d="M48.2395 81.8391L47.2572 80.2955L45.7137 81.2778C46.8517 81.2778 47.4055 81.4112 48.2395 81.8391Z" fill="#949CC7"/>
<path d="M60.5882 72.9986C56.9641 78.5767 54.6308 81.4298 49.5024 85.6279C52.0283 88.9957 49.2218 92.0829 44.7314 90.8199V95.8717C45.7231 94.2114 46.4446 93.6239 48.2395 93.6265C49.585 97.6903 50.4214 99.7105 53.5717 98.1169C51.0936 95.8887 50.156 94.7586 50.2041 93.2055H50.9057C54.452 97.6469 55.8599 97.5315 57.922 95.3104C55.3463 94.9737 54.0269 94.3631 52.0283 92.0829L52.8701 91.6619C58.2787 94.7799 60.2429 94.8153 61.5705 91.3812C58.6379 91.6557 56.8925 91.4104 53.5717 90.1183L53.9929 89.4167C61.8612 90.9917 63.4781 89.9621 63.535 86.1892C60.047 87.5426 58.0455 87.8379 54.4137 87.7328V86.7505C62.0971 85.9723 65.0155 84.8553 63.535 79.5939C60.9905 82.584 59.0483 83.6777 54.8348 84.7859V83.944C63.3584 78.7226 62.9644 76.575 60.5882 72.9986Z" fill="#949CC7"/>
<path d="M44.7314 99.5425V97.1346C48.9067 97.8416 49.0252 99.4561 46.6959 103.73C47.9953 104.461 48.5604 104.609 50.2041 104.572V106.396C48.3712 105.521 47.2448 105.196 45.012 104.993C45.854 100.222 41.0829 102.046 40.5216 105.694C43.9524 106.105 45.5484 106.97 47.5379 110.185C47.128 111.438 46.6325 111.618 45.7137 111.869C44.4126 108.971 43.2915 107.682 40.1006 106.396V106.957C42.7914 108.306 43.5541 109.534 44.0295 112.29C43.4846 113.139 43.0802 113.403 42.2055 113.553C41.9452 110.74 41.427 109.428 39.6796 107.659C40.278 110.062 40.5446 111.437 40.8023 113.974C40.1889 114.776 39.7849 115.073 38.9778 115.377V102.748L40.5216 101.625H42.6489C43.799 101.625 44.7314 100.693 44.7314 99.5425Z" fill="#949CC7"/>
<path d="M53.0104 102.748L51.8877 101.625L53.0104 100.502L54.133 101.625L53.0104 102.748Z" fill="#949CC7"/>
<path d="M53.0117 108.22C54.5617 108.22 55.8182 106.964 55.8182 105.414C55.8182 104.375 55.2538 103.468 54.4149 102.983L53.0117 104.291L51.6084 102.983C50.7695 103.468 50.2052 104.375 50.2052 105.414C50.2052 106.964 51.4617 108.22 53.0117 108.22Z" fill="#949CC7"/>
<path d="M15.6663 128.1C15.6663 127.295 16.3189 126.642 17.124 126.642H60.8561C61.6612 126.642 62.3139 127.295 62.3139 128.1C62.3139 128.905 61.6612 129.558 60.8561 129.558H17.124C16.3189 129.558 15.6663 128.905 15.6663 128.1Z" fill="#949CC7"/>
</svg>
