<svg width="212" height="182" viewBox="0 0 212 182" fill="none" xmlns="http://www.w3.org/2000/svg">
<path d="M62.2921 99.6213C66.2953 82.4598 70.5856 75.021 79.7373 63.8659C88.8889 52.7142 92.8922 50.7109 96.6115 41.5592C100.328 32.4074 102.044 24.117 101.76 17.2524C101.473 10.3878 103.297 9.07299 107.192 8.09744C112.915 6.66837 121.819 13.7744 121.926 28.975C122.07 49.8527 113.77 58.4367 113.77 73.595C113.77 88.7532 116.344 89.6113 116.344 89.6113L62.2921 99.6213Z" fill="#EDA885"/>
<path d="M113.101 9.23239C116.298 13.7674 118.481 20.9387 118.344 31.8001C118.08 52.8376 105.923 59.2553 109.131 82.8474C109.617 86.4233 110.667 88.8409 112.083 90.3939L116.344 89.6076C116.344 89.6076 113.77 88.7495 113.77 73.5913C113.77 58.433 122.07 49.8527 121.926 28.975C121.854 18.5052 117.607 11.8784 113.101 9.23239Z" fill="#E28E63"/>
<path d="M51.5582 89.4017L92.9579 76.0477L99.32 70.1977H109.76L130.491 73.3429C130.491 73.3429 151.085 72.0574 156.234 75.0591C161.382 78.064 167.816 82.1097 167.389 87.2581C166.958 92.4033 164.384 96.6937 161.809 97.9824C161.809 97.9824 169.963 101.842 169.532 109.137C169.101 116.429 163.098 119.862 163.098 119.862C163.098 119.862 167.173 122.863 166.746 128.012C166.315 133.16 163.238 136.948 158.09 138.736C158.09 138.736 163.741 140.88 163.741 146.459C163.741 152.035 158.377 157.61 150.227 160.185C142.077 162.759 137.359 161.904 130.491 162.332C123.63 162.759 115.049 166.191 98.7458 164.478C82.4457 162.759 68.7197 151.124 58.8502 150.531C48.9807 149.94 42.1194 150.531 42.1194 150.531V89.8323L51.5582 89.4017Z" fill="#EDA885"/>
<path d="M130.491 162.332C137.356 161.904 142.077 162.762 150.227 160.188C158.377 157.614 163.737 152.038 163.737 146.462C162.096 154.756 144.507 155.359 117.336 155.359C90.1681 155.359 71.8614 142.743 58.9935 142.456C52.8532 142.319 46.7945 142.965 42.1191 143.676V150.534C42.1191 150.534 48.9805 149.94 58.85 150.534C68.7162 151.125 82.4456 162.762 98.7458 164.478C115.049 166.195 123.627 162.762 130.491 162.332Z" fill="#E28E63"/>
<path d="M128.485 94.9256C128.485 94.9256 127.075 96.0283 131.271 96.7461C138.742 98.0218 148.52 99.0985 162.481 98.3415C162.07 98.1066 161.809 97.9794 161.809 97.9794C164.383 96.6907 166.958 92.4035 167.388 87.2551C167.395 87.1735 167.365 87.0985 167.369 87.0169C166.736 91.1181 163.264 94.5471 150.439 94.7624C135.065 95.0202 128.485 94.9256 128.485 94.9256Z" fill="#E28E63"/>
<path d="M169.535 109.138C169.571 108.521 169.525 107.934 169.45 107.366C168.53 112.449 161.509 117.578 144.651 117.578H129.17C129.17 117.578 126.889 118.935 130.99 119.722C137.6 120.991 145.167 121.095 153.813 121.007C157.923 120.965 160.928 120.534 163.183 119.93L163.098 119.862C163.098 119.862 169.105 116.43 169.535 109.138Z" fill="#E28E63"/>
<path d="M166.746 128.009C166.827 127.017 166.71 126.133 166.52 125.304C165.953 130.531 159.02 135.973 141.649 135.973H125.992C125.992 135.973 125.248 137.604 127.17 138.09C131.323 139.138 141.228 139.503 150.804 139.405C153.812 139.376 156.21 139.131 158.178 138.772C158.158 138.762 158.093 138.736 158.093 138.736C163.241 136.948 166.315 133.157 166.746 128.009Z" fill="#E28E63"/>
<path d="M10.3706 80.3926H51.5549L48.1259 173.058H10.3706V80.3926Z" fill="#0E0C50"/>
<path d="M39.548 154.178L51.561 80.3901L48.1287 173.056H10.3734V162.543L39.548 154.178Z" fill="#454386"/>
<path d="M28.2917 138.461C27.5376 138.425 26.8517 138.897 26.6141 139.614L23.4072 149.302L12.8484 152.31C11.955 152.566 11.4374 153.498 11.6925 154.393C11.8522 154.952 12.2894 155.39 12.8484 155.55L23.4072 158.558L26.6141 168.246C26.9054 169.129 27.8569 169.609 28.7393 169.317C29.2429 169.151 29.6385 168.757 29.8072 168.254L33.0431 158.562L43.6045 155.553C44.4981 155.297 45.0155 154.365 44.7604 153.47C44.6009 152.911 44.1637 152.473 43.6045 152.313L33.0431 149.304L29.8072 139.612C29.5868 138.953 28.9851 138.498 28.2917 138.464V138.461Z" fill="#F8DF7D"/>
<path d="M190.025 10.1718C189.445 10.144 188.917 10.5067 188.734 11.0588L186.267 18.5137L178.142 20.8286C177.454 21.0252 177.056 21.7425 177.252 22.4309C177.375 22.8616 177.711 23.1984 178.142 23.3214L186.267 25.6363L188.734 33.0912C188.959 33.771 189.691 34.1402 190.37 33.9157C190.757 33.7877 191.062 33.4843 191.192 33.0971L193.682 25.6394L201.809 23.3237C202.496 23.1271 202.894 22.4098 202.698 21.7214C202.575 21.2906 202.239 20.9539 201.809 20.8309L193.682 18.5153L191.192 11.0575C191.022 10.5504 190.559 10.1996 190.025 10.1741V10.1718Z" fill="#F8DF7D"/>
<path d="M1.44946 153.893C1.44946 153.893 5.28372 153.893 7.79677 153.893M28.1216 180.728C28.1216 180.728 28.1216 176.894 28.1216 174.381M54.9568 154.057C54.9568 154.057 51.1225 154.057 48.6095 154.057M28.2848 127.222C28.2848 127.222 28.2848 131.056 28.2848 133.569M168.866 22.04C171.036 22.04 174.189 22.04 174.189 22.04M189.905 43.2203C189.905 41.0502 189.905 37.8972 189.905 37.8972M211.086 22.1807C208.916 22.1807 205.763 22.1807 205.763 22.1807M190.046 1C190.046 3.17011 190.046 6.32308 190.046 6.32308" stroke="#F8DF7D" stroke-width="1.64203" stroke-linecap="round"/>
</svg>
