<svg width="63" height="74" viewBox="0 0 63 74" fill="none" xmlns="http://www.w3.org/2000/svg">
<path d="M48.9574 68.6678H7.3214V71.7741H52.0641V7.82104H48.9574V68.6678ZM48.9574 68.6678H4.21472V65.4528L45.7291 65.4172L45.7427 4.71472H48.9574V68.6678ZM18.0457 41.8614H8.19716V58.2556H18.0457M18.0457 41.8614V58.2556M18.0457 41.8614H27.8937M18.0457 58.2556H27.8937M27.8937 41.8614V58.2556M27.8937 41.8614H37.7425V58.2556H27.8937M8.19716 50.0445H38.4349M8.19716 45.9387H38.4349M8.19707 54.1505H38.4348M45.7427 65.4528H1V1.5H45.7427V65.4528ZM14.923 34.6359H18.286L18.23 21.6745H14.867L14.923 34.6359ZM8.19663 34.6358H11.5596L11.5036 13.2488H8.14064L8.19663 34.6358ZM28.375 34.636H31.7378L31.7298 20.6806H28.367L28.375 34.636ZM21.5803 34.6168L24.9429 34.6537L25.1077 13.7343L21.7451 13.6974L21.5803 34.6168ZM38.4232 12.3752H35.0604L35.1007 34.636H38.4633L38.4232 12.3752Z" stroke="#0E0C50" stroke-width="1.55388" stroke-miterlimit="10"/>
<path d="M61.289 73.5001H35.7324C34.84 73.5001 34.1167 72.7765 34.1167 71.8843V29.0546C34.1167 28.1623 34.84 27.4389 35.7324 27.4389H61.289C62.1814 27.4389 62.9047 28.1623 62.9047 29.0546V71.8843C62.9047 72.7765 62.1814 73.5001 61.289 73.5001Z" fill="#0E0C50"/>
<path d="M58.5863 37.5151H38.4347V31.7573H58.5863V37.5151Z" fill="#484F80"/>
<path d="M41.6661 43.8184H39.2425C38.7964 43.8184 38.4347 43.4567 38.4347 43.0105V41.2316C38.4347 40.7855 38.7964 40.4237 39.2425 40.4237H41.6661C42.1124 40.4237 42.474 40.7855 42.474 41.2316V43.0105C42.474 43.4567 42.1124 43.8184 41.6661 43.8184Z" fill="#A4A3C2"/>
<path d="M57.7783 43.8184H55.3548C54.9085 43.8184 54.5469 43.4567 54.5469 43.0105V41.2316C54.5469 40.7855 54.9085 40.4237 55.3548 40.4237H57.7783C58.2244 40.4237 58.5862 40.7855 58.5862 41.2316V43.0105C58.5862 43.4567 58.2244 43.8184 57.7783 43.8184Z" fill="#A4A3C2"/>
<path d="M52.4078 43.8184H49.9843C49.538 43.8184 49.1764 43.4567 49.1764 43.0105V41.2316C49.1764 40.7855 49.538 40.4237 49.9843 40.4237H52.4078C52.8541 40.4237 53.2157 40.7855 53.2157 41.2316V43.0105C53.2157 43.4567 52.8541 43.8184 52.4078 43.8184Z" fill="#A4A3C2"/>
<path d="M47.0373 43.8184H44.6137C44.1675 43.8184 43.8059 43.4567 43.8059 43.0105V41.2316C43.8059 40.7855 44.1675 40.4237 44.6137 40.4237H47.0373C47.4834 40.4237 47.8452 40.7855 47.8452 41.2316V43.0105C47.8452 43.4567 47.4834 43.8184 47.0373 43.8184Z" fill="#484F80"/>
<path d="M41.6661 50.7411H39.2425C38.7964 50.7411 38.4347 50.3795 38.4347 49.9333V48.1543C38.4347 47.7082 38.7964 47.3465 39.2425 47.3465H41.6661C42.1124 47.3465 42.474 47.7082 42.474 48.1543V49.9333C42.474 50.3795 42.1124 50.7411 41.6661 50.7411Z" fill="white"/>
<path d="M57.7783 50.7411H55.3548C54.9085 50.7411 54.5469 50.3795 54.5469 49.9333V48.1543C54.5469 47.7082 54.9085 47.3465 55.3548 47.3465H57.7783C58.2244 47.3465 58.5862 47.7082 58.5862 48.1543V49.9333C58.5862 50.3795 58.2244 50.7411 57.7783 50.7411Z" fill="#484F80"/>
<path d="M52.4078 50.7411H49.9843C49.538 50.7411 49.1764 50.3795 49.1764 49.9333V48.1543C49.1764 47.7082 49.538 47.3465 49.9843 47.3465H52.4078C52.8541 47.3465 53.2157 47.7082 53.2157 48.1543V49.9333C53.2157 50.3795 52.8541 50.7411 52.4078 50.7411Z" fill="#484F80"/>
<path d="M47.0373 50.7411H44.6137C44.1675 50.7411 43.8059 50.3795 43.8059 49.9333V48.1543C43.8059 47.7082 44.1675 47.3465 44.6137 47.3465H47.0373C47.4834 47.3465 47.8452 47.7082 47.8452 48.1543V49.9333C47.8452 50.3795 47.4834 50.7411 47.0373 50.7411Z" fill="#484F80"/>
<path d="M41.6661 59.9531H39.2425C38.7964 59.9531 38.4347 59.5914 38.4347 59.1453V57.3663C38.4347 56.9204 38.7964 56.5585 39.2425 56.5585H41.6661C42.1124 56.5585 42.474 56.9204 42.474 57.3663V59.1453C42.474 59.5914 42.1124 59.9531 41.6661 59.9531Z" fill="#484F80"/>
<path d="M57.7783 59.9531H55.3548C54.9085 59.9531 54.5469 59.5914 54.5469 59.1453V57.3663C54.5469 56.9204 54.9085 56.5585 55.3548 56.5585H57.7783C58.2244 56.5585 58.5862 56.9204 58.5862 57.3663V59.1453C58.5862 59.5914 58.2244 59.9531 57.7783 59.9531Z" fill="#484F80"/>
<path d="M52.4078 59.9531H49.9843C49.538 59.9531 49.1764 59.5914 49.1764 59.1453V57.3663C49.1764 56.9204 49.538 56.5585 49.9843 56.5585H52.4078C52.8541 56.5585 53.2157 56.9204 53.2157 57.3663V59.1453C53.2157 59.5914 52.8541 59.9531 52.4078 59.9531Z" fill="#484F80"/>
<path d="M47.0373 59.9531H44.6137C44.1675 59.9531 43.8059 59.5914 43.8059 59.1453V57.3663C43.8059 56.9204 44.1675 56.5585 44.6137 56.5585H47.0373C47.4834 56.5585 47.8452 56.9204 47.8452 57.3663V59.1453C47.8452 59.5914 47.4834 59.9531 47.0373 59.9531Z" fill="#484F80"/>
<path d="M41.6661 64.5595H39.2425C38.7964 64.5595 38.4347 64.1977 38.4347 63.7516V61.9727C38.4347 61.5268 38.7964 61.1648 39.2425 61.1648H41.6661C42.1124 61.1648 42.474 61.5268 42.474 61.9727V63.7516C42.474 64.1977 42.1124 64.5595 41.6661 64.5595Z" fill="#484F80"/>
<path d="M57.7783 64.5595H55.3548C54.9085 64.5595 54.5469 64.1977 54.5469 63.7516V61.9727C54.5469 61.5268 54.9085 61.1648 55.3548 61.1648H57.7783C58.2244 61.1648 58.5862 61.5268 58.5862 61.9727V63.7516C58.5862 64.1977 58.2244 64.5595 57.7783 64.5595Z" fill="#484F80"/>
<path d="M52.4078 64.5595H49.9843C49.538 64.5595 49.1764 64.1977 49.1764 63.7516V61.9727C49.1764 61.5268 49.538 61.1648 49.9843 61.1648H52.4078C52.8541 61.1648 53.2157 61.5268 53.2157 61.9727V63.7516C53.2157 64.1977 52.8541 64.5595 52.4078 64.5595Z" fill="#484F80"/>
<path d="M47.0373 64.5595H44.6137C44.1675 64.5595 43.8059 64.1977 43.8059 63.7516V61.9727C43.8059 61.5268 44.1675 61.1648 44.6137 61.1648H47.0373C47.4834 61.1648 47.8452 61.5268 47.8452 61.9727V63.7516C47.8452 64.1977 47.4834 64.5595 47.0373 64.5595Z" fill="#484F80"/>
<path d="M41.6661 69.1655H39.2425C38.7964 69.1655 38.4347 68.8039 38.4347 68.3576V66.5787C38.4347 66.1326 38.7964 65.7708 39.2425 65.7708H41.6661C42.1124 65.7708 42.474 66.1326 42.474 66.5787V68.3576C42.474 68.8039 42.1124 69.1655 41.6661 69.1655Z" fill="#484F80"/>
<path d="M57.7783 69.1655H55.3548C54.9085 69.1655 54.5469 68.8039 54.5469 68.3576V66.5787C54.5469 66.1326 54.9085 65.7708 55.3548 65.7708H57.7783C58.2244 65.7708 58.5862 66.1326 58.5862 66.5787V68.3576C58.5862 68.8039 58.2244 69.1655 57.7783 69.1655Z" fill="#484F80"/>
<path d="M52.4078 69.1655H49.9843C49.538 69.1655 49.1764 68.8039 49.1764 68.3576V66.5787C49.1764 66.1326 49.538 65.7708 49.9843 65.7708H52.4078C52.8541 65.7708 53.2157 66.1326 53.2157 66.5787V68.3576C53.2157 68.8039 52.8541 69.1655 52.4078 69.1655Z" fill="#484F80"/>
<path d="M47.0373 69.1655H44.6137C44.1675 69.1655 43.8059 68.8039 43.8059 68.3576V66.5787C43.8059 66.1326 44.1675 65.7708 44.6137 65.7708H47.0373C47.4834 65.7708 47.8452 66.1326 47.8452 66.5787V68.3576C47.8452 68.8039 47.4834 69.1655 47.0373 69.1655Z" fill="#484F80"/>
<path d="M41.6661 55.3468H39.2425C38.7964 55.3468 38.4347 54.9852 38.4347 54.5389V52.76C38.4347 52.3139 38.7964 51.9521 39.2425 51.9521H41.6661C42.1124 51.9521 42.474 52.3139 42.474 52.76V54.5389C42.474 54.9852 42.1124 55.3468 41.6661 55.3468Z" fill="#484F80"/>
<path d="M57.7783 55.3468H55.3548C54.9085 55.3468 54.5469 54.9852 54.5469 54.5389V52.76C54.5469 52.3139 54.9085 51.9521 55.3548 51.9521H57.7783C58.2244 51.9521 58.5862 52.3139 58.5862 52.76V54.5389C58.5862 54.9852 58.2244 55.3468 57.7783 55.3468Z" fill="#484F80"/>
<path d="M52.4078 55.3468H49.9843C49.538 55.3468 49.1764 54.9852 49.1764 54.5389V52.76C49.1764 52.3139 49.538 51.9521 49.9843 51.9521H52.4078C52.8541 51.9521 53.2157 52.3139 53.2157 52.76V54.5389C53.2157 54.9852 52.8541 55.3468 52.4078 55.3468Z" fill="#484F80"/>
<path d="M47.0373 55.3468H44.6137C44.1675 55.3468 43.8059 54.9852 43.8059 54.5389V52.76C43.8059 52.3139 44.1675 51.9521 44.6137 51.9521H47.0373C47.4834 51.9521 47.8452 52.3139 47.8452 52.76V54.5389C47.8452 54.9852 47.4834 55.3468 47.0373 55.3468Z" fill="#484F80"/>
</svg>
