<svg width="149" height="101" viewBox="0 0 149 101" fill="none" xmlns="http://www.w3.org/2000/svg">
<path d="M113 0.617432V100.488H149V0.617432H113Z" fill="#343A60"/>
<path d="M134.838 77.465C136.208 77.502 137.145 77.7762 137.65 78.2877C138.154 78.7991 138.407 79.4699 138.407 80.3C138.407 80.8188 138.264 81.2895 137.977 81.712C137.699 82.1344 137.288 82.4754 136.746 82.7348C136.212 82.9942 135.576 83.1424 134.838 83.1795V84.0467L135.922 84.1801V84.7249H132.613V84.1579L133.697 84.0245V83.1795C132.342 83.1424 131.408 82.8571 130.896 82.3234C130.384 81.7898 130.128 81.1042 130.128 80.2666C130.128 79.7478 130.264 79.2846 130.535 78.8769C130.813 78.4693 131.22 78.1431 131.754 77.8985C132.289 77.6539 132.937 77.5131 133.697 77.4761V76.6978L132.613 76.5533V76.0085H135.899V76.5533L134.838 76.6978V77.465ZM133.697 77.9319C132.846 77.9838 132.259 78.2098 131.935 78.6101C131.611 79.0103 131.449 79.5403 131.449 80.1999C131.449 80.867 131.608 81.434 131.924 81.9009C132.24 82.3605 132.831 82.6236 133.697 82.6903V77.9319ZM134.838 82.7014C135.681 82.6347 136.264 82.3938 136.588 81.9788C136.912 81.5563 137.074 81.0004 137.074 80.3111C137.074 79.6515 136.92 79.1104 136.611 78.6879C136.302 78.258 135.711 78.0097 134.838 77.943V82.7014Z" fill="#949CC7"/>
<path d="M123.765 76.9202L122.884 76.7867V76.2309H124.386C124.657 76.2309 124.924 76.2197 125.188 76.1975C125.594 76.1679 125.978 76.153 126.34 76.153C127.432 76.1604 128.203 76.3606 128.655 76.7534C129.107 77.1462 129.333 77.7392 129.333 78.5322C129.333 79.1252 129.193 79.6403 128.915 80.0776C128.636 80.5149 128.249 80.8484 127.752 81.0782C127.262 81.308 126.697 81.4229 126.057 81.4229C125.839 81.4229 125.617 81.4192 125.391 81.4118C125.165 81.3969 125.026 81.3858 124.973 81.3784V83.8243L126.521 83.9466V84.4914H122.827V83.9466L123.765 83.8354V76.9202ZM124.973 80.7669C125.184 80.804 125.545 80.8225 126.057 80.8225C126.652 80.8225 127.134 80.6446 127.503 80.2889C127.88 79.9331 128.068 79.3512 128.068 78.5434C128.068 77.9059 127.906 77.4501 127.582 77.1759C127.258 76.8942 126.754 76.7534 126.069 76.7534C125.828 76.7534 125.572 76.7682 125.301 76.7979C125.135 76.8127 125.026 76.8201 124.973 76.8201V80.7669Z" fill="#949CC7"/>
<path d="M135.692 69.6862C135.993 69.7974 136.294 70.0457 136.596 70.4311C136.897 70.8091 137.258 71.3242 137.68 71.9764C137.966 72.436 138.188 72.7732 138.346 72.9882C138.504 73.1957 138.64 73.3143 138.753 73.3439L139.182 73.4662V74.011H137.781C137.608 74.011 137.412 73.8665 137.194 73.5774C136.983 73.2809 136.708 72.8325 136.37 72.2321C135.986 71.5577 135.666 71.0463 135.41 70.6979C135.154 70.3495 134.909 70.1754 134.676 70.1754H133.953V73.3439L134.958 73.4773V74.011H131.863V73.4551L132.778 73.3439V66.4398L131.863 66.3064V65.7505H134.89V66.3064L133.953 66.4398V69.6417H134.924L137.205 66.4398L136.257 66.3064V65.7505H139.035V66.3064L138.143 66.4398L135.692 69.6862Z" fill="#949CC7"/>
<path d="M123.086 66.4398L122.194 66.3064V65.7505H125.266V66.3064L124.295 66.4398V69.4305H128.27V66.4398L127.356 66.3064V65.7505H130.382V66.3064L129.49 66.4398V73.3551L130.382 73.4662V74.011H127.344V73.4662L128.27 73.3551V70.1198H124.295V73.3551L125.278 73.4662V74.011H122.172V73.4662L123.086 73.3551V66.4398Z" fill="#949CC7"/>
<path d="M130.305 42.8679L129.977 41.9637L130.174 41.8991L132.011 46.8074C132.011 46.8074 132.043 46.9328 132.011 47.0012C131.971 47.0833 131.814 47.1303 131.814 47.1303H130.633C130.172 46.863 129.901 46.7473 129.386 46.6137V46.0324H129.517V46.2262H129.714V45.8387L130.042 45.1928V44.6116H129.911L129.714 44.9991C129.714 44.9991 129.252 44.2404 129.583 44.0949C129.723 44.0332 129.928 43.9514 129.977 44.0949C129.993 44.1428 129.96 44.1763 129.977 44.2241C130.025 44.3677 130.37 44.2241 130.37 44.2241C130.37 44.2241 130.364 44.184 130.37 44.1595C130.395 44.0616 130.633 44.1595 130.633 44.1595V43.8366C129.517 43.772 129.296 43.1704 130.305 42.8679Z" fill="#949CC7"/>
<path d="M132.273 46.9366L130.698 42.8033V42.6741H130.895L130.961 42.4158C130.961 42.4158 131.297 42.2544 131.42 42.4158C131.512 42.5368 131.548 42.7193 131.42 42.8033C131.335 42.8592 131.223 42.8679 131.223 42.8679V42.997L131.486 43.1908H131.748V43.0616C132.062 42.9621 132.236 42.9505 132.535 43.0616C132.702 43.199 132.784 43.3756 132.601 43.6429C132.579 43.7175 132.567 43.8737 132.535 43.9658L132.339 44.0304V43.4491H132.142C132.024 43.6575 132.006 43.7712 132.142 43.9658V44.547C132.142 44.547 132.53 44.3917 132.732 44.547C132.85 44.6376 132.897 44.6618 132.929 44.8053C132.975 45.0084 132.863 45.322 132.863 45.322C132.863 45.322 132.881 44.8683 132.702 44.7666C132.525 44.6657 132.142 44.8699 132.142 44.8699C131.948 45.1107 131.993 45.326 132.142 46.0324H132.404V45.9033H132.929C132.819 46.4206 132.677 46.6476 132.273 46.9366Z" fill="#949CC7"/>
<path d="M129.911 45.9034V46.1617H130.108V46.0326H130.567C130.57 45.7159 130.552 45.5484 130.502 45.2576C130.223 45.4659 130.088 45.6018 129.911 45.9034Z" fill="#343A60"/>
<path d="M130.02 34.1492C129.823 33.8262 128.773 31.9533 130.413 32.0825L131.201 32.9867V34.1492H130.413C130.413 35.1181 129.692 35.441 128.97 35.5702H126.936V35.3118C126.871 35.2473 126.28 34.3433 127.199 34.1494L127.789 34.666L128.38 34.1492C129.298 34.1494 128.839 35.0535 128.839 35.3118C129.429 35.1827 130.085 34.7952 130.02 34.1492Z" fill="#949CC7"/>
<path d="M130.61 31.1785L131.201 31.8244V30.5327L130.61 31.1785Z" fill="#949CC7"/>
<path d="M127.395 33.2452L127.789 33.6973L128.183 33.2452L127.789 32.7931L127.395 33.2452Z" fill="#949CC7"/>
<path d="M125.558 34.1492C125.109 34.6956 125.871 35.4703 126.477 35.3764C126.553 35.3647 126.477 35.5702 126.477 35.5702C126.477 35.5702 126.064 35.6499 125.821 35.5702C125.477 35.4574 125.303 35.2542 125.165 34.9243C125.028 34.5978 125.165 34.0202 125.165 34.0202C125.165 34.0202 124.837 33.9663 124.64 34.0202C124.358 34.097 124.146 34.201 124.049 34.4723C123.99 34.6388 124.049 34.9243 124.049 34.9243C124.049 34.9243 124.634 35.3563 124.706 35.7639C124.732 35.913 124.77 36.014 124.706 36.1514C124.637 36.298 124.378 36.4098 124.378 36.4098C124.378 36.4098 124.542 36.0142 124.378 35.8931C124.255 35.8023 124.033 35.7495 123.984 35.8931C123.968 35.9409 124 35.9744 123.984 36.0223C123.935 36.1658 123.722 36.1001 123.59 36.0223C123.371 35.8925 123.678 35.6135 123.59 35.3764C123.497 35.1244 123.213 35.1154 123.131 34.8598C123.069 34.6674 122.926 34.341 123.131 34.3431C123.87 34.3508 125.053 33.5494 125.362 33.116C125.528 32.8825 125.875 33.3476 125.886 33.6327C125.896 33.8704 125.558 34.1492 125.558 34.1492Z" fill="#949CC7"/>
<path d="M131.201 41.5764V40.8014C131.201 39.5097 130.048 37.4845 129.888 37.2493C129.626 36.8618 130.676 36.0868 130.676 36.0868C130.676 36.0868 130.055 36.1081 129.823 36.1514C128.589 36.3817 126.608 36.216 126.608 36.216C125.658 36.6381 125.627 36.9891 125.952 37.7014C127.658 36.0223 130.807 39.897 128.839 41.5764H131.201Z" fill="#949CC7"/>
<path d="M126.871 38.2827L127.33 37.5722L128.051 38.0243C127.519 38.0243 127.26 38.0857 126.871 38.2827Z" fill="#949CC7"/>
<path d="M121.097 34.2139C122.791 36.7812 123.882 38.0943 126.28 40.0264C125.099 41.5764 126.411 42.9972 128.511 42.416V44.7409C128.047 43.9768 127.71 43.7064 126.871 43.7076C126.241 45.5779 125.85 46.5077 124.378 45.7743C125.536 44.7488 125.974 44.2287 125.952 43.5139H125.624C123.966 45.558 123.308 45.5049 122.344 44.4826C123.548 44.3276 124.165 44.0467 125.099 42.9972L124.706 42.8035C122.177 44.2384 121.259 44.2548 120.638 42.6743C122.009 42.8006 122.825 42.6877 124.378 42.093L124.181 41.7701C120.502 42.495 119.746 42.0211 119.719 40.2847C121.35 40.9076 122.286 41.0435 123.984 40.9951V40.5431C120.392 40.1849 119.027 39.6708 119.719 37.2493C120.909 38.6255 121.817 39.1288 123.787 39.6389V39.2514C119.802 36.8484 119.986 35.8599 121.097 34.2139Z" fill="#949CC7"/>
<path d="M128.511 46.4304V45.3222C126.559 45.6475 126.503 46.3906 127.592 48.3576C126.985 48.694 126.589 48.7623 125.821 48.7451C125.558 48.3576 125.23 48.2284 124.705 48.4222L122.409 46.2909V45.7743H122.147V45.0639L121.556 44.5472V45.0639C120.398 44.7727 120.274 45.0243 120.769 46.0326H120.244L120.703 46.5493H121.491V46.6784H122.081L124.312 48.8097C123.918 49.6492 124.705 50.3596 125.558 49.9721L126.346 50.618L126.739 50.2305L125.952 49.5847C126.809 49.182 127.336 49.0322 128.379 48.9388C127.986 46.743 130.216 47.5826 130.479 49.2617C128.875 49.4505 128.129 49.8488 127.199 51.3284C127.39 51.905 127.622 51.9878 128.051 52.1034C128.66 50.7697 129.184 50.1766 130.676 49.5847V49.843C129.418 50.4636 129.061 51.029 128.839 52.2971C129.094 52.688 129.283 52.8095 129.692 52.8784C129.813 51.5839 130.056 50.9802 130.873 50.1659C130.593 51.2719 130.468 51.9048 130.348 53.0721C130.634 53.4415 130.823 53.5782 131.201 53.718V47.9055L130.479 47.3888H129.484C128.947 47.3888 128.511 46.9597 128.511 46.4304Z" fill="#949CC7"/>
<path d="M132.404 34.1492C132.601 33.8262 133.651 31.9533 132.011 32.0825L131.223 32.9867V34.1492H132.011C132.011 35.1181 132.732 35.441 133.454 35.5702H135.488V35.3118C135.553 35.2473 136.144 34.3433 135.225 34.1494L134.635 34.666L134.044 34.1492C133.126 34.1494 133.585 35.0535 133.585 35.3118C132.995 35.1827 132.339 34.7952 132.404 34.1492Z" fill="#949CC7"/>
<path d="M131.814 31.1785L131.223 31.8244V30.5327L131.814 31.1785Z" fill="#949CC7"/>
<path d="M135.029 33.2452L134.635 33.6973L134.241 33.2452L134.635 32.7931L135.029 33.2452Z" fill="#949CC7"/>
<path d="M136.866 34.1492C137.315 34.6956 136.553 35.4703 135.947 35.3764C135.871 35.3647 135.947 35.5702 135.947 35.5702C135.947 35.5702 136.36 35.6499 136.603 35.5702C136.947 35.4574 137.121 35.2542 137.259 34.9243C137.396 34.5978 137.259 34.0202 137.259 34.0202C137.259 34.0202 137.587 33.9663 137.784 34.0202C138.066 34.097 138.278 34.201 138.375 34.4723C138.434 34.6388 138.375 34.9243 138.375 34.9243C138.375 34.9243 137.79 35.3563 137.718 35.7639C137.692 35.913 137.654 36.014 137.718 36.1514C137.787 36.298 138.047 36.4098 138.047 36.4098C138.047 36.4098 137.883 36.0142 138.047 35.8931C138.169 35.8023 138.392 35.7495 138.44 35.8931C138.456 35.9409 138.424 35.9744 138.44 36.0223C138.489 36.1658 138.702 36.1001 138.834 36.0223C139.053 35.8925 138.746 35.6135 138.834 35.3764C138.927 35.1244 139.211 35.1154 139.293 34.8598C139.355 34.6674 139.498 34.341 139.293 34.3431C138.554 34.3508 137.371 33.5494 137.062 33.116C136.896 32.8825 136.55 33.3476 136.538 33.6327C136.528 33.8704 136.866 34.1492 136.866 34.1492Z" fill="#949CC7"/>
<path d="M131.223 41.5764V40.8014C131.223 39.5097 132.377 37.4845 132.536 37.2493C132.798 36.8618 131.748 36.0868 131.748 36.0868C131.748 36.0868 132.369 36.1081 132.601 36.1514C133.835 36.3817 135.816 36.216 135.816 36.216C136.766 36.6381 136.797 36.9891 136.472 37.7014C134.766 36.0223 131.617 39.897 133.585 41.5764H131.223Z" fill="#949CC7"/>
<path d="M135.554 38.2827L135.094 37.5722L134.373 38.0243C134.905 38.0243 135.164 38.0857 135.554 38.2827Z" fill="#949CC7"/>
<path d="M141.327 34.2139C139.633 36.7812 138.542 38.0943 136.144 40.0264C137.325 41.5764 136.013 42.9972 133.913 42.416V44.7409C134.377 43.9768 134.714 43.7064 135.554 43.7076C136.183 45.5779 136.574 46.5077 138.047 45.7743C136.888 44.7488 136.45 44.2287 136.472 43.5139H136.8C138.458 45.558 139.116 45.5049 140.08 44.4826C138.876 44.3276 138.259 44.0467 137.325 42.9972L137.718 42.8035C140.247 44.2384 141.165 44.2548 141.786 42.6743C140.415 42.8006 139.599 42.6877 138.047 42.093L138.243 41.7701C141.922 42.495 142.678 42.0211 142.705 40.2847C141.074 40.9076 140.138 41.0435 138.44 40.9951V40.5431C142.032 40.1849 143.397 39.6708 142.705 37.2493C141.515 38.6255 140.607 39.1288 138.637 39.6389V39.2514C142.622 36.8484 142.438 35.8599 141.327 34.2139Z" fill="#949CC7"/>
<path d="M133.913 46.4304V45.3222C135.865 45.6475 135.921 46.3906 134.832 48.3576C135.439 48.694 135.704 48.7623 136.472 48.7451V49.5847C135.615 49.182 135.088 49.0322 134.045 48.9388C134.438 46.743 132.208 47.5826 131.945 49.2617C133.549 49.4505 134.295 49.8488 135.226 51.3284C135.034 51.905 134.802 51.9878 134.373 52.1034C133.764 50.7697 133.24 50.1766 131.748 49.5847V49.843C133.006 50.4636 133.363 51.029 133.585 52.2971C133.33 52.688 133.141 52.8095 132.732 52.8784C132.611 51.5839 132.368 50.9802 131.552 50.1659C131.831 51.2719 131.956 51.9048 132.076 53.0721C131.79 53.4415 131.601 53.5782 131.223 53.718V47.9055L131.945 47.3888H132.94C133.477 47.3888 133.913 46.9597 133.913 46.4304Z" fill="#949CC7"/>
<path d="M137.784 47.9055L137.259 47.3888L137.784 46.8722L138.309 47.3888L137.784 47.9055Z" fill="#949CC7"/>
<path d="M137.785 50.4242C138.509 50.4242 139.097 49.8459 139.097 49.1325C139.097 48.6544 138.833 48.237 138.441 48.0136L137.785 48.6158L137.129 48.0136C136.736 48.237 136.473 48.6544 136.473 49.1325C136.473 49.8459 137.06 50.4242 137.785 50.4242Z" fill="#949CC7"/>
<path d="M120.324 59.5736C120.324 59.203 120.63 58.9027 121.006 58.9027H141.452C141.829 58.9027 142.134 59.203 142.134 59.5736C142.134 59.9441 141.829 60.2445 141.452 60.2445H121.006C120.63 60.2445 120.324 59.9441 120.324 59.5736Z" fill="#949CC7"/>
<path d="M29.7638 63.4722H90.5763C92.2208 77.0148 91.2585 81.9558 93 95.0715L92.2208 95.2972L92.339 100.489H28.4417L29.7638 63.4722Z" fill="#949CC7"/>
<path d="M27.5388 62.5694H92.5486V69.7921H27.5388V62.5694Z" fill="#3E446D"/>
<path d="M37.9223 65.0522C37.9223 65.9248 37.2149 66.6321 36.3422 66.6321C35.4696 66.6321 34.7621 65.9248 34.7621 65.0522C34.7621 64.1796 35.4696 63.4722 36.3422 63.4722C37.2149 63.4722 37.9223 64.1796 37.9223 65.0522Z" fill="#292D48"/>
<path d="M85.7767 65.0522C85.7767 65.9248 85.0693 66.6321 84.1966 66.6321C83.3239 66.6321 82.6165 65.9248 82.6165 65.0522C82.6165 64.1796 83.3239 63.4722 84.1966 63.4722C85.0693 63.4722 85.7767 64.1796 85.7767 65.0522Z" fill="#292D48"/>
<path d="M61.8495 65.0522C61.8495 65.9248 61.1421 66.6321 60.2694 66.6321C59.3968 66.6321 58.6893 65.9248 58.6893 65.0522C58.6893 64.1796 59.3968 63.4722 60.2694 63.4722C61.1421 63.4722 61.8495 64.1796 61.8495 65.0522Z" fill="#292D48"/>
<path d="M35.2136 59.6351C35.2136 59.6351 35.2136 58.958 36.3422 58.958C37.4709 58.958 37.4709 59.6351 37.4709 59.6351V65.0522C37.4709 65.0522 37.4709 65.5036 36.3422 65.5036C35.2136 65.5036 35.2136 65.0522 35.2136 65.0522V59.6351Z" fill="#D0CFEB"/>
<path d="M59.1408 59.6351C59.1408 59.6351 59.1408 58.958 60.2694 58.958C61.3981 58.958 61.3981 59.6351 61.3981 59.6351V65.0522C61.3981 65.0522 61.3981 65.5036 60.2694 65.5036C59.1408 65.5036 59.1408 65.0522 59.1408 65.0522V59.6351Z" fill="#D0CFEB"/>
<path d="M83.068 59.6351C83.068 59.6351 83.068 58.958 84.1966 58.958C85.3252 58.958 85.3253 59.6351 85.3253 59.6351V65.0522C85.3253 65.0522 85.3252 65.5036 84.1966 65.5036C83.068 65.5036 83.068 65.0522 83.068 65.0522V59.6351Z" fill="#D0CFEB"/>
<path d="M37.9223 72.6552C37.9223 72.3204 38.1938 72.0489 38.5287 72.0489H43.3836C43.7184 72.0489 43.9899 72.3204 43.9899 72.6552V77.5097C43.9899 77.8446 43.7184 78.116 43.3836 78.116H38.5287C38.1938 78.116 37.9223 77.8446 37.9223 77.5097V72.6552Z" fill="#B1BAEB"/>
<path d="M47.4029 72.6552C47.4029 72.3204 47.6744 72.0489 48.0092 72.0489H52.8641C53.199 72.0489 53.4705 72.3204 53.4705 72.6552V77.5097C53.4705 77.8446 53.199 78.116 52.8641 78.116H48.0092C47.6744 78.116 47.4029 77.8446 47.4029 77.5097V72.6552Z" fill="#B1BAEB"/>
<path d="M56.8835 72.6552C56.8835 72.3204 57.155 72.0489 57.4898 72.0489H62.3447C62.6796 72.0489 62.9511 72.3204 62.9511 72.6552V77.5097C62.9511 77.8446 62.6796 78.116 62.3447 78.116H57.4898C57.155 78.116 56.8835 77.8446 56.8835 77.5097V72.6552Z" fill="#B1BAEB"/>
<path d="M66.3641 72.6552C66.3641 72.3204 66.6355 72.0489 66.9704 72.0489H71.8253C72.1602 72.0489 72.4316 72.3204 72.4316 72.6552V77.5097C72.4316 77.8446 72.1602 78.116 71.8253 78.116H66.9704C66.6355 78.116 66.3641 77.8446 66.3641 77.5097V72.6552Z" fill="#B1BAEB"/>
<path d="M37.9223 82.135C37.9223 81.8002 38.1938 81.5287 38.5287 81.5287H43.3836C43.7184 81.5287 43.9899 81.8002 43.9899 82.135V86.9895C43.9899 87.3244 43.7184 87.5958 43.3836 87.5958H38.5287C38.1938 87.5958 37.9223 87.3244 37.9223 86.9895V82.135Z" fill="#B1BAEB"/>
<path d="M47.4029 82.135C47.4029 81.8002 47.6744 81.5287 48.0092 81.5287H52.8641C53.199 81.5287 53.4705 81.8002 53.4705 82.135V86.9895C53.4705 87.3244 53.199 87.5958 52.8641 87.5958H48.0092C47.6744 87.5958 47.4029 87.3244 47.4029 86.9895V82.135Z" fill="#B1BAEB"/>
<path d="M56.8835 82.135C56.8835 81.8002 57.155 81.5287 57.4898 81.5287H62.3447C62.6796 81.5287 62.9511 81.8002 62.9511 82.135V86.9895C62.9511 87.3244 62.6796 87.5958 62.3447 87.5958H57.4898C57.155 87.5958 56.8835 87.3244 56.8835 86.9895V82.135Z" fill="#B1BAEB"/>
<path d="M66.3641 82.135C66.3641 81.8002 66.6355 81.5287 66.9704 81.5287H71.8253C72.1602 81.5287 72.4316 81.8002 72.4316 82.135V86.9895C72.4316 87.3244 72.1602 87.5958 71.8253 87.5958H66.9704C66.6355 87.5958 66.3641 87.3244 66.3641 86.9895V82.135Z" fill="#B1BAEB"/>
<path d="M37.9223 91.6148C37.9223 91.28 38.1938 91.0085 38.5287 91.0085H43.3836C43.7184 91.0085 43.9899 91.28 43.9899 91.6148V96.4693C43.9899 96.8041 43.7184 97.0756 43.3836 97.0756H38.5287C38.1938 97.0756 37.9223 96.8041 37.9223 96.4693V91.6148Z" fill="#B1BAEB"/>
<path d="M47.4029 91.6148C47.4029 91.28 47.6744 91.0085 48.0092 91.0085H52.8641C53.199 91.0085 53.4705 91.28 53.4705 91.6148V96.4693C53.4705 96.8041 53.199 97.0756 52.8641 97.0756H48.0092C47.6744 97.0756 47.4029 96.8041 47.4029 96.4693V91.6148Z" fill="#B1BAEB"/>
<path d="M56.8835 91.6148C56.8835 91.28 57.155 91.0085 57.4898 91.0085H62.3447C62.6796 91.0085 62.9511 91.28 62.9511 91.6148V96.4693C62.9511 96.8041 62.6796 97.0756 62.3447 97.0756H57.4898C57.155 97.0756 56.8835 96.8041 56.8835 96.4693V91.6148Z" fill="#B1BAEB"/>
<path d="M66.3641 91.6148C66.3641 91.28 66.6355 91.0085 66.9704 91.0085H71.8253C72.1602 91.0085 72.4316 91.28 72.4316 91.6148V96.4693C72.4316 96.8041 72.1602 97.0756 71.8253 97.0756H66.9704C66.6355 97.0756 66.3641 96.8041 66.3641 96.4693V91.6148Z" fill="#B1BAEB"/>
<path d="M75.8447 72.6552C75.8447 72.3204 76.1161 72.0489 76.451 72.0489H81.3059C81.6408 72.0489 81.9122 72.3204 81.9122 72.6552V77.5097C81.9122 77.8446 81.6408 78.116 81.3059 78.116H76.451C76.1161 78.116 75.8447 77.8446 75.8447 77.5097V72.6552Z" fill="#B1BAEB"/>
<path d="M75.8447 82.135C75.8447 81.8002 76.1161 81.5287 76.451 81.5287H81.3059C81.6408 81.5287 81.9122 81.8002 81.9122 82.135V86.9895C81.9122 87.3244 81.6408 87.5958 81.3059 87.5958H76.451C76.1161 87.5958 75.8447 87.3244 75.8447 86.9895V82.135Z" fill="#B1BAEB"/>
<path d="M75.8447 91.6148C75.8447 91.28 76.1161 91.0085 76.451 91.0085H81.3059C81.6408 91.0085 81.9122 91.28 81.9122 91.6148V96.4693C81.9122 96.8041 81.6408 97.0756 81.3059 97.0756H76.451C76.1161 97.0756 75.8447 96.8041 75.8447 96.4693V91.6148Z" fill="#B1BAEB"/>
<path d="M87.1311 93.2656C84.6898 96.3496 84.8738 97.3284 83.9709 100.488C87.9375 98.4813 89.5708 97.6924 93 95.0715C91.0672 94.7814 88.4404 94.7013 87.1311 93.2656Z" fill="#7D85B3"/>
<path d="M71.9318 88.8259C72.8384 88.4956 73.6222 88.0066 74.2614 87.3725C74.9634 86.6761 75.5178 85.7787 75.9093 84.7052C76.0998 84.0828 76.1562 83.5086 76.0769 82.9985C76.0049 82.5348 75.8188 82.1147 75.5239 81.75C74.9884 81.0879 74.0924 80.6005 72.9326 80.3405C71.9238 80.1143 70.7395 80.0764 69.6835 80.2365C69.1815 80.3128 68.7155 80.4331 68.3351 80.5848C68.2859 80.6044 68.2381 80.6246 68.1917 80.6452C69.5038 80.3427 70.2888 80.2905 71.3186 80.3465C73.2092 80.4493 74.5453 81.162 75.2898 82.4647C75.4475 83.9508 75.1785 85.2124 74.4903 86.2145C73.8952 87.081 73.3318 87.4766 72.131 87.9412C69.4979 88.9605 66.4995 88.607 65.2355 88.4432C63.7528 87.7128 62.9455 86.7801 62.836 85.6707C62.7449 84.7462 63.1992 84.2701 64.0798 83.2406C64.8181 82.3773 65.8698 81.5289 67.0413 80.8517C68.1391 80.2171 69.4507 79.7137 70.2583 79.6192C70.9938 79.4456 71.7878 79.4064 72.6845 79.4993C72.7364 79.4278 72.3064 79.2666 72.3092 79.2513C72.3094 79.25 72.3096 79.2488 72.3097 79.2479L72.3082 79.2463C72.2985 79.2361 72.267 79.2101 72.1839 79.1863C72.1183 79.1675 72.0344 79.1541 71.9344 79.1466C71.645 79.1249 71.2904 79.1557 71.0557 79.176C70.9722 79.1833 70.9059 79.189 70.8582 79.1912C70.7544 79.2083 70.6502 79.2257 70.5455 79.2437C69.3679 79.446 68.1841 79.888 67.0413 80.4003C65.7949 80.959 64.5883 81.7594 63.6554 82.8831C62.4118 84.0771 62.1121 85.4319 62.6251 86.8072C62.8653 87.451 63.3021 88.0167 63.8885 88.4432C64.5145 88.8985 65.3011 89.1834 66.1634 89.2673C68.5932 89.5149 70.426 89.3747 71.9318 88.8259Z" fill="#F1F1FF"/>
<path d="M42.1345 96.2921V100.278C21.3154 100.686 9.3001 99.3285 0.000194291 100.278V96.2921L0.166956 96.297C16.3885 96.7818 25.667 97.059 42.1345 96.2921Z" fill="#60868C"/>
<path d="M35.6815 98.9487L42.1345 99.3283V98.9487H35.6815Z" fill="#384F53"/>
<path d="M6.453 97.8101L0 98.1896V97.8101H6.453Z" fill="#384F53"/>
<path d="M26.951 97.8101L29.7979 97.6203L26.951 97.4305L24.2939 97.6203L26.951 97.8101Z" fill="#384F53"/>
<path d="M25.4323 100.277L16.1324 100.088L15.9426 96.7096C19.5487 96.8614 21.8263 96.6716 25.4323 96.7621V100.277Z" fill="#D0CFEB"/>
<path d="M21.1141 98.6022L20.7212 98.6352L20.7413 98.8744L21.493 98.8112L21.513 99.0503L20.7614 99.1135L20.8188 99.7967L20.5626 99.8183L20.5052 99.135L20.2831 99.1537L20.263 98.9145L20.4851 98.8959L20.465 98.6567L20.2429 98.6754L20.2214 98.4192L20.4435 98.4005L20.3401 97.1707L20.9892 97.1162C22.0142 97.03 22.1562 98.5146 21.1141 98.6022Z" fill="#AFAED0"/>
<path d="M21.1096 98.344L20.7137 98.3772L20.6294 97.375L21.0254 97.3417C21.6505 97.2892 21.7452 98.2906 21.1096 98.344Z" fill="#D0CFEB"/>
<path d="M10.8939 91.6973C12.9816 92.4564 13.7417 92.8373 16.1079 93.2975L16.0246 93.3044C13.6216 93.5055 13.437 93.521 11.0836 93.2975C10.3245 92.646 10.8939 92.6461 10.8939 91.6973Z" fill="#384F53"/>
<path d="M10.3245 97.2007V93.2152C31.1435 92.8071 43.1588 94.1642 52.4587 93.2152V97.2007L52.292 97.1957C36.0704 96.711 26.7919 96.4337 10.3245 97.2007Z" fill="#6E969C"/>
<path d="M16.7774 94.5439L10.3244 94.1644V94.5439H16.7774Z" fill="#384F53"/>
<path d="M46.0059 95.6826L52.4589 95.3031V95.6826H46.0059Z" fill="#384F53"/>
<path d="M25.5079 95.6826L22.661 95.8724L25.5079 96.0622L28.165 95.8724L25.5079 95.6826Z" fill="#384F53"/>
<path d="M27.0266 93.2153L36.3265 93.405L36.5163 96.7831C32.9102 96.6313 30.6326 96.821 27.0266 96.7306V93.2153Z" fill="#D0CFEB"/>
<path d="M32.001 95.1267H31.6067V95.3666H32.361V95.6066H31.6067V96.2923H31.3496V95.6066H31.1267V95.3666H31.3496V95.1267H31.1267V94.8696H31.3496V93.6354H32.001C33.0295 93.6354 33.0467 95.1267 32.001 95.1267Z" fill="#AFAED0"/>
<path d="M32.0178 94.8687H31.6205V93.8629H32.0178C32.6452 93.8629 32.6556 94.8687 32.0178 94.8687Z" fill="#D0CFEB"/>
</svg>
