<svg width="162" height="205" viewBox="0 0 162 205" fill="none" xmlns="http://www.w3.org/2000/svg">
<path fill-rule="evenodd" clip-rule="evenodd" d="M11.4352 0C5.11971 0 0 5.11971 0 11.4352V193.413C0 199.729 5.1197 204.848 11.4352 204.848H150.395C156.71 204.848 161.83 199.729 161.83 193.413V11.4352C161.83 5.11971 156.71 0 150.395 0H11.4352ZM17.2251 7.1709C12.8043 7.1709 9.22046 10.7547 9.22046 15.1755V189.675C9.22046 194.096 12.8043 197.68 17.2251 197.68H145.122C149.543 197.68 153.126 194.096 153.126 189.675V15.1755C153.126 10.7547 149.543 7.1709 145.122 7.1709H17.2251Z" fill="#3E446D"/>
<path d="M9.22043 36.873H153.126V41.4821H9.22043V36.873Z" fill="#3E446D"/>
<path d="M9.22043 78.8666H153.126V83.4757H9.22043V78.8666Z" fill="#3E446D"/>
<path d="M9.22043 120.86H153.126V125.469H9.22043V120.86Z" fill="#3E446D"/>
<path d="M9.22043 162.855H153.126V167.464H9.22043V162.855Z" fill="#3E446D"/>
<path d="M121.884 30.4555C121.884 21.4325 143.905 20.7383 143.905 31.4966C143.905 42.2549 143.905 37.3964 143.905 47.1136C143.905 56.8308 121.884 57.8719 121.884 47.1136C121.884 36.3553 121.884 39.4785 121.884 30.4555Z" fill="#D9D9FE"/>
<path d="M17.4123 72.4503C17.4123 63.4273 39.4335 62.7331 39.4335 73.4914C39.4335 84.2497 39.4335 79.3911 39.4335 89.1083C39.4335 98.8256 17.4123 99.8667 17.4123 89.1083C17.4123 78.35 17.4123 81.4733 17.4123 72.4503Z" fill="#D9D9FE"/>
<path d="M46.6037 72.4503C46.6037 63.4273 68.6249 62.7331 68.6249 73.4914C68.6249 84.2497 68.6249 79.3911 68.6249 89.1083C68.6249 98.8256 46.6037 99.8667 46.6037 89.1083C46.6037 78.35 46.6037 81.4733 46.6037 72.4503Z" fill="#404A7C"/>
<path d="M92.6945 114.443C92.6945 105.42 114.716 104.726 114.716 115.484C114.716 126.242 114.716 121.384 114.716 131.101C114.716 140.818 92.6945 141.859 92.6945 131.101C92.6945 120.343 92.6945 123.466 92.6945 114.443Z" fill="#D9D9FE"/>
<path d="M121.884 114.443C121.884 105.42 143.905 104.726 143.905 115.484C143.905 126.242 143.905 121.384 143.905 131.101C143.905 140.818 121.884 141.859 121.884 131.101C121.884 120.343 121.884 123.466 121.884 114.443Z" fill="#404A7C"/>
<path d="M92.6945 30.4556C92.6945 21.4326 114.716 20.7384 114.716 31.4967C114.716 42.255 114.716 37.3965 114.716 47.1137C114.716 56.8309 92.6945 57.872 92.6945 47.1137C92.6945 36.3554 92.6945 39.4786 92.6945 30.4556Z" fill="#404A7C"/>
<path d="M63.5049 30.4556C63.5049 21.4326 85.5261 20.7384 85.5261 31.4967C85.5261 42.255 85.5261 37.3965 85.5261 47.1137C85.5261 56.8309 63.5049 57.872 63.5049 47.1137C63.5049 36.3554 63.5049 39.4786 63.5049 30.4556Z" fill="#D9D9FE"/>
<path d="M75.7952 156.438C75.7953 147.415 97.8164 146.721 97.8164 157.479C97.8164 168.238 97.8164 163.379 97.8164 173.096C97.8164 182.814 75.7952 183.855 75.7952 173.096C75.7953 162.338 75.7952 165.461 75.7952 156.438Z" fill="#404A7C"/>
<path d="M46.6037 156.438C46.6037 147.415 68.6249 146.721 68.6249 157.479C68.6249 168.238 68.6249 163.379 68.6249 173.096C68.6249 182.814 46.6037 183.855 46.6037 173.096C46.6037 162.338 46.6037 165.461 46.6037 156.438Z" fill="#D9D9FE"/>
<path d="M17.4123 156.438C17.4123 147.415 39.4335 146.721 39.4335 157.479C39.4335 168.238 39.4335 163.379 39.4335 173.096C39.4335 182.814 17.4123 183.855 17.4123 173.096C17.4123 162.338 17.4123 165.461 17.4123 156.438Z" fill="#404A7C"/>
</svg>
