<svg width="243" height="134" viewBox="0 0 243 134" fill="none" xmlns="http://www.w3.org/2000/svg">
<path d="M240.151 13.5723H11.6387V37.5938L15.9502 40.3655L11.6387 44.0611V133.064H240.151V89.6404L236.763 88.4085L240.151 83.1731V13.5723Z" fill="#DFDFDF"/>
<path d="M239.821 112.124L173.916 114.28L239.821 118.899V112.124Z" fill="#C8C8C8"/>
<path d="M11.9229 59.7686L77.8281 61.9243L11.9229 66.5439V59.7686Z" fill="#C8C8C8"/>
<path d="M11.7051 111.816L14.4768 103.192L56.6684 97.0331L75.5454 96.4644C93.3688 95.2067 107.791 95.4928 107.791 95.4928L75.5454 96.4644C60.424 97.5314 42.8546 99.7096 29.5672 104.117C22.573 106.436 11.7051 111.816 11.7051 111.816Z" fill="#D2D2D2"/>
<path d="M162.299 26.5088L121.031 28.6261L162.299 29.5885L198.023 28.6261L162.299 26.5088Z" fill="#C8C8C8"/>
<path d="M47.1191 98.5719C63.7494 96.7241 201.719 93.0284 201.719 93.0284L10.7789 89.3328L0 107.503C0 107.503 30.4888 100.42 47.1191 98.5719Z" fill="#EBEAEA"/>
<path d="M230.363 62.5413L227.592 53.9181L185.4 47.7587L166.523 47.1899C148.7 45.9323 134.277 46.2184 134.277 46.2184L166.523 47.1899C181.644 48.257 199.214 50.4352 212.501 54.8421C219.495 57.1619 230.363 62.5413 230.363 62.5413Z" fill="#D2D2D2"/>
<path d="M194.945 49.2967C178.315 47.4489 40.3453 43.7532 40.3453 43.7532L231.286 40.0576L242.064 58.2277C242.064 58.2277 211.576 51.1445 194.945 49.2967Z" fill="#EBEAEA"/>
<path d="M17.2477 13.8813C17.2477 13.8813 9.02207 12.3237 6.46879 8.33788C4.80087 5.73419 4.62098 0.638672 4.62098 0.638672C4.62098 0.638672 12.8978 4.98131 18.4795 7.106C30.758 11.7799 51.4321 13.8813 51.4321 13.8813H17.2477Z" fill="#EBEAEA"/>
</svg>
