<svg width="1440" height="670" viewBox="0 0 1440 670" fill="none" xmlns="http://www.w3.org/2000/svg">
<path d="M1068.29 203.056C1048.61 203.056 1032.66 219.054 1032.66 238.787C1032.66 258.522 1048.61 274.518 1068.29 274.518C1087.97 274.518 1103.93 258.522 1103.93 238.787C1103.93 219.054 1087.97 203.056 1068.29 203.056Z" fill="#484F80"/>
<path d="M1086.59 223.895C1085.47 222.831 1083.72 222.831 1082.61 223.895C1075.05 229.941 1068.26 236.897 1062.39 244.606C1060.95 241.809 1059.5 239.017 1058.06 236.222C1056.4 232.995 1051.54 235.846 1053.21 239.069C1055.31 243.158 1057.42 247.246 1059.53 251.334C1060.35 252.679 1062.1 253.104 1063.44 252.282C1063.83 252.047 1064.15 251.722 1064.39 251.334C1070.64 242.503 1078.12 234.605 1086.59 227.884C1087.68 226.78 1087.68 225.001 1086.59 223.895Z" fill="white"/>
<path d="M953.029 312.024L914.183 250.859L959.165 226.706L970.972 273.371L1054.16 318.44C1063.5 315.068 1073.81 319.93 1077.17 329.302C1080.53 338.673 1075.69 349.004 1066.34 352.378C1057.56 355.543 1047.83 351.462 1043.92 342.975L953.029 312.024Z" fill="#FFB8B8"/>
<path d="M975.703 270.8C967.336 271.869 952.284 295.852 942.669 304.462L927.922 166.626C936.853 171.991 943.839 180.323 947.498 190.411C957.348 216.074 964.607 236.167 964.607 236.167C964.607 236.167 980.487 270.189 975.703 270.8Z" fill="#3E3C55"/>
<path d="M860.096 375.839L980.093 372.832L996.938 416.675L1001.77 434.91V440.055C1000.98 441.844 1000.62 443.79 1000.72 445.741C1000.72 449.532 1001.98 577.169 1001.98 577.169L1003.37 603.837H961.647C961.646 602.93 961.646 602.444 961.646 602.444L925.094 478.598L910.104 603.837H869.201C868.683 596.708 868.374 592.334 868.374 592.334L855.769 520.3C855.769 520.3 859.551 511.455 861.17 509.833C862.787 508.212 849.468 493.763 851.99 484.916C854.51 476.07 851.99 476.07 846.947 471.017C841.905 465.961 844.427 447.004 844.427 447.004C836.959 415.113 837.305 388.251 860.096 375.839Z" fill="#2E2D41"/>
<path d="M926.65 147.367C934.682 152.154 939.488 160.953 942.246 169.905C947.353 186.478 950.427 203.611 951.399 220.931L954.313 272.778L990.394 383.177C959.123 409.706 841.582 389.207 841.582 389.207C841.582 389.207 837.974 388 841.582 384.383C845.19 380.765 848.703 383.969 845.095 380.352C841.487 376.735 843.975 380.765 845.178 377.148C846.379 373.531 845.178 375.942 843.975 374.735C842.771 373.531 853.285 362.677 853.285 362.677L843.663 299.307L831.636 171.486C846.068 153.398 875.095 142.734 875.095 142.734L882.594 129.199L920.094 132.207L926.65 147.367Z" fill="#3E3C55"/>
<path d="M908.008 47.8963C928.599 47.8963 943.186 65.2409 945.292 85.2786C946.512 91.4133 941.621 99.7412 941.187 108.86C941.147 109.699 941.03 110.538 940.762 111.334C938.273 118.743 934.779 125.267 930.332 128.328C924.336 132.456 912.743 126.971 905.301 123.579C885.006 117.474 870.723 105.925 870.723 85.2786C870.723 64.6327 887.416 47.8963 908.008 47.8963Z" fill="#FFB8B8"/>
<path d="M882.3 129.684L883.653 114.082V112.725L917.479 120.187L920.185 132.398L882.3 129.684Z" fill="#FFB8B8"/>
<path d="M937.774 65.9192C940.671 68.086 942.093 71.9607 943.186 75.4162C943.606 69.7708 944.23 62.3658 943.862 56.7163C943.423 52.7456 940.636 51.8538 937.409 50.818C934.493 49.8841 931.197 48.8279 930.31 44.9741C918.589 33.5433 898.187 34.1197 884.225 38.1067C876.542 40.3007 872.12 43.12 871.726 44.7716L871.643 45.1114L871.331 45.2678C865.409 48.2366 864.257 57.6121 864.333 64.954C864.478 78.7868 869.241 94.4969 871.924 95.7733C872.066 95.8413 872.103 95.8141 872.164 95.7624C876.204 92.5258 881.134 96.0098 883.3 97.9034C885.931 80.2114 900.26 66.6001 918.022 64.9254C920.841 64.6522 923.637 64.1819 926.39 63.5185C927.787 63.1569 929.223 62.9666 930.665 62.9557C933.149 62.9177 935.713 64.5286 937.774 65.9192Z" fill="#2E2D41"/>
<path d="M1150.89 386.605L1199.84 320.734C1199.84 320.734 1201.13 316.865 1203.32 310.991V368.9L1170.2 402.618C1169.42 407.313 1166.39 411.327 1162.09 413.361C1154.86 416.786 1146.22 413.682 1142.81 406.427C1139.39 399.172 1142.49 390.514 1149.72 387.087C1150.11 386.905 1150.5 386.75 1150.89 386.605Z" fill="#EDA885"/>
<path d="M1308.89 473.118C1314.92 445.274 1312.51 416.218 1312.51 416.218L1171.24 407.747L1166.16 421.668L1163.39 429.76L1161.47 434.007L1156.75 448.905L1141.05 549.385L1145.55 603.837H1191.86L1191.77 601.44C1191.77 601.44 1197.8 597.809 1200.22 597.809C1202.63 597.809 1199.02 574.203 1199.02 574.203L1203.84 571.177L1200.22 559.069L1238.86 473.118L1244.42 603.837H1300.72L1302.85 579.378C1302.85 579.378 1302.85 500.962 1308.89 473.118Z" fill="#2C3151"/>
<path d="M1301.06 418.597L1313.24 419.342C1319.28 410.872 1318.95 402.186 1316.89 395.033C1314.02 385.009 1309.85 375.414 1308.51 365.073L1307.44 356.15C1306.8 350.84 1307.17 345.459 1308.53 340.287L1309.86 335.226L1312.56 323.016L1315.27 314.197L1322.04 279.601L1334.89 234.829C1340.28 213.168 1326.73 195.207 1310.54 179.883L1306.34 177.104C1302.35 174.46 1298.92 171.057 1296.24 167.089L1280.57 143.836H1248.76L1237.85 164.492C1216.03 169.549 1200.93 189.524 1201.98 211.956L1204.45 266.133L1201.98 323.016L1197.56 339.296L1190.79 358.29L1189.68 361.642C1188.17 366.164 1185.99 370.429 1183.19 374.287C1182.39 375.379 1181.68 376.526 1181.05 377.72L1174.3 390.538C1172.79 392.543 1165.08 406.871 1165.08 410.523C1165.08 411.072 1166.25 412.647 1167.11 413.237C1173.93 417.861 1206.16 418.597 1225.2 418.597C1244.24 418.597 1296.29 418.488 1297 418.597H1301.06Z" fill="#3E446D"/>
<path d="M1260.55 49.9041C1283.82 49.9041 1302.68 68.8182 1302.68 92.1474C1302.68 115.475 1283.74 133.076 1260.47 133.076C1252.51 133.076 1239.09 140.993 1232.74 137.146C1223.41 131.499 1221.66 115.833 1220.56 102.55C1220.22 98.4361 1217.18 96.0046 1217.18 92.3751C1217.18 69.0458 1237.29 49.9041 1260.55 49.9041Z" fill="#EDA885"/>
<path d="M1251 133.076L1248.97 143.93H1280.77L1279.42 131.041L1251 133.076Z" fill="#EDA885"/>
<path d="M1233.41 155.461L1244.91 143.929L1280.77 140.537L1286.18 150.713L1233.41 155.461Z" fill="#F1F1FF"/>
<path d="M1258.81 136.127C1265.34 136.061 1269.55 134.379 1275.97 133.202C1282.32 131.732 1296.34 120.864 1300.16 114.443C1303 109.671 1304.71 102.293 1305.64 96.9422C1308.17 82.6227 1304.54 67.8968 1295.63 56.4197C1293.93 54.0409 1291.63 52.1677 1288.95 50.9959C1288.71 50.9103 1288.47 50.8355 1288.23 50.773C1284.35 49.8568 1280.84 47.8001 1278.14 44.8693C1277.62 44.2752 1277.05 43.7193 1276.44 43.2081C1273.42 40.7763 1269.86 39.0975 1266.05 38.309C1259.91 36.8314 1251.13 38.6842 1239.95 43.8212C1234.33 46.4013 1228.1 45.6808 1223.29 44.766C1222.75 44.6735 1222.19 44.8829 1221.83 45.3111C1219.85 47.2767 1217.2 48.4158 1214.41 48.5015C1212.7 48.6211 1210.97 51.0408 1208.89 54.189C1208.41 54.9027 1207.86 55.7373 1207.46 56.2457L1207.38 55.2901L1206.44 56.3817C1201.61 62.004 1202.24 70.4877 1207.85 75.3297C1209.36 76.6306 1211.13 77.5781 1213.05 78.1055C1214.78 78.5188 1216.55 78.7567 1218.33 78.8097C1219.41 78.879 1220.52 78.9497 1221.59 79.1074C1228.59 80.3566 1234.41 85.1987 1236.94 91.8582C1237.99 94.585 1241.05 95.9389 1243.77 94.8814C1244.2 94.7155 1244.6 94.4926 1244.97 94.2234C1247.18 92.4046 1250.14 91.7861 1252.89 92.565C1254.06 93.1835 1255 94.1867 1255.52 95.4115C1256.16 96.7722 1257.19 97.9141 1258.47 98.6876C1262.86 100.812 1263.41 110.718 1262.07 119.022C1260.78 127.027 1258.44 132.397 1255.74 133.754C1253.71 135.11 1253.17 135.411 1253.03 135.789L1252.9 136.127L1253.15 136.436C1254.32 136.83 1257.58 136.26 1258.81 136.127Z" fill="#EBED74"/>
<path d="M1221.56 270.061L1201.31 244.189C1180.68 249.885 1144.08 282.595 1144.08 282.595L1068.91 315.3C1061.03 313.972 1053.56 319.305 1052.23 327.212C1050.91 335.121 1056.23 342.609 1064.11 343.938C1069.23 344.799 1074.42 342.85 1077.71 338.826L1176.18 311.283L1221.56 270.061Z" fill="#EDA885"/>
<path d="M1178.61 312.161L1250.44 242.969V214.955C1251.11 204.818 1245.99 195.178 1237.22 190.082C1225.09 183.138 1209.66 186.804 1201.93 198.47C1190.64 215.532 1166.44 257.215 1144.79 282.314L1076.46 312.161L1082.55 340.652L1178.61 312.161Z" fill="#3E446D"/>
<path d="M922.198 410.211L839.15 367.568C833.242 364.534 831.285 356.49 834.788 349.633L888.937 243.625C892.439 236.768 900.094 233.66 906.001 236.692L989.051 279.337C994.958 282.371 996.914 290.417 993.412 297.272L939.262 403.279C935.76 410.135 928.105 413.244 922.198 410.211Z" fill="#E6E6E6"/>
<path d="M908.008 390.606L851.584 361.633C846.051 358.792 844.218 351.257 847.499 344.835L892.484 256.767C895.765 250.345 902.934 247.433 908.466 250.274L976.615 285.268C982.148 288.109 983.981 295.643 980.7 302.065L956.262 349.908C941.652 378.511 932.652 403.261 908.008 390.606Z" fill="white"/>
<path d="M935.906 342.514L885.929 316.852C884.524 315.846 884.196 313.89 885.198 312.48C885.998 311.353 887.442 310.886 888.749 311.332L938.725 336.994C940.131 337.998 940.459 339.956 939.457 341.365C938.656 342.492 937.213 342.96 935.906 342.514Z" fill="#484F80"/>
<path d="M906.393 354.889L874.788 338.661C873.382 337.655 873.054 335.699 874.055 334.29C874.856 333.163 876.301 332.695 877.608 333.14L909.212 349.369C910.618 350.374 910.946 352.331 909.945 353.741C909.144 354.868 907.7 355.335 906.393 354.889Z" fill="#484F80"/>
<path d="M955.683 303.796L905.707 278.134C904.301 277.128 903.973 275.172 904.975 273.762C905.775 272.635 907.219 272.168 908.526 272.614L958.504 298.276C959.908 299.28 960.236 301.238 959.234 302.647C958.433 303.774 956.99 304.241 955.683 303.796Z" fill="#484F80"/>
<path d="M911.541 294.895L900.136 289.039C898.73 288.035 898.403 286.077 899.404 284.667C900.205 283.54 901.649 283.074 902.955 283.519L914.361 289.375C915.767 290.379 916.094 292.337 915.092 293.747C914.29 294.873 912.848 295.341 911.541 294.895Z" fill="#484F80"/>
<path d="M926.171 316.171L894.566 299.941C893.16 298.937 892.832 296.981 893.834 295.571C894.635 294.444 896.079 293.976 897.386 294.421L928.991 310.652C930.397 311.656 930.724 313.614 929.722 315.023C928.92 316.15 927.478 316.617 926.171 316.171Z" fill="#484F80"/>
<path d="M853.381 317.921L834.618 247.891L884.754 238.374L882.06 286.444L947.933 354.451C957.859 354.044 966.234 361.782 966.64 371.734C967.046 381.684 959.329 390.081 949.403 390.489C940.087 390.869 932.023 384.05 930.83 374.777L853.381 317.921Z" fill="#FFB8B8"/>
<path d="M829.488 169.372C812.47 182.842 834.313 258.189 834.313 258.189C837.694 254.468 841.623 309.464 845.757 307.592C857.506 302.27 879.038 283.917 887.339 285.413C892.087 286.268 887.113 249.036 887.113 249.036C887.113 249.036 886.199 227.687 884.48 200.243C883.783 184.454 875.067 170.126 861.384 162.277C861.384 162.277 846.505 155.903 829.488 169.372Z" fill="#3E3C55"/>
<path d="M1112.65 473.361L1067.33 451.904C1065.37 450.979 1063.94 449.205 1063.44 447.087C1062.95 445.014 1063.42 442.829 1064.73 441.153C1077.86 424.333 1086.88 404.66 1091.05 383.716C1091.7 380.408 1094.6 378.023 1097.96 378.019C1121.07 378.098 1138.35 386.56 1149.3 403.166C1150.47 404.914 1150.81 407.091 1150.23 409.115C1143.89 431.032 1134.24 451.849 1121.61 470.839C1119.68 473.806 1115.85 474.884 1112.65 473.361Z" fill="#E6E6E6"/>
<path d="M1125.99 443.265L1091.33 426.861C1089.54 426.011 1088.77 423.863 1089.62 422.062C1090.46 420.262 1092.61 419.493 1094.4 420.342L1129.05 436.747C1130.85 437.598 1131.62 439.746 1130.77 441.546C1129.92 443.347 1127.78 444.116 1125.99 443.265Z" fill="white"/>
<path d="M1131.37 431.837L1096.72 415.431C1094.92 414.581 1094.15 412.433 1095 410.632C1095.85 408.832 1097.99 408.063 1099.79 408.912L1134.44 425.319C1136.23 426.168 1137 428.316 1136.15 430.116C1135.31 431.917 1133.16 432.686 1131.37 431.837Z" fill="white"/>
<path d="M577.959 270.297C451.204 56.6488 285.985 75.7283 0 75.7283V1.25464C226.972 37.534 399.995 -29.7132 524.984 137.205C655.161 311.051 656.053 458.51 865.644 565.5C951.899 609.53 1080.64 604.184 1440 587.794V669.747C1246.6 650.14 1213.82 679.991 984.372 650.14C881.478 622.56 798.279 575.912 751.991 516.47C696.722 464.27 649.5 390.88 577.959 270.297Z" fill="#CAC9F0"/>
</svg>
