<svg width="1620" height="753" viewBox="0 0 1620 753" fill="none" xmlns="http://www.w3.org/2000/svg">
<path d="M1248.29 286.056C1228.61 286.056 1212.66 302.054 1212.66 321.787C1212.66 341.522 1228.61 357.518 1248.29 357.518C1267.97 357.518 1283.93 341.522 1283.93 321.787C1283.93 302.054 1267.97 286.056 1248.29 286.056Z" fill="#484F80"/>
<path d="M1266.59 306.895C1265.47 305.831 1263.72 305.831 1262.61 306.895C1255.05 312.941 1248.26 319.897 1242.39 327.606C1240.95 324.809 1239.5 322.017 1238.06 319.222C1236.4 315.995 1231.54 318.846 1233.21 322.069C1235.31 326.158 1237.42 330.246 1239.53 334.334C1240.35 335.679 1242.1 336.104 1243.44 335.282C1243.83 335.047 1244.15 334.722 1244.39 334.334C1250.64 325.503 1258.12 317.605 1266.59 310.884C1267.68 309.78 1267.68 308.001 1266.59 306.895Z" fill="white"/>
<path d="M1133.03 395.024L1094.18 333.859L1139.17 309.706L1150.97 356.371L1234.16 401.44C1243.5 398.068 1253.81 402.93 1257.17 412.302C1260.53 421.673 1255.69 432.004 1246.34 435.378C1237.56 438.543 1227.83 434.462 1223.92 425.975L1133.03 395.024Z" fill="#FFB8B8"/>
<path d="M1155.7 353.8C1147.34 354.869 1132.28 378.852 1122.67 387.462L1107.92 249.626C1116.85 254.991 1123.84 263.323 1127.5 273.411C1137.35 299.074 1144.61 319.167 1144.61 319.167C1144.61 319.167 1160.49 353.189 1155.7 353.8Z" fill="#3E3C55"/>
<path d="M1040.1 458.839L1160.09 455.832L1176.94 499.675L1181.77 517.91V523.055C1180.98 524.844 1180.62 526.79 1180.72 528.741C1180.72 532.532 1181.98 660.169 1181.98 660.169L1183.37 686.837H1141.65C1141.65 685.93 1141.65 685.444 1141.65 685.444L1105.09 561.598L1090.1 686.837H1049.2C1048.68 679.708 1048.37 675.334 1048.37 675.334L1035.77 603.3C1035.77 603.3 1039.55 594.455 1041.17 592.833C1042.79 591.212 1029.47 576.763 1031.99 567.916C1034.51 559.07 1031.99 559.07 1026.95 554.017C1021.91 548.961 1024.43 530.004 1024.43 530.004C1016.96 498.113 1017.3 471.251 1040.1 458.839Z" fill="#2E2D41"/>
<path d="M1106.65 230.367C1114.68 235.154 1119.49 243.953 1122.25 252.905C1127.35 269.478 1130.43 286.611 1131.4 303.931L1134.31 355.778L1170.39 466.177C1139.12 492.706 1021.58 472.207 1021.58 472.207C1021.58 472.207 1017.97 471 1021.58 467.383C1025.19 463.765 1028.7 466.969 1025.09 463.352C1021.49 459.735 1023.98 463.765 1025.18 460.148C1026.38 456.531 1025.18 458.942 1023.98 457.735C1022.77 456.531 1033.29 445.677 1033.29 445.677L1023.66 382.307L1011.64 254.486C1026.07 236.398 1055.09 225.734 1055.09 225.734L1062.59 212.199L1100.09 215.207L1106.65 230.367Z" fill="#3E3C55"/>
<path d="M1088.01 130.896C1108.6 130.896 1123.19 148.241 1125.29 168.279C1126.51 174.413 1121.62 182.741 1121.19 191.86C1121.15 192.699 1121.03 193.538 1120.76 194.334C1118.27 201.743 1114.78 208.267 1110.33 211.328C1104.34 215.456 1092.74 209.971 1085.3 206.579C1065.01 200.474 1050.72 188.925 1050.72 168.279C1050.72 147.633 1067.42 130.896 1088.01 130.896Z" fill="#FFB8B8"/>
<path d="M1062.3 212.684L1063.65 197.082V195.725L1097.48 203.187L1100.18 215.398L1062.3 212.684Z" fill="#FFB8B8"/>
<path d="M1117.77 148.919C1120.67 151.086 1122.09 154.961 1123.19 158.416C1123.61 152.771 1124.23 145.366 1123.86 139.716C1123.42 135.746 1120.64 134.854 1117.41 133.818C1114.49 132.884 1111.2 131.828 1110.31 127.974C1098.59 116.543 1078.19 117.12 1064.23 121.107C1056.54 123.301 1052.12 126.12 1051.73 127.772L1051.64 128.111L1051.33 128.268C1045.41 131.237 1044.26 140.612 1044.33 147.954C1044.48 161.787 1049.24 177.497 1051.92 178.773C1052.07 178.841 1052.1 178.814 1052.16 178.762C1056.2 175.526 1061.13 179.01 1063.3 180.903C1065.93 163.211 1080.26 149.6 1098.02 147.925C1100.84 147.652 1103.64 147.182 1106.39 146.518C1107.79 146.157 1109.22 145.967 1110.67 145.956C1113.15 145.918 1115.71 147.529 1117.77 148.919Z" fill="#2E2D41"/>
<path d="M1330.89 469.605L1379.84 403.734C1379.84 403.734 1381.13 399.865 1383.32 393.991V451.9L1350.2 485.618C1349.42 490.313 1346.39 494.327 1342.09 496.361C1334.86 499.786 1326.22 496.682 1322.81 489.427C1319.39 482.172 1322.49 473.514 1329.72 470.087C1330.11 469.905 1330.5 469.75 1330.89 469.605Z" fill="#EDA885"/>
<path d="M1488.89 556.118C1494.92 528.274 1492.51 499.218 1492.51 499.218L1351.24 490.747L1346.16 504.668L1343.39 512.76L1341.47 517.007L1336.75 531.905L1321.05 632.385L1325.55 686.837H1371.86L1371.77 684.44C1371.77 684.44 1377.8 680.809 1380.22 680.809C1382.63 680.809 1379.02 657.203 1379.02 657.203L1383.84 654.177L1380.22 642.069L1418.86 556.118L1424.42 686.837H1480.72L1482.85 662.378C1482.85 662.378 1482.85 583.962 1488.89 556.118Z" fill="#2C3151"/>
<path d="M1481.06 501.597L1493.24 502.342C1499.28 493.872 1498.95 485.186 1496.89 478.033C1494.02 468.009 1489.85 458.414 1488.51 448.073L1487.44 439.15C1486.8 433.84 1487.17 428.459 1488.53 423.287L1489.86 418.226L1492.56 406.016L1495.27 397.197L1502.04 362.601L1514.89 317.829C1520.28 296.168 1506.73 278.207 1490.54 262.883L1486.34 260.104C1482.35 257.46 1478.92 254.057 1476.24 250.089L1460.57 226.836H1428.76L1417.85 247.492C1396.03 252.549 1380.93 272.524 1381.98 294.956L1384.45 349.133L1381.98 406.016L1377.56 422.296L1370.79 441.29L1369.68 444.642C1368.17 449.164 1365.99 453.429 1363.19 457.287C1362.39 458.379 1361.68 459.526 1361.05 460.72L1354.3 473.538C1352.79 475.544 1345.08 489.871 1345.08 493.523C1345.08 494.072 1346.25 495.647 1347.11 496.237C1353.93 500.861 1386.16 501.597 1405.2 501.597C1424.24 501.597 1476.29 501.488 1477 501.597H1481.06Z" fill="#3E446D"/>
<path d="M1440.55 132.904C1463.82 132.904 1482.68 151.818 1482.68 175.147C1482.68 198.475 1463.74 216.076 1440.47 216.076C1432.51 216.076 1419.09 223.993 1412.74 220.146C1403.41 214.499 1401.66 198.833 1400.56 185.55C1400.22 181.436 1397.18 179.005 1397.18 175.375C1397.18 152.046 1417.29 132.904 1440.55 132.904Z" fill="#EDA885"/>
<path d="M1431 216.076L1428.97 226.93H1460.77L1459.42 214.041L1431 216.076Z" fill="#EDA885"/>
<path d="M1413.41 238.461L1424.91 226.929L1460.77 223.537L1466.18 233.713L1413.41 238.461Z" fill="#F1F1FF"/>
<path d="M1438.81 219.127C1445.34 219.061 1449.55 217.379 1455.97 216.202C1462.32 214.732 1476.34 203.864 1480.16 197.443C1483 192.671 1484.71 185.293 1485.64 179.942C1488.17 165.623 1484.54 150.897 1475.63 139.42C1473.93 137.041 1471.63 135.168 1468.95 133.996C1468.71 133.91 1468.47 133.835 1468.23 133.773C1464.35 132.857 1460.84 130.8 1458.14 127.869C1457.62 127.275 1457.05 126.719 1456.44 126.208C1453.42 123.776 1449.86 122.097 1446.05 121.309C1439.91 119.831 1431.13 121.684 1419.95 126.821C1414.33 129.401 1408.1 128.681 1403.29 127.766C1402.75 127.674 1402.19 127.883 1401.83 128.311C1399.85 130.277 1397.2 131.416 1394.41 131.501C1392.7 131.621 1390.97 134.041 1388.89 137.189C1388.41 137.903 1387.86 138.737 1387.46 139.246L1387.38 138.29L1386.44 139.382C1381.61 145.004 1382.24 153.488 1387.85 158.33C1389.36 159.631 1391.13 160.578 1393.05 161.106C1394.78 161.519 1396.55 161.757 1398.33 161.81C1399.41 161.879 1400.52 161.95 1401.59 162.107C1408.59 163.357 1414.41 168.199 1416.94 174.858C1417.99 177.585 1421.05 178.939 1423.77 177.881C1424.2 177.716 1424.6 177.493 1424.97 177.223C1427.18 175.405 1430.14 174.786 1432.89 175.565C1434.06 176.184 1435 177.187 1435.52 178.412C1436.16 179.772 1437.19 180.914 1438.47 181.688C1442.86 183.812 1443.41 193.718 1442.07 202.022C1440.78 210.027 1438.44 215.397 1435.74 216.754C1433.71 218.11 1433.17 218.411 1433.03 218.789L1432.9 219.127L1433.15 219.436C1434.32 219.83 1437.58 219.26 1438.81 219.127Z" fill="#EBED74"/>
<path d="M1401.56 353.061L1381.31 327.189C1360.68 332.885 1324.08 365.595 1324.08 365.595L1248.91 398.3C1241.03 396.972 1233.56 402.305 1232.23 410.212C1230.91 418.121 1236.23 425.609 1244.11 426.938C1249.23 427.799 1254.42 425.85 1257.71 421.826L1356.18 394.283L1401.56 353.061Z" fill="#EDA885"/>
<path d="M1358.61 395.161L1430.44 325.969V297.955C1431.11 287.818 1425.99 278.178 1417.22 273.082C1405.09 266.138 1389.66 269.804 1381.93 281.47C1370.64 298.532 1346.44 340.215 1324.79 365.314L1256.46 395.161L1262.55 423.652L1358.61 395.161Z" fill="#3E446D"/>
<path d="M1102.2 493.211L1019.15 450.568C1013.24 447.534 1011.28 439.49 1014.79 432.633L1068.94 326.625C1072.44 319.768 1080.09 316.66 1086 319.692L1169.05 362.337C1174.96 365.371 1176.91 373.417 1173.41 380.272L1119.26 486.279C1115.76 493.135 1108.1 496.244 1102.2 493.211Z" fill="#E6E6E6"/>
<path d="M1088.01 473.606L1031.58 444.633C1026.05 441.792 1024.22 434.257 1027.5 427.835L1072.48 339.767C1075.77 333.345 1082.93 330.433 1088.47 333.274L1156.62 368.268C1162.15 371.109 1163.98 378.643 1160.7 385.065L1136.26 432.908C1121.65 461.511 1112.65 486.261 1088.01 473.606Z" fill="white"/>
<path d="M1115.91 425.514L1065.93 399.852C1064.52 398.846 1064.2 396.89 1065.2 395.48C1066 394.353 1067.44 393.886 1068.75 394.332L1118.72 419.994C1120.13 420.998 1120.46 422.956 1119.46 424.365C1118.66 425.492 1117.21 425.96 1115.91 425.514Z" fill="#484F80"/>
<path d="M1086.39 437.889L1054.79 421.661C1053.38 420.655 1053.05 418.699 1054.05 417.29C1054.86 416.163 1056.3 415.695 1057.61 416.14L1089.21 432.369C1090.62 433.374 1090.95 435.331 1089.95 436.741C1089.14 437.868 1087.7 438.335 1086.39 437.889Z" fill="#484F80"/>
<path d="M1135.68 386.796L1085.71 361.134C1084.3 360.128 1083.97 358.172 1084.98 356.762C1085.78 355.635 1087.22 355.168 1088.53 355.614L1138.5 381.276C1139.91 382.28 1140.24 384.238 1139.23 385.647C1138.43 386.774 1136.99 387.24 1135.68 386.796Z" fill="#484F80"/>
<path d="M1091.54 377.895L1080.14 372.039C1078.73 371.035 1078.4 369.077 1079.4 367.667C1080.2 366.54 1081.65 366.074 1082.95 366.519L1094.36 372.375C1095.77 373.379 1096.09 375.337 1095.09 376.747C1094.29 377.873 1092.85 378.341 1091.54 377.895Z" fill="#484F80"/>
<path d="M1106.17 399.171L1074.57 382.941C1073.16 381.937 1072.83 379.981 1073.83 378.571C1074.64 377.444 1076.08 376.976 1077.39 377.421L1108.99 393.652C1110.4 394.656 1110.72 396.614 1109.72 398.023C1108.92 399.15 1107.48 399.617 1106.17 399.171Z" fill="#484F80"/>
<path d="M1033.38 400.921L1014.62 330.891L1064.75 321.374L1062.06 369.444L1127.93 437.451C1137.86 437.044 1146.23 444.782 1146.64 454.734C1147.05 464.684 1139.33 473.081 1129.4 473.489C1120.09 473.869 1112.02 467.05 1110.83 457.777L1033.38 400.921Z" fill="#FFB8B8"/>
<path d="M1009.49 252.372C992.47 265.842 1014.31 341.189 1014.31 341.189C1017.69 337.468 1021.62 392.464 1025.76 390.592C1037.51 385.27 1059.04 366.917 1067.34 368.413C1072.09 369.268 1067.11 332.036 1067.11 332.036C1067.11 332.036 1066.2 310.687 1064.48 283.243C1063.78 267.454 1055.07 253.126 1041.38 245.277C1041.38 245.277 1026.51 238.903 1009.49 252.372Z" fill="#3E3C55"/>
<path d="M1292.65 556.361L1247.33 534.904C1245.37 533.979 1243.94 532.205 1243.44 530.087C1242.95 528.014 1243.42 525.829 1244.73 524.153C1257.86 507.333 1266.88 487.66 1271.05 466.716C1271.7 463.408 1274.6 461.023 1277.96 461.019C1301.07 461.098 1318.35 469.56 1329.3 486.166C1330.47 487.914 1330.81 490.091 1330.23 492.115C1323.89 514.032 1314.24 534.849 1301.61 553.839C1299.68 556.806 1295.85 557.884 1292.65 556.361Z" fill="#E6E6E6"/>
<path d="M1305.99 526.265L1271.33 509.861C1269.54 509.011 1268.77 506.863 1269.62 505.062C1270.46 503.262 1272.61 502.493 1274.4 503.342L1309.05 519.747C1310.85 520.598 1311.62 522.746 1310.77 524.546C1309.92 526.347 1307.78 527.116 1305.99 526.265Z" fill="white"/>
<path d="M1311.37 514.837L1276.72 498.431C1274.92 497.581 1274.15 495.433 1275 493.632C1275.85 491.832 1277.99 491.063 1279.79 491.912L1314.44 508.319C1316.23 509.168 1317 511.316 1316.15 513.116C1315.31 514.917 1313.16 515.686 1311.37 514.837Z" fill="white"/>
<path d="M650.234 303.38C507.639 63.0331 321.774 84.4968 0.050293 84.4968V0.716553C255.386 41.5295 450.031 -34.1212 590.639 153.656C737.084 349.226 738.087 515.113 973.87 635.473C1070.9 685.005 1215.74 678.991 1620 660.553V752.747C1402.43 730.69 1365.55 764.271 1107.43 730.69C991.682 699.663 898.086 647.186 846.014 580.315C783.838 521.592 730.715 439.031 650.234 303.38Z" fill="#CAC9F0"/>
</svg>
