<svg width="362" height="383" viewBox="0 0 362 383" fill="none" xmlns="http://www.w3.org/2000/svg">
<path d="M0.681082 -419.397H360.681V267.603H0.681082V-419.397Z" fill="#6A71A1"/>
<path d="M191.257 235.923C240.57 264.886 276.116 256.593 361.256 191.912L361.184 315.099C323.616 342.756 260.434 383.841 216.749 364.103C171.25 343.545 154.423 313.917 100.69 315.677C78.5773 316.401 71.4457 316.332 0.145996 353.4L0.21982 227.955C26.632 224.028 44.0391 210.474 67.6019 204.583C91.1647 198.691 111.999 201.295 128.876 205.667C145.754 210.039 163.424 219.577 191.257 235.923Z" fill="#6A71A1"/>
<path d="M260.948 259.94C266.038 259.94 270.165 264.078 270.165 269.181C270.165 274.286 266.038 278.423 260.948 278.423C255.857 278.423 251.73 274.286 251.73 269.181C251.73 264.078 255.857 259.94 260.948 259.94Z" fill="#484F80"/>
<path d="M256.215 265.33C256.504 265.054 256.957 265.054 257.245 265.33C259.201 266.893 260.957 268.693 262.475 270.686C262.848 269.963 263.221 269.241 263.593 268.518C264.024 267.683 265.28 268.421 264.85 269.254C264.305 270.312 263.76 271.369 263.215 272.427C263.003 272.775 262.55 272.885 262.203 272.672C262.103 272.611 262.019 272.527 261.958 272.427C260.341 270.143 258.407 268.1 256.215 266.361C255.934 266.076 255.934 265.616 256.215 265.33Z" fill="white"/>
<path d="M290.761 288.124L300.809 272.304L289.174 266.057L286.12 278.127L264.604 289.784C262.187 288.912 259.521 290.169 258.651 292.593C257.781 295.017 259.036 297.689 261.453 298.562C263.723 299.381 266.24 298.325 267.251 296.13L290.761 288.124Z" fill="#FFB8B8"/>
<path d="M284.897 277.462C287.061 277.738 290.954 283.941 293.441 286.169L297.255 250.517C294.945 251.905 293.138 254.06 292.192 256.669C289.644 263.307 287.767 268.504 287.767 268.504C287.767 268.504 283.659 277.304 284.897 277.462Z" fill="#3E3C55"/>
<path d="M314.799 304.63L283.761 303.853L279.404 315.193L278.155 319.909V321.24C278.358 321.703 278.45 322.206 278.426 322.711C278.426 323.691 278.1 356.705 278.1 356.705L277.74 363.603H288.532C288.532 363.368 288.532 363.242 288.532 363.242L297.987 331.209L301.864 363.603H312.444C312.578 361.759 312.657 360.627 312.657 360.627L315.918 341.996C315.918 341.996 314.94 339.708 314.521 339.288C314.102 338.869 317.548 335.132 316.895 332.844C316.243 330.555 316.895 330.555 318.199 329.248C319.504 327.941 318.851 323.037 318.851 323.037C320.783 314.789 320.693 307.841 314.799 304.63Z" fill="#2E2D41"/>
<path d="M297.584 245.535C295.507 246.774 294.263 249.05 293.55 251.365C292.229 255.652 291.434 260.083 291.183 264.563L290.429 277.973L281.096 306.528C289.185 313.39 319.587 308.088 319.587 308.088C319.587 308.088 320.52 307.776 319.587 306.84C318.654 305.905 317.745 306.733 318.679 305.798C319.612 304.862 318.968 305.905 318.657 304.969C318.346 304.033 318.657 304.657 318.968 304.345C319.28 304.033 316.56 301.226 316.56 301.226L319.049 284.835L322.16 251.774C318.427 247.095 310.919 244.337 310.919 244.337L308.979 240.836L299.28 241.614L297.584 245.535Z" fill="#3E3C55"/>
<path d="M302.406 219.807C297.08 219.807 293.307 224.293 292.762 229.476C292.447 231.063 293.712 233.217 293.824 235.575C293.834 235.793 293.865 236.009 293.934 236.216C294.578 238.132 295.482 239.819 296.632 240.611C298.183 241.679 301.181 240.26 303.106 239.383C308.356 237.804 312.05 234.816 312.05 229.476C312.05 224.136 307.732 219.807 302.406 219.807Z" fill="#FFB8B8"/>
<path d="M309.055 240.962L308.705 236.926V236.575L299.956 238.505L299.256 241.664L309.055 240.962Z" fill="#FFB8B8"/>
<path d="M294.707 224.469C293.957 225.029 293.59 226.031 293.307 226.925C293.198 225.465 293.037 223.55 293.132 222.088C293.246 221.061 293.967 220.831 294.801 220.563C295.556 220.321 296.408 220.048 296.637 219.051C299.669 216.095 304.946 216.244 308.557 217.275C310.545 217.842 311.688 218.572 311.79 218.999L311.812 219.087L311.892 219.127C313.424 219.895 313.722 222.32 313.703 224.219C313.665 227.797 312.433 231.86 311.739 232.191C311.702 232.208 311.693 232.201 311.677 232.188C310.632 231.351 309.357 232.252 308.797 232.742C308.116 228.165 304.41 224.645 299.816 224.212C299.087 224.141 298.364 224.019 297.651 223.848C297.29 223.754 296.919 223.705 296.546 223.702C295.903 223.692 295.24 224.109 294.707 224.469Z" fill="#2E2D41"/>
<path d="M239.584 307.415L226.923 290.377C226.923 290.377 226.59 289.377 226.023 287.857V302.836L234.589 311.557C234.792 312.771 235.575 313.809 236.686 314.335C238.557 315.222 240.791 314.418 241.674 312.542C242.558 310.665 241.757 308.426 239.886 307.54C239.786 307.493 239.685 307.453 239.584 307.415Z" fill="#EDA885"/>
<path d="M198.717 329.792C197.156 322.59 197.78 315.075 197.78 315.075L234.32 312.883L235.634 316.484L236.35 318.577L236.848 319.676L238.068 323.529L242.128 349.518L240.965 363.603H228.987L229.011 362.983C229.011 362.983 227.449 362.044 226.824 362.044C226.2 362.044 227.136 355.938 227.136 355.938L225.888 355.155L226.824 352.023L216.831 329.792L215.393 363.603H200.829L200.279 357.276C200.279 357.276 200.279 336.994 198.717 329.792Z" fill="#2C3151"/>
<path d="M200.741 315.69L197.591 315.882C196.03 313.692 196.116 311.445 196.646 309.595C197.39 307.002 198.468 304.521 198.816 301.846L199.092 299.538C199.257 298.164 199.161 296.773 198.81 295.435L198.466 294.126L197.766 290.967L197.066 288.686L195.316 279.738L191.992 268.158C190.598 262.555 194.103 257.909 198.291 253.946L199.376 253.227C200.408 252.543 201.296 251.663 201.988 250.637L206.042 244.622H214.27L217.091 249.965C222.736 251.273 226.641 256.439 226.37 262.241L225.731 276.255L226.37 290.967L227.513 295.178L229.263 300.091L229.551 300.958C229.94 302.128 230.506 303.231 231.23 304.229C231.435 304.511 231.619 304.808 231.782 305.117L233.528 308.432C233.92 308.951 235.912 312.657 235.912 313.602C235.912 313.744 235.612 314.151 235.387 314.303C233.626 315.5 225.289 315.69 220.364 315.69C215.439 315.69 201.975 315.662 201.791 315.69H200.741Z" fill="#3E446D"/>
<path d="M211.219 220.326C205.201 220.326 200.322 225.219 200.322 231.253C200.322 237.287 205.221 241.839 211.24 241.839C213.299 241.839 216.772 243.887 218.414 242.892C220.826 241.431 221.279 237.379 221.564 233.943C221.652 232.879 222.439 232.25 222.439 231.312C222.439 225.277 217.237 220.326 211.219 220.326Z" fill="#EDA885"/>
<path d="M213.689 241.839L214.214 244.646H205.99L206.34 241.313L213.689 241.839Z" fill="#EDA885"/>
<path d="M218.239 247.629L215.265 244.646L205.99 243.769L204.591 246.401L218.239 247.629Z" fill="#F1F1FF"/>
<path d="M211.669 242.628C209.982 242.611 208.893 242.176 207.232 241.872C205.589 241.491 201.962 238.68 200.974 237.019C200.24 235.785 199.799 233.877 199.558 232.493C198.902 228.789 199.843 224.98 202.146 222.012C202.586 221.396 203.182 220.912 203.874 220.609C203.935 220.587 203.998 220.567 204.061 220.551C205.063 220.314 205.972 219.782 206.67 219.024C206.806 218.87 206.952 218.727 207.109 218.594C207.892 217.965 208.813 217.531 209.796 217.327C211.384 216.945 213.656 217.424 216.548 218.753C218.001 219.42 219.613 219.234 220.856 218.997C220.998 218.973 221.142 219.028 221.234 219.138C221.747 219.647 222.433 219.941 223.154 219.964C223.595 219.995 224.043 220.62 224.583 221.435C224.705 221.619 224.849 221.835 224.952 221.967L224.972 221.719L225.215 222.002C226.464 223.456 226.301 225.65 224.851 226.903C224.461 227.239 224.002 227.484 223.506 227.621C223.058 227.728 222.6 227.789 222.141 227.803C221.862 227.821 221.574 227.839 221.297 227.88C219.488 228.203 217.98 229.455 217.328 231.178C217.055 231.883 216.263 232.233 215.559 231.96C215.449 231.917 215.345 231.859 215.249 231.79C214.678 231.319 213.913 231.159 213.202 231.361C212.897 231.521 212.656 231.78 212.52 232.097C212.356 232.449 212.09 232.744 211.757 232.944C210.622 233.494 210.479 236.056 210.827 238.204C211.161 240.275 211.765 241.663 212.465 242.014C212.99 242.365 213.128 242.443 213.165 242.541L213.198 242.628L213.135 242.708C212.83 242.81 211.988 242.663 211.669 242.628Z" fill="#EBED74"/>
<path d="M221.304 277.27L226.542 270.579C231.878 272.052 241.345 280.513 241.345 280.513L260.787 288.972C262.827 288.628 264.759 290.008 265.102 292.053C265.445 294.098 264.069 296.035 262.029 296.379C260.705 296.602 259.363 296.098 258.512 295.057L233.043 287.933L221.304 277.27Z" fill="#EDA885"/>
<path d="M232.413 288.16L213.835 270.263V263.017C213.661 260.395 214.986 257.902 217.254 256.584C220.392 254.788 224.382 255.736 226.382 258.753C229.303 263.166 235.563 273.948 241.162 280.44L258.835 288.16L257.26 295.529L232.413 288.16Z" fill="#3E446D"/>
<path d="M298.736 313.521L320.216 302.491C321.744 301.706 322.251 299.626 321.344 297.852L307.339 270.433C306.433 268.659 304.453 267.855 302.925 268.64L281.444 279.67C279.916 280.455 279.41 282.536 280.316 284.309L294.322 311.728C295.228 313.501 297.208 314.305 298.736 313.521Z" fill="#E6E6E6"/>
<path d="M302.406 308.45L317 300.956C318.431 300.221 318.905 298.272 318.057 296.611L306.421 273.832C305.573 272.171 303.718 271.418 302.287 272.153L284.66 281.204C283.229 281.939 282.755 283.887 283.604 285.548L289.925 297.923C293.704 305.321 296.032 311.723 302.406 308.45Z" fill="white"/>
<path d="M295.19 296.011L308.117 289.373C308.48 289.113 308.565 288.607 308.306 288.242C308.099 287.951 307.725 287.83 307.387 287.945L294.461 294.583C294.097 294.843 294.012 295.349 294.272 295.714C294.479 296.005 294.852 296.126 295.19 296.011Z" fill="#484F80"/>
<path d="M302.824 299.212L310.998 295.014C311.362 294.754 311.447 294.248 311.188 293.884C310.981 293.592 310.607 293.471 310.269 293.586L302.095 297.784C301.731 298.044 301.646 298.55 301.905 298.915C302.112 299.206 302.486 299.327 302.824 299.212Z" fill="#484F80"/>
<path d="M290.075 285.996L303.001 279.359C303.365 279.099 303.45 278.593 303.19 278.228C302.983 277.936 302.61 277.816 302.272 277.931L289.345 284.568C288.982 284.828 288.897 285.335 289.156 285.699C289.363 285.991 289.736 286.111 290.075 285.996Z" fill="#484F80"/>
<path d="M301.492 283.694L304.442 282.179C304.806 281.919 304.89 281.413 304.631 281.049C304.424 280.757 304.051 280.636 303.713 280.751L300.763 282.266C300.399 282.526 300.315 283.032 300.574 283.397C300.781 283.688 301.154 283.809 301.492 283.694Z" fill="#484F80"/>
<path d="M297.708 289.197L305.883 284.999C306.246 284.739 306.331 284.233 306.072 283.869C305.865 283.577 305.491 283.456 305.153 283.571L296.979 287.769C296.615 288.029 296.53 288.536 296.79 288.9C296.997 289.192 297.37 289.312 297.708 289.197Z" fill="#484F80"/>
<path d="M316.535 289.65L321.388 271.536L308.421 269.075L309.117 281.508L292.079 299.098C289.512 298.993 287.346 300.994 287.24 303.569C287.136 306.142 289.132 308.314 291.699 308.42C294.109 308.518 296.194 306.754 296.503 304.356L316.535 289.65Z" fill="#FFB8B8"/>
<path d="M322.715 251.227C327.117 254.711 321.467 274.2 321.467 274.2C320.593 273.237 319.577 287.462 318.507 286.978C315.468 285.602 309.899 280.855 307.752 281.241C306.524 281.462 307.81 271.832 307.81 271.832C307.81 271.832 308.047 266.311 308.492 259.212C308.672 255.128 310.926 251.422 314.465 249.392C314.465 249.392 318.314 247.743 322.715 251.227Z" fill="#3E3C55"/>
<path d="M249.474 329.855L261.196 324.305C261.704 324.065 262.075 323.607 262.202 323.059C262.331 322.523 262.209 321.958 261.869 321.524C258.473 317.173 256.141 312.085 255.061 306.668C254.892 305.812 254.144 305.195 253.275 305.194C247.297 305.215 242.829 307.403 239.995 311.699C239.693 312.151 239.604 312.714 239.754 313.237C241.394 318.906 243.891 324.291 247.157 329.202C247.657 329.97 248.647 330.249 249.474 329.855Z" fill="#E6E6E6"/>
<path d="M246.025 322.07L254.988 317.827C255.452 317.607 255.651 317.052 255.432 316.586C255.213 316.121 254.659 315.922 254.194 316.141L245.232 320.384C244.767 320.605 244.568 321.16 244.788 321.626C245.007 322.091 245.561 322.29 246.025 322.07Z" fill="white"/>
<path d="M244.633 319.114L253.596 314.871C254.06 314.651 254.259 314.096 254.04 313.63C253.82 313.164 253.266 312.965 252.802 313.185L243.839 317.428C243.375 317.648 243.176 318.204 243.396 318.669C243.615 319.135 244.169 319.334 244.633 319.114Z" fill="white"/>
<path d="M191.237 345.386C240.55 374.348 276.096 375.555 361.236 310.875L361.164 336.375C323.596 364.033 260.415 395.618 216.729 375.879C171.23 355.322 154.403 325.693 100.67 327.453C78.5575 328.177 71.4258 328.109 0.126129 365.177L0.199902 339.747C26.6121 335.82 44.0193 322.266 67.582 316.374C91.1448 310.483 111.979 313.086 128.857 317.458C145.734 321.83 163.404 329.039 191.237 345.386Z" fill="#F1F1FF"/>
<path d="M87.247 35.4738C145.408 35.4738 176.992 107.277 191.912 147.856C206.318 187.038 241.342 192.065 273.388 196.663C305.137 201.223 330.347 223.025 345.964 240.603C359.344 255.664 360.655 261.434 360.756 262.777V263.103C360.756 263.103 360.773 263.002 360.756 262.777V240.603L361.256 -419.397H0.256042V78.5259C3.96597 73.6982 34.99 35.4738 87.247 35.4738Z" fill="#3E446D"/>
</svg>
