<svg width="811" height="539" viewBox="0 0 811 539" fill="none" xmlns="http://www.w3.org/2000/svg">
<path d="M174.382 531.421C174.382 535.504 135.343 538.815 87.1889 538.815C39.036 538.815 0 535.504 0 531.421C0 527.338 39.036 524.026 87.1889 524.026C135.343 524.026 174.382 527.338 174.382 531.421Z" fill="#B0BCED"/>
<path fill-rule="evenodd" clip-rule="evenodd" d="M22.5 288.5H115V221.167H96V215H79.5V208H54V215.5H38V220.5H22.5V288.5ZM59 215.041V210.985H73.2025V215.041H59Z" fill="#3E446D"/>
<path d="M45.705 194.244H26.0459V113.99H45.705V194.244Z" fill="#343131"/>
<path d="M43.005 153.585H28.7441V116.767H43.005V153.585Z" fill="white"/>
<path d="M40.7742 140.434H30.9775V139.351H40.7742V140.434Z" fill="#343131"/>
<path d="M40.7742 136.177H30.9775V135.086H40.7742V136.177Z" fill="#343131"/>
<path d="M40.7742 131.915H30.9775V130.825H40.7742V131.915Z" fill="#343131"/>
<path d="M40.7742 127.657H30.9775V126.568H40.7742V127.657Z" fill="#343131"/>
<path d="M41.4522 167.671C41.4522 170.752 38.955 173.252 35.8729 173.252C32.7985 173.252 30.2949 170.752 30.2949 167.671C30.2949 164.589 32.7985 162.083 35.8729 162.083C38.955 162.083 41.4522 164.589 41.4522 167.671Z" fill="white"/>
<path d="M40.1273 167.67C40.1273 170.019 38.2211 171.917 35.8732 171.917C33.5253 171.917 31.6191 170.019 31.6191 167.67C31.6191 165.322 33.5253 163.417 35.8732 163.417C38.2211 163.417 40.1273 165.322 40.1273 167.67Z" fill="#343131"/>
<path d="M68.7232 194.244H49.0615V113.99H68.7232V194.244Z" fill="#343131"/>
<path d="M66.0283 153.585H51.7637V116.767H66.0283V153.585Z" fill="white"/>
<path d="M63.7945 140.434H54.0029V139.351H63.7945V140.434Z" fill="#343131"/>
<path d="M63.7945 136.177H54.0029V135.086H63.7945V136.177Z" fill="#343131"/>
<path d="M63.7945 131.915H54.0029V130.825H63.7945V131.915Z" fill="#343131"/>
<path d="M63.7945 127.657H54.0029V126.568H63.7945V127.657Z" fill="#343131"/>
<path d="M64.4736 167.671C64.4736 170.752 61.9776 173.252 58.8956 173.252C55.8174 173.252 53.3125 170.752 53.3125 167.671C53.3125 164.589 55.8174 162.083 58.8956 162.083C61.9776 162.083 64.4736 164.589 64.4736 167.671Z" fill="white"/>
<path d="M63.1453 167.67C63.1453 170.019 61.2429 171.917 58.895 171.917C56.5458 171.917 54.6396 170.019 54.6396 167.67C54.6396 165.322 56.5458 163.417 58.895 163.417C61.2429 163.417 63.1453 165.322 63.1453 167.67Z" fill="#343131"/>
<path d="M91.7371 194.243L72.083 194.244V113.991L91.7371 113.989V194.243Z" fill="#343131"/>
<path d="M89.0491 153.584H74.7832V116.765L89.0491 116.763V153.584Z" fill="white"/>
<path d="M86.8191 140.434H77.0225V139.351H86.8191V140.434Z" fill="#343131"/>
<path d="M86.8191 136.177H77.0225V135.086H86.8191V136.177Z" fill="#343131"/>
<path d="M86.8191 131.915H77.0225V130.825H86.8191V131.915Z" fill="#343131"/>
<path d="M86.8191 127.657H77.0225V126.568H86.8191V127.657Z" fill="#343131"/>
<path d="M87.4913 167.671C87.4913 170.752 84.9928 173.249 81.9158 173.249C78.8363 173.252 76.334 170.752 76.334 167.671C76.334 164.589 78.8363 162.083 81.9158 162.083C84.9928 162.083 87.4913 164.589 87.4913 167.671Z" fill="white"/>
<path d="M86.1655 167.67C86.1655 170.017 84.2631 171.917 81.9165 171.917C79.5673 171.917 77.6611 170.017 77.6611 167.67C77.6611 165.322 79.5673 163.417 81.9165 163.417C84.2631 163.417 86.1655 165.322 86.1655 167.67Z" fill="#343131"/>
<path d="M134.147 190.401L115.141 195.421L94.6543 117.82L113.659 112.811L134.147 190.401Z" fill="#343131"/>
<path d="M121.161 151.777L107.369 155.416L97.9746 119.814L111.765 116.174L121.161 151.777Z" fill="white"/>
<path d="M115.65 139.636L106.179 142.133L105.898 141.085L115.367 138.584L115.65 139.636Z" fill="#343131"/>
<path d="M114.557 135.521L105.093 138.019L104.813 136.962L114.284 134.46L114.557 135.521Z" fill="#343131"/>
<path d="M113.475 131.399L104.012 133.898L103.729 132.847L113.199 130.347L113.475 131.399Z" fill="#343131"/>
<path d="M112.386 127.281L102.92 129.78L102.643 128.731L112.104 126.229L112.386 127.281Z" fill="#343131"/>
<path d="M123.256 165.798C124.044 168.774 122.262 171.831 119.286 172.613C116.312 173.399 113.254 171.622 112.47 168.646C111.678 165.665 113.46 162.607 116.435 161.821C119.414 161.031 122.463 162.813 123.256 165.798Z" fill="white"/>
<path d="M121.967 166.133C122.569 168.405 121.219 170.737 118.946 171.33C116.676 171.929 114.346 170.576 113.751 168.305C113.152 166.036 114.505 163.707 116.779 163.105C119.048 162.504 121.368 163.861 121.967 166.133Z" fill="#343131"/>
<path d="M75.8054 97.4731H26.5361L29.9194 91.4658H72.4297L75.8054 97.4731Z" fill="#343131"/>
<path d="M49.4044 92.6271L49.3057 86.0566L52.5902 85.9971L52.7003 92.5828C52.7003 92.5828 50.5385 93.2815 49.4044 92.6271Z" fill="#343131"/>
<path d="M35.9744 31.125L37.7604 29.9694L34.1835 24.4443L32.3887 25.6076L35.9744 31.125Z" fill="#343131"/>
<path d="M65.9014 82.2084L67.6987 81.0477L64.1167 75.5303L62.332 76.6859L65.9014 82.2084Z" fill="#343131"/>
<path d="M52.6151 87.6239C59.3032 87.5188 65.795 85.5797 71.3857 82.0394C72.1375 81.5596 72.3679 80.5534 71.8857 79.7964C71.4034 79.0395 70.3997 78.8193 69.6441 79.2965C64.5609 82.5254 58.6526 84.2823 52.5695 84.381C34.6951 84.6645 19.9305 70.6299 19.6457 53.0991C19.447 40.8897 26.2198 29.8434 37.3101 24.2652C38.1113 23.8615 38.4327 22.8843 38.029 22.0869C37.6278 21.2907 36.6595 20.968 35.8545 21.3654C23.6391 27.5081 16.1878 39.6847 16.3979 53.1523C16.708 72.4728 32.9535 87.9365 52.6151 87.6239Z" fill="#343131"/>
<path d="M78.0705 49.5647C80.2463 64.7993 69.6611 78.9163 54.4307 81.101C39.2004 83.2743 25.0838 72.7014 22.9005 57.4642C20.7171 42.2271 31.3061 28.1076 46.5276 25.9343C61.7656 23.7509 75.8922 34.3338 78.0705 49.5647Z" fill="#B0BCED"/>
<path d="M71.807 58.7493C72.0297 58.6101 71.9436 58.5999 71.9715 58.2746C72.0057 57.9506 72.0209 57.338 72.0462 57.0152C72.0791 56.6886 71.6006 56.5228 71.6006 56.5228C71.6006 56.5228 71.2412 55.9988 71.102 55.7001C70.9728 55.4026 71.0475 54.5546 71.0652 54.347C71.0804 54.1457 71.2285 53.8344 71.6171 53.6572C71.9968 53.4901 72.1892 53.6749 72.7967 53.2369C73.4106 52.799 73.0182 52.6863 73.2094 52.2901C73.4106 51.9003 73.6233 50.9345 73.6233 50.9345C73.6233 50.9345 73.5688 50.6459 73.4296 50.3485C73.2878 50.0498 73.5283 49.7409 73.5612 49.3384C73.5967 48.9308 72.9739 47.6461 72.9739 47.6461C72.9739 47.6461 72.512 46.8727 72.4575 46.5753C72.3993 46.2892 72.4942 45.7259 72.3753 45.7108C72.2512 45.7019 72.0993 45.5222 71.8348 45.3361C71.5627 45.1475 71.6336 44.8678 71.6437 44.664C71.669 44.4665 71.6576 44.0969 71.6437 43.726C71.6437 43.3514 71.8601 43.6615 72.2689 43.6969C72.6778 43.7324 72.2677 43.6969 72.4575 43.8754C72.6436 44.0615 72.5917 44.2184 72.7765 44.4766C72.9499 44.7387 73.0993 44.9551 73.3954 45.269C73.6979 45.5854 73.3954 44.7792 73.3005 44.4868C73.2018 44.188 72.6904 43.5691 72.5879 43.3577C72.4841 43.1438 72.4487 43.0172 72.4246 42.8932C72.3867 42.7641 72.3386 42.4805 72.2525 42.0173C72.174 41.5591 72.212 41.5641 72.0512 41.1426C71.8854 40.7224 71.3488 39.4022 71.0982 38.9668C70.8577 38.539 70.3286 37.9985 70.3286 37.9985L69.5869 37.6036C69.5869 37.6036 69.2274 37.0834 68.9768 36.691C68.7287 36.2986 67.6022 34.4278 67.6022 34.4278C66.4428 33.3861 63.476 31.6229 63.476 31.6229L62.5786 31.8191L62.147 32.1039C62.147 32.1039 61.4002 32.2811 61.2762 32.2722C61.1496 32.2596 60.9053 32.2368 60.6699 32.176C60.4218 32.1115 60.4054 31.909 60.3016 31.652C60.2016 31.4027 59.8649 31.533 59.7042 31.5545C59.5346 31.5811 59.4814 31.7355 59.1802 31.9229C58.8751 32.0988 59.0549 32.4001 59.0549 32.4001C59.0549 32.4001 59.2498 32.9064 59.2333 33.1532C59.208 33.3962 59.0068 33.2962 58.8055 33.357C58.5865 33.4228 58.5663 33.2545 58.4612 33.0886C58.3473 32.9064 58.1613 32.7279 57.7208 32.6823C57.2702 32.6469 57.6778 33.0962 57.6778 33.0962C57.6778 33.0962 57.6904 33.457 57.5512 33.6114C57.4145 33.7646 57.0272 33.5266 56.8892 33.719C56.75 33.9088 56.6551 33.5696 56.5437 33.4355C56.4361 33.3064 56.4032 33.1836 55.7589 33.0886C55.1109 32.9798 55.7349 33.3684 55.3501 33.5405C54.9679 33.7089 53.9717 33.4165 53.811 33.357C53.654 33.3026 53.0895 33.2545 52.9212 33.2367C52.7604 33.2279 51.8681 33.5937 51.5011 33.5975C51.134 33.6063 51.1543 33.7342 50.9441 33.838C50.734 33.9342 50.6011 34.0063 50.2708 34.0557C49.9354 34.1126 49.8708 33.9823 49.7594 33.8089C49.6556 33.6354 49.7999 33.4038 49.8493 33.2456C49.9075 33.0886 49.8708 33.0456 49.8961 32.7975C49.9164 32.5583 50.0619 32.7368 50.1847 32.7431C50.305 32.7545 50.6581 32.9064 50.9467 32.9368C51.2277 32.9608 51.1948 32.876 51.2074 32.7545C51.215 32.6292 50.9568 32.3203 50.8087 32.2317C50.6556 32.1317 50.4189 31.9444 50.2252 31.8014C50.0354 31.6647 49.8708 31.695 49.4708 31.5735C49.0747 31.4533 48.7456 31.509 48.576 31.533C48.4102 31.5621 47.8204 31.7507 47.6102 31.8115C47.4039 31.8786 46.9749 32.0039 46.6318 32.2216C46.2888 32.4305 45.7496 32.4634 45.1674 32.6178C44.5776 32.7722 44.189 32.5697 43.8928 32.6583C43.603 32.7621 43.5334 32.9608 43.5334 32.9608C43.5334 32.9608 43.6739 33.257 44.0283 33.3684C44.0283 33.3684 43.8473 33.6848 43.6688 33.7848C43.5005 33.8975 43.4334 34.0557 43.4182 34.2987C43.3929 34.5443 43.8574 34.4607 44.0181 34.4329C44.1839 34.4101 44.3333 34.1759 44.4257 34.062C44.5118 33.9519 44.8459 33.8975 44.8459 33.8975C44.8459 33.8975 45.1105 33.6747 45.3395 33.4101C45.5674 33.1481 45.8901 33.214 46.0711 33.0697C46.2483 32.9216 46.5774 32.7874 46.8369 32.6823C47.0926 32.5874 47.6672 32.5153 47.9533 32.5469C48.2406 32.5697 48.195 33.0165 48.195 33.0165C48.195 33.0165 47.8609 33.1481 47.6976 33.1291C47.5318 33.1178 47.1483 33.3317 47.1483 33.3317L46.809 33.457L46.8495 33.8734C46.8495 33.8734 47.1685 33.9823 47.5242 34.1C47.8824 34.2139 47.7735 34.4519 47.7659 34.5721C47.7571 34.6924 47.4356 34.7025 47.2255 34.6898C47.023 34.6721 46.6141 34.6721 46.4939 34.6607C46.3711 34.6493 46.3559 34.8936 46.1407 35.0341C45.9142 35.1809 45.7408 34.8746 45.5762 34.8215C45.4193 34.762 45.2459 34.8746 44.9978 34.9354C44.7497 34.9936 44.8814 35.2506 44.7826 35.4467C44.6915 35.6429 44.5282 35.629 44.2017 35.5986C43.8802 35.5695 43.9232 35.4505 43.8169 35.2797C43.7182 35.1075 43.2815 35.3518 43.0018 35.3316C42.7119 35.3012 42.2499 34.9696 42.0145 34.8696C41.7753 34.762 41.5778 34.786 41.4538 34.8215C41.3209 34.8455 41.0564 35.1075 40.8868 35.0974C40.726 35.0771 40.3109 35.1278 40.3109 35.1278C40.3109 35.1278 39.802 35.3708 39.335 35.5303C38.873 35.6885 39.1337 35.5062 38.692 35.4721C38.2376 35.429 38.3136 35.5581 38.1642 35.8771C38.0073 36.1897 37.1377 36.7998 36.7706 36.7695C36.4112 36.734 35.9682 36.6138 35.729 36.5847C35.4771 36.5657 35.4454 36.9327 35.0948 37.1922C34.7518 37.4428 34.5582 37.7504 34.2152 37.9251C33.8734 38.101 34.0544 38.3656 33.9848 38.6466C33.9228 38.9263 34.1582 39.0263 34.1582 39.0263L34.5949 39.1453C34.5949 39.1453 34.8873 39.0567 35.5113 38.5289C36.1251 38.0188 35.891 38.4073 36.1049 38.2618C36.3238 38.1175 36.5302 38.0972 36.7985 37.8352C37.0668 37.5732 36.9997 37.8542 37.2023 37.8707C37.4086 37.8922 37.4415 37.9314 37.8579 37.8922C38.2667 37.8403 37.8579 37.8922 38.0857 37.6226C38.3123 37.3593 38.3958 37.8112 38.3958 37.8112C38.3958 37.8112 38.3984 38.2225 38.3363 38.4263C38.2832 38.6276 38.3123 38.7086 38.2958 38.9073C38.2743 39.1111 38.4629 39.3782 38.4667 39.7427C38.4781 40.1174 38.5034 40.2364 38.7502 40.3009C38.9818 40.3642 39.1654 40.0933 39.2287 39.8971C39.2907 39.6934 39.1717 39.6047 39.0641 39.4313C38.9603 39.2567 38.9781 39.0946 38.9692 38.6883C38.9692 38.2757 39.0591 38.2023 39.1958 38.0491C39.3274 37.901 39.2907 37.8593 39.6742 37.6859C40.0615 37.5125 40.1197 37.9896 40.1197 37.9896L39.8425 38.3403C39.8425 38.3403 39.8147 38.639 39.7982 38.8174C39.7831 39.0073 40.0742 39.1516 40.2476 39.2288C40.4248 39.306 40.3349 39.6718 40.2615 39.8465C40.178 40.0212 40.0552 40.1326 39.8476 40.2958C39.6539 40.4642 39.74 40.8414 39.6539 41.1426C39.5641 41.4376 39.4223 41.6084 39.4565 41.9818C39.4767 42.3514 39.4565 41.9818 39.7982 42.197C40.1463 42.4135 40.1273 41.9818 40.2678 41.7502C40.4083 41.5198 40.4425 41.1477 40.4678 40.9034C40.4919 40.6617 40.7918 40.749 41.1601 40.73C41.5272 40.7009 41.4538 40.9313 41.631 40.9515C41.8171 40.968 42.0563 40.9895 42.274 40.6401C42.4841 40.2933 42.7334 40.3098 42.9397 40.0933C43.141 39.8617 43.4701 39.6402 44.4105 39.3605C45.356 39.0807 44.8231 39.5212 45.0662 39.6047C45.3028 39.6845 45.3788 40.1895 45.4649 40.6832C45.5395 41.1831 46.2028 41.2401 46.6559 41.6489C47.1153 42.0654 46.7356 42.1476 46.5293 42.3742C46.3268 42.6033 45.98 42.3843 45.675 42.3527C45.3699 42.3362 45.2661 42.197 44.9041 42.1071C44.5434 42.011 44.2966 42.0464 43.8093 42.0059C43.3195 41.9666 43.3688 42.0894 42.8284 41.9211C42.2955 41.7502 42.3031 41.6831 42.0639 41.5996C41.8247 41.5198 41.512 41.6186 41.3184 41.7198C41.1234 41.8274 41.3589 42.6464 41.1728 43.3008C41.0007 43.9653 41.9234 43.859 42.2246 43.8906C42.5309 43.9121 42.7701 43.9387 43.4511 43.9387C44.1181 43.9387 43.7726 44.3969 43.7599 44.5754C43.7397 44.7627 43.3777 45.4019 43.1043 45.7475C42.8233 46.0917 42.617 46.3715 42.2373 46.4689C41.8614 46.5512 41.3323 46.1993 40.8538 46.1576C40.3678 46.112 39.7932 45.6994 39.7932 45.6994L39.3843 45.4715C38.973 45.2525 38.9325 45.0007 38.7844 44.6209C38.635 44.2399 38.3503 44.0235 38.0553 43.8159C37.7718 43.6071 37.6111 44.0235 37.6111 44.0235C37.6111 44.0235 37.5541 44.6336 37.3605 44.7969C37.158 44.9652 36.9896 44.8222 36.6998 44.6209C36.4112 44.4045 36.2985 44.2691 36.134 44.0096C35.977 43.7514 36.0593 43.5185 35.9555 43.2628C35.8657 43.0058 35.6809 42.9881 35.4872 42.4223C35.2885 41.8515 35.4771 41.8072 35.9429 41.4148C36.4099 41.0287 35.9441 41.4148 36.1796 40.8262C36.4188 40.2364 36.1783 40.8262 35.8897 40.6768C35.5923 40.5287 35.2619 40.1326 34.8911 40.0933C34.5316 40.063 34.4645 40.1756 33.9316 39.9503C33.395 39.7149 33.4633 39.6592 33.2165 39.6402C32.9773 39.6174 32.8115 40.0326 32.0862 40.6401C31.3546 41.249 29.8548 41.8945 28.665 44.5171C27.4778 47.1284 27.2373 50.1396 27.2082 50.4497C27.1676 50.7561 28.2372 52.0193 28.5169 52.28C28.8068 52.5547 29.3168 52.9673 29.4194 53.166C29.5269 53.3597 29.9408 54.1938 29.9902 54.9976C30.0434 55.7988 29.9067 55.9684 29.7168 57.3658C29.5269 58.7594 30.561 60.2568 30.5357 60.5694C30.5066 60.8758 30.8484 61.8238 30.7863 62.4314C30.742 63.0427 30.8192 63.5338 30.8268 64.0908C30.8306 64.6464 31.5749 65.9995 32.59 68.364C33.6051 70.7233 35.6378 72.1233 35.7619 72.2296C35.8821 72.3296 36.4707 72.2106 36.4707 72.2106C36.4707 72.2106 37.1706 71.9676 37.2579 71.7309C37.339 71.4942 37.3643 71.2474 37.7592 70.9727C38.1477 70.7056 37.7604 70.9727 38.0743 70.8246C38.3958 70.6664 38.0743 70.8246 38.0908 70.5803C38.1186 70.3398 37.7022 70.1753 37.7022 70.1753C37.7022 70.1753 37.6782 69.7411 38.0781 69.407C38.4781 69.0779 38.0781 69.407 38.473 69.1386C38.8667 68.8703 38.7806 69.1677 39.1426 69.2032C39.5109 69.2335 39.5135 69.174 39.7729 69.0108C40.0286 68.8538 39.859 68.7121 40.083 68.2463C40.3096 67.7678 40.2185 67.459 40.2185 67.459L39.8476 66.8109L39.7565 66.5008C39.6577 66.1767 39.6172 65.9932 39.6337 65.8033C39.6539 65.6236 39.3578 65.4743 39.3287 65.0464C39.3084 64.611 39.4261 64.6768 39.7729 64.287C40.1109 63.8908 40.5172 63.4908 40.5172 63.4908C40.5172 63.4908 40.9045 63.282 41.1108 63.0541C41.3133 62.8314 41.7576 62.6858 42.2158 62.3592C42.674 62.0263 42.7195 62.1567 42.7195 62.1567C42.7195 62.1567 43.2714 62.1453 43.6561 62.0618C44.027 61.9732 43.9789 61.8428 44.3181 61.5023C44.651 61.1694 46.2154 59.5303 46.2888 59.3442C46.3686 59.1758 46.6154 59.1961 46.8964 58.7911C47.1736 58.3885 46.8964 58.7911 46.6774 58.467C46.4584 58.1392 46.3686 58.5063 46.1711 58.6101C45.98 58.7101 45.6838 58.5645 45.4522 58.4784C45.2092 58.4025 44.9687 58.3088 44.6675 58.2797C44.3624 58.2594 44.2434 58.2493 43.7637 58.1392C43.2815 58.0354 43.3422 58.0417 43.165 57.962C42.9828 57.8873 42.822 57.6304 42.917 57.2076C43.0157 56.7861 42.9182 57.2076 42.9473 56.9646C42.9638 56.7253 42.7372 56.5165 42.3411 56.1722C42.3411 56.1722 42.2461 56.5937 42.0525 56.6962C41.8576 56.8051 41.7462 56.6127 41.5361 56.2861C41.3209 55.9621 41.712 55.6887 41.9715 55.5279C42.2322 55.3672 41.9487 55.0913 41.7462 54.6457C41.5487 54.1938 41.7462 54.6457 41.7006 54.4559C41.655 54.2711 41.731 54.0926 41.5361 53.5787C41.3298 53.0774 41.5361 53.5787 41.2601 53.2509C40.9754 52.9192 41.131 52.6205 41.2133 52.3231C41.3044 52.0307 41.2703 51.7206 41.1842 51.2826C41.1057 50.8459 41.1855 51.2826 41.0374 50.9586C40.8766 50.6371 41.0614 50.6624 41.1576 50.2966C41.2513 49.9358 41.1526 49.684 40.926 49.4169C40.707 49.1511 41.1526 48.2739 41.1526 48.2739C41.35 47.8005 42.0525 47.6347 42.0525 47.6347C42.0525 47.6347 42.0563 48.0068 42.0892 48.1347C42.117 48.2587 42.2373 48.76 42.2373 48.76L42.155 49.6903C42.155 49.6903 42.5967 50.1839 42.7524 50.3181C42.903 50.4523 42.9132 50.7472 42.8549 50.8991C42.8056 51.0573 42.7486 51.2218 42.6005 51.4472C42.46 51.6826 42.9575 52.5484 42.9575 52.5484C42.9575 52.5484 43.0132 52.799 43.2233 53.2268C43.4308 53.6483 43.3777 53.7698 43.3777 53.7698C43.3777 53.7698 43.5536 55.0508 43.4916 55.2912C43.422 55.533 43.5043 55.9887 43.4764 56.276C43.4549 56.5583 43.6903 56.6659 43.9295 56.6861C44.1726 56.7076 44.3055 56.5937 44.3055 56.5937C44.3055 56.5937 44.7864 56.7608 45.0662 56.7861C45.356 56.814 45.5674 56.7545 45.6965 56.6773C45.8193 56.6127 46.042 56.4633 46.042 56.4633C46.042 56.4633 47.028 56.3912 47.4482 56.2684C47.8659 56.138 47.8444 55.933 47.9798 55.7798C48.1216 55.6355 48.4279 55.8191 48.8393 55.8191C49.2481 55.814 49.4582 55.7545 49.7569 55.6203C50.0569 55.4811 50.3088 55.4204 50.486 55.233C50.6632 55.0419 50.9024 54.7318 51.1707 54.4318C51.4428 54.1331 51.696 54.1128 51.9149 53.9318C52.1364 53.7407 51.939 53.6875 51.9187 53.4357C51.9023 53.1888 51.5757 53.1217 51.5757 53.1217C51.5757 53.1217 51.4707 52.9483 51.2694 52.8496C51.0834 52.7496 50.9695 52.6154 50.8543 52.5243C50.7416 52.4306 50.8353 52.2724 50.8353 52.2724C50.8353 52.2724 50.8606 52.0357 50.7492 51.8611C50.6416 51.6838 50.3872 51.8231 50.3872 51.8231C50.3872 51.8231 50.167 51.9724 49.9809 52.199C49.7999 52.4306 49.9822 52.199 49.7139 52.4205C49.4506 52.642 49.3417 52.5104 49.3417 52.5104C49.3417 52.5104 48.6583 52.3623 48.3823 52.2572C48.1102 52.1534 48.2899 51.8813 48.3026 51.7636C48.3165 51.6395 48.0431 51.5345 47.9229 51.4408C47.8115 51.3459 47.7343 51.2662 47.709 51.0573C47.6925 50.8459 47.7039 50.7206 47.6267 50.5953C47.5609 50.4675 47.4963 50.2966 47.3571 49.9979C47.2166 49.6991 47.1647 49.4093 47.1559 49.0397C47.1483 48.6701 47.3204 49.0131 47.6343 48.7524C47.9431 48.4992 47.6356 48.7524 47.7292 48.5587C47.8292 48.365 48.1127 48.4701 48.1127 48.4701L48.6532 48.76C48.6532 48.76 48.795 49.0574 48.8886 49.4017C48.976 49.7371 49.0456 49.908 49.1038 50.1548C49.1658 50.408 49.4329 50.5118 49.7506 50.7016C50.0607 50.8927 50.2265 50.8333 50.5189 50.7738C50.8125 50.7206 50.8644 50.6004 50.8644 50.6004C50.8644 50.6004 51.4998 50.7801 51.553 51.1168C51.6061 51.4446 51.8668 51.6737 51.8668 51.6737L53.0617 52.1079L53.6553 52.2876C53.6553 52.2876 54.5945 52.2876 54.7641 52.2623C54.9286 52.2395 55.4995 52.2876 55.7716 52.3939C56.0526 52.4977 55.9855 52.823 55.9855 52.823C55.9855 52.823 56.188 53.2509 56.1842 53.3673C56.1627 53.4901 56.8474 53.5977 56.8474 53.5977L57.2031 53.7875L57.1297 54.1938L56.9398 54.4647L57.1436 54.8938L57.6322 54.9381C57.6322 54.9381 57.9676 54.8432 58.017 54.7242C58.079 54.6039 58.3005 54.3419 58.3005 54.3419C58.3005 54.3419 58.5195 54.6039 58.4549 54.89C58.3878 55.1634 58.3131 55.533 58.26 55.6887C58.2068 55.8456 58.3461 56.0216 58.4359 56.4874C58.5106 56.9405 58.465 57.0152 58.4853 57.2228C58.5068 57.4266 58.684 57.8126 58.7751 58.0658C58.8815 58.3177 58.9612 58.7379 58.9485 58.9392C58.9245 59.1429 59.0068 59.6379 58.9865 59.8859C58.9612 60.1277 59.5649 60.6682 59.5485 60.8758C59.5346 61.0808 59.5346 61.0808 59.4903 61.5276C59.4536 61.9732 59.9649 61.6517 59.9649 61.6517C59.9649 61.6517 60.1193 61.377 60.2978 61.1884C60.4788 61.0023 60.5535 61.0492 60.5686 60.8479C60.594 60.6416 60.7066 60.2834 60.7066 60.2834C60.7066 60.2834 61.1977 59.8809 61.2509 59.7201C61.3078 59.5632 61.2888 59.2746 61.3129 58.9885C61.3433 58.7101 61.342 58.2493 61.399 58.0202C61.461 57.7785 62.4318 57.0038 62.4571 56.8051C62.4723 56.5937 63.0963 56.457 63.2368 56.3051C63.3773 56.1469 63.9304 55.8305 63.9304 55.8305C63.9304 55.8305 64.4291 54.8963 64.4367 54.7723C64.4455 54.652 64.867 54.5267 65.2417 54.4799C65.6138 54.4318 65.6454 54.5103 65.8556 54.4128C66.0745 54.3065 65.8821 54.2483 65.8518 54.0825C65.8239 53.9141 66.0302 53.8964 66.0302 53.8964L66.6074 54.3154C66.6074 54.3154 66.7694 54.7786 66.8757 54.9558C66.9795 55.1204 67.1732 55.2685 67.5402 55.7089C67.9111 56.1469 67.4807 56.4038 67.4807 56.4038C67.4807 56.4038 67.42 56.6772 67.3947 56.8823C67.3782 57.0848 67.6605 57.1481 67.7794 57.162C67.8997 57.1722 67.9984 57.0152 67.9984 57.0152C67.9984 57.0152 68.106 56.7861 68.4034 56.6861C68.692 56.5874 68.4098 56.9747 68.4098 56.9747C68.4098 56.9747 68.592 57.2342 68.7161 57.6544C68.8401 58.0759 68.7161 57.6544 68.6503 57.9759C68.5806 58.2974 68.6224 58.2974 68.5553 58.5809C68.4895 58.8645 68.6946 58.7987 68.8945 58.8581C69.0958 58.9176 69.1869 58.8366 69.154 58.7139C69.1287 58.5898 69.3008 58.4025 69.3299 58.1544C69.3464 57.9164 69.6426 58.2291 69.6426 58.2291C69.6426 58.2291 70.0729 58.4759 70.259 58.6961C70.4438 58.9176 70.4729 59.0429 70.5425 59.167C70.6172 59.305 70.6362 59.5442 70.664 59.667C70.6931 59.8037 70.945 59.6973 71.1513 59.6758C71.3576 59.6568 71.2829 59.191 71.3323 59.0784C71.3855 58.9581 71.5956 58.8936 71.807 58.7493ZM51.8719 43.9805C51.6909 44.1729 51.7694 44.1805 51.4441 44.188C51.1175 44.2007 50.9707 44.3944 50.996 44.5247C51.034 44.6475 51.1745 44.907 51.1745 44.907C51.1745 44.907 51.3593 45.0855 51.2239 45.2753C51.0834 45.4639 50.9163 45.4475 50.9441 45.6576C50.9606 45.8664 51.3112 45.65 50.9606 45.8664C50.6226 46.0753 50.5138 46.2753 50.3075 45.8487C50.3075 45.8487 49.7316 45.4639 49.5038 45.2399C49.2823 45.0159 49.0709 45.0766 49.1532 44.6336C49.2354 44.1969 49.1266 44.0235 49.305 43.8754C49.4822 43.726 49.5063 43.8501 49.6518 43.6235C49.7999 43.3881 49.8252 43.0615 49.8252 43.0615C49.8252 43.0615 49.3962 42.8147 49.3316 42.6489C49.2645 42.4729 49.1164 42.3388 49.2152 42.1071C49.3228 41.8667 49.0165 42.0464 49.3215 41.8667C49.6177 41.6958 49.9733 41.4376 50.0986 41.3692C50.2315 41.2996 50.7087 40.9743 50.7087 40.9743L51.1011 40.7654C51.1011 40.7654 51.4087 40.5034 51.5036 40.7604C51.6061 41.0097 51.6504 41.0186 51.5757 41.3325C51.5087 41.6565 51.3783 41.6869 51.253 41.7553C51.1226 41.8274 51.0062 41.7793 50.9112 41.9287C50.8125 42.0856 50.5606 42.1907 50.7416 42.4464C50.9188 42.7147 51.2201 43.0236 51.2201 43.0236C51.2201 43.0236 51.3694 43.1552 51.4441 43.2856C51.5137 43.4197 51.9795 43.6678 51.9213 43.8222C51.8719 43.9805 52.0504 43.7995 51.8719 43.9805ZM54.5426 42.5021C54.3641 42.6059 54.3021 42.4413 54.1996 42.6362C54.1008 42.8324 54.0059 43.0337 54.0059 43.0337C54.0059 43.0337 53.6629 43.2577 53.5604 42.9881C53.4692 42.7641 53.3958 42.5616 53.3667 42.3527C53.3427 42.1552 53.1503 41.9666 53.3566 41.9502C53.5667 41.9287 53.7743 41.9072 53.9072 41.797L54.0426 41.6831C54.0426 41.6831 54.3236 41.7122 54.3907 41.878C54.459 42.0464 54.3185 41.7882 54.4578 42.0464C54.5995 42.3071 54.716 42.3957 54.5426 42.5021ZM64.7101 44.5247C64.3671 44.6209 64.1937 44.3602 64.1937 44.3602L64.0684 43.8526C64.0684 43.8526 64.4607 43.602 64.5266 43.7817C64.5924 43.9425 64.4177 43.6843 64.5936 43.9425C64.7759 44.2096 64.8442 43.8805 64.7746 44.2096C64.7088 44.5247 65.0442 44.4399 64.7101 44.5247Z" fill="#0E0C50"/>
<path d="M73.5668 60.6255C73.6213 60.4306 73.6415 60.1838 73.6162 60.0205C73.5921 59.856 73.4099 60.0446 73.4099 60.0446C73.4099 60.0446 73.1504 60.5939 72.6226 61.5305C72.0809 62.4558 72.3796 61.9584 72.1973 62.1406C72.0189 62.3305 72.0037 62.4913 71.8176 62.7178C71.6328 62.9495 71.5493 62.9824 71.3303 63.1229C71.1151 63.271 71.2227 63.9393 71.2265 64.3102C71.2354 64.7304 71.8999 64.5279 72.2505 64.3139C72.5922 64.1051 72.4733 64.0532 72.4935 63.8089C72.5188 63.5621 72.577 63.3621 72.5922 63.195C72.6049 63.0406 72.915 62.8254 73.0922 62.6356C73.2782 62.4444 73.1339 62.228 73.1137 61.9786C73.0922 61.7305 73.2327 61.5812 73.2453 61.3799C73.2706 61.1799 73.501 60.8293 73.5668 60.6255Z" fill="#0E0C50"/>
<path d="M69.9126 62.0218C69.8924 61.8902 69.8924 61.8548 69.7114 61.5915C69.5329 61.3307 69.5823 61.251 69.3481 61.1535C69.1076 61.0472 69.1583 61.3371 69.1076 61.0472C69.0507 60.7536 69.0456 60.3447 69.0456 60.3447C69.0456 60.3447 68.9595 59.9663 68.7861 60.0776C68.614 60.1852 68.3115 60.3624 68.4039 60.6561C68.5026 60.9535 68.5798 60.9978 68.7279 61.1776C68.8773 61.3561 68.9102 61.4396 68.9773 61.6472C69.0393 61.8624 69.0671 61.9446 69.0798 62.2725C69.0886 62.6003 69.0671 62.9243 69.0671 62.9243C69.0671 62.9243 69.1696 63.1003 69.319 63.2319C69.4709 63.3686 69.6443 63.4635 69.6937 63.1851C69.7316 62.9813 69.7392 62.6155 69.7569 62.4965C69.7645 62.3775 69.9493 62.1472 69.9126 62.0218Z" fill="#0E0C50"/>
<path d="M69.6313 64.7368C69.4921 64.5165 69.363 64.5077 69.3465 64.2191C69.3352 63.9305 69.8832 64.2267 69.3352 63.9317C68.7896 63.6368 69.0871 63.9507 68.7896 63.6356C68.4897 63.3229 68.3732 63.2723 68.3074 63.1407C68.234 63.009 68.0062 62.785 68.0062 62.785L67.8239 62.604C67.8239 62.604 67.5518 62.3774 67.5315 62.5825C67.5189 62.785 67.4366 62.7761 67.5771 63.0356C67.7163 63.2951 67.6758 63.333 67.9353 63.6014C68.196 63.8685 67.9973 63.3989 68.196 63.8685C68.4023 64.3393 68.4023 64.3393 68.4226 64.5418C68.4441 64.7469 68.3909 64.9051 68.415 65.0368C68.4441 65.1583 68.3821 65.4836 68.5213 65.6949C68.6694 65.9127 68.9681 66.1924 68.9681 66.1924L69.3719 66.2696C69.525 65.957 69.4795 65.5355 69.6529 65.3861C69.8339 65.238 70.0743 65.2608 69.8503 65C69.6313 64.7368 69.7756 64.9583 69.6313 64.7368Z" fill="#0E0C50"/>
<path d="M61.7386 61.5616C61.6766 61.3527 61.7386 61.5616 61.607 61.2299C61.4703 60.8907 61.3994 61.2034 61.2386 61.1882C61.0817 61.1806 61.0868 61.5021 61.0868 61.5021C61.0868 61.5021 60.988 61.7071 60.807 61.9324C60.6159 62.1577 60.807 62.3071 61.0665 62.6539C61.2437 62.8855 61.6437 62.621 61.793 62.3451L61.9803 62.0362L61.8057 61.7755C61.6184 61.5084 61.8057 61.7755 61.7386 61.5616Z" fill="#0E0C50"/>
<path d="M156.264 533.091H19.8574V516.9H156.264V533.091Z" fill="#B0BCED"/>
<path d="M3.73828 520.09H172.391V0H3.73828V520.09ZM163.825 288.33H12.3047V10.4286H163.825V288.33Z" fill="#B0BCED"/>
<path d="M163.825 107.883H12.3047V95.8512L163.825 95.8486V107.883Z" fill="#B0BCED"/>
<path d="M163.825 205.516H12.3047V193.487H163.825V205.516Z" fill="#B0BCED"/>
<path d="M172.391 520.09H3.73828V298.642V520.092H172.391V298.642V520.09Z" fill="#B0BCED"/>
<path d="M75.1323 357.075H68.9189V318.407H75.1323V357.075Z" fill="#9DACEB"/>
<path d="M107.207 357.075H100.997V318.407H107.207V357.075Z" fill="#9DACEB"/>
<path d="M85.6426 507.079L90.4777 506.548V298.643H85.6426V507.079Z" fill="#9DACEB"/>
<path d="M43.8679 69.1982C43.8679 69.1982 43.9553 69.083 44.1565 69.0994C44.2914 69.1143 44.264 68.9718 44.2773 68.9679C44.2843 68.9658 44.3028 69.0026 44.3628 69.1222C44.5451 69.4665 44.5742 69.55 44.5122 69.7513C44.488 69.8339 44.476 69.8527 44.471 69.8731C44.4638 69.9018 44.4703 69.9339 44.4755 70.1513C44.4807 70.4028 44.2963 70.6401 44.161 70.8142C44.0988 70.8942 44.047 70.9608 44.0287 71.0095C44.0076 71.0681 43.9943 71.1117 43.9804 71.1571C43.9569 71.234 43.9318 71.3163 43.8641 71.4866C43.8283 71.5843 43.7979 71.672 43.7692 71.7549C43.7156 71.9095 43.6676 72.0478 43.6009 72.2043C43.5168 72.397 43.471 72.4826 43.4014 72.6124C43.3851 72.6429 43.3675 72.6758 43.3477 72.7132C43.2803 72.8388 43.5815 72.8233 43.5827 72.8364C43.5834 72.8433 43.5025 72.8579 43.2452 72.9043C43.1705 72.9184 43.0999 72.932 43.0333 72.9449C42.4327 73.0605 42.1543 73.114 42.0985 72.9625C42.0276 72.8005 42.0162 72.5106 42.0162 72.5106C41.9919 72.3461 41.8694 72.2614 41.7498 72.1786C41.6265 72.0933 41.5062 72.01 41.4998 71.8436L41.4922 71.5233C41.4922 71.5233 41.5985 71.2423 41.7593 71.2158C41.8652 71.2035 41.8468 71.2773 41.8564 71.2812C41.8617 71.2833 41.8755 71.264 41.9238 71.1968C42.0732 70.9943 42.02 70.6664 42.02 70.6664L41.6314 70.3867L41.6681 70.0627C41.6681 70.0627 41.6858 69.8614 41.9289 69.8019C42.0764 69.7668 42.0427 69.7579 42.0433 69.7532C42.0437 69.7498 42.0625 69.7487 42.1845 69.7412C42.3566 69.7305 42.4519 69.7576 42.5549 69.787C42.6224 69.8062 42.6931 69.8263 42.7908 69.8374C43.03 69.8614 43.1085 69.8614 43.2363 69.8019C43.3692 69.7234 43.6009 69.4614 43.6009 69.4614L43.8679 69.1982Z" fill="#9DACEB"/>
<path d="M120.374 498.188C176.211 474.884 182.654 311.329 113.57 298.645H172.391V520.092H3.73828V466.758C3.73828 466.758 42.3781 530.727 120.374 498.188Z" fill="#9DACEB"/>
<path d="M643 274.106C643 274.106 656.784 272.873 661.536 278.808C666.282 284.749 672.089 307.079 672.089 307.079C672.089 307.079 672.353 319.186 669.189 329.48C667.103 339.808 665.234 348.308 663.777 354.622C662.222 360.622 663.748 354.697 663.777 354.622C662.7 359.185 661.874 362.516 661.593 363.623L660.945 366.21L658.738 367.789C658.165 368.201 653.642 371.297 647.692 371.297C646.628 371.297 645.518 371.201 644.373 370.97L647.856 357.684C648.355 357.789 648.848 357.77 649.31 357.687C652.541 344.386 658.642 317.274 658.547 308.084C658.432 297.924 655.516 290.332 654.842 288.711L643 274.106Z" fill="#434244"/>
<path d="M810.265 531.421C810.265 535.504 675.95 538.815 510.263 538.815C344.575 538.815 210.26 535.504 210.26 531.421C210.26 527.338 344.575 524.026 510.263 524.026C675.95 524.026 810.265 527.338 810.265 531.421Z" fill="#B0BCED"/>
<path d="M514.266 515.534L509.842 509.832L560.879 471.446L565.303 477.15L514.266 515.534Z" fill="#373737"/>
<path d="M514.266 515.534L512.05 512.683L563.089 474.299L565.303 477.15L514.266 515.534Z" fill="#373737"/>
<path d="M520.238 514.687C520.238 520.172 515.791 524.616 510.315 524.616C504.827 524.616 500.381 520.172 500.381 514.687C500.381 509.208 504.827 504.759 510.315 504.759C515.791 504.759 520.238 509.203 520.238 514.687Z" fill="#434244"/>
<path d="M517.671 508.087C518.041 509.097 520.238 510.632 520.238 514.687C520.238 519.949 515.576 524.616 510.315 524.616C505.5 524.5 500.516 519.5 500.516 516.013C505.5 518.5 505.282 524.616 510.315 524.616C515.791 524.616 520.238 520.172 520.238 514.687C520.238 512.141 519.25 509.846 517.671 508.087Z" fill="#434244"/>
<path d="M622.718 515.534L627.145 509.832L576.115 471.445L571.684 477.15L622.718 515.534Z" fill="#373737"/>
<path d="M622.718 515.534L627.146 509.829L576.115 471.445L571.684 477.15L622.718 515.534Z" fill="#373737"/>
<path d="M573.5 519.045L566.5 519.045V492.137L573.5 492.137V519.045Z" fill="#373737"/>
<path d="M576.547 493.437H563.206V481.392H576.547V493.437Z" fill="#373737"/>
<path d="M576.548 493.437H571.67V481.392H576.548V493.437Z" fill="#373737"/>
<path d="M576.547 436.871H563.206V409.256H576.547V436.871Z" fill="#373737"/>
<path d="M576.548 436.871H571.67V409.256H576.548V436.871Z" fill="#373737"/>
<path d="M581.756 486.927H558.001V435.17H581.756V486.927Z" fill="#373737"/>
<path d="M581.5 486.928H581.755V435.171H581.5V486.928Z" fill="#373737"/>
<path d="M648.754 370.49C654.704 370.49 659.227 367.395 659.801 366.982L662.009 365.401L662.655 362.815C663.75 358.465 673.305 319.925 673.153 306.271C672.996 291.855 667.661 282.744 667.459 282.315L666.898 281.325L655.904 287.904C656.579 289.526 659.495 297.116 659.61 307.276C659.705 316.466 653.603 343.578 650.372 356.879C649.91 356.961 649.417 356.981 648.92 356.876L645.437 370.163C646.579 370.395 647.69 370.49 648.754 370.49Z" fill="#434244"/>
<path d="M644.062 273.298C644.062 273.298 653.285 278.583 658.038 284.518C662.783 290.459 665.556 309.717 665.556 309.717C665.556 309.717 661.995 320.143 658.83 330.437C655.657 340.726 655.657 354.585 658.434 360.124C661.194 365.649 664.809 353.889 664.838 353.814C663.761 358.377 662.936 361.708 662.655 362.815L662.008 365.402L659.801 366.981C659.226 367.393 654.704 370.49 648.754 370.49C647.69 370.49 646.579 370.393 645.436 370.161L648.92 356.876C649.417 356.981 649.91 356.962 650.372 356.879C653.603 343.578 659.705 316.466 659.61 307.276C659.495 297.116 656.578 289.524 655.904 287.903L644.062 273.298Z" fill="#434244"/>
<path d="M651.072 304.332C651.072 307.295 653.495 309.718 656.458 309.718H670.995C673.958 309.718 676.379 307.295 676.379 304.332V295.722C676.379 292.759 664.223 275.45 661.256 275.45L643.229 269.968L644.326 278.32C641.367 278.32 651.072 292.759 651.072 295.722V304.332Z" fill="#484F80"/>
<path d="M651.074 304.334V295.724C651.074 292.761 641.369 278.322 644.328 278.322L652.23 290.461C652.23 290.461 655.394 293.625 654.607 296.792C653.814 299.964 660.54 299.96 668.059 299.563C675.49 299.169 675.576 293.57 675.576 293.44C676.072 294.451 676.381 295.271 676.381 295.724V304.334C676.381 307.297 673.96 309.719 670.997 309.719H656.46C653.497 309.719 651.074 307.297 651.074 304.334Z" fill="#484F80"/>
<path d="M493.536 273.298C493.536 273.298 479.753 272.065 475 278C470.255 283.941 464.447 306.271 464.447 306.271C464.447 306.271 464.183 318.378 467.348 328.672C469.433 339 471.302 347.5 472.76 353.814C472.789 353.889 474.315 359.814 472.76 353.814C473.837 358.377 474.662 361.708 474.943 362.815L475.591 365.402L477.798 366.981C478.372 367.393 482.894 370.489 488.844 370.489C489.909 370.489 491.019 370.393 492.163 370.161L488.681 356.876C488.182 356.981 487.689 356.962 487.227 356.879C483.995 343.578 477.894 316.466 477.989 307.276C478.104 297.116 481.021 289.524 481.694 287.903L493.536 273.298Z" fill="#434244"/>
<path d="M486.525 304.332C486.525 307.295 484.103 309.718 481.141 309.718H466.603C463.64 309.718 461.219 307.295 461.219 304.332V295.722C461.219 292.759 473.375 275.45 476.342 275.45L494.37 269.968L493.273 278.32C496.231 278.32 486.525 292.5 486.525 295.722V304.332Z" fill="#484F80"/>
<path d="M651.021 396.165C649.794 404.853 640.857 411.768 631.122 411.768H505.544C495.816 411.768 486.875 404.853 485.65 396.165L481.367 365.812C479.959 355.898 487.636 347.551 498.459 347.551H638.207C649.039 347.551 656.71 355.898 655.313 365.814L651.021 396.165Z" fill="#484F80"/>
<path d="M638.207 347.551H596.382C636.391 349.887 647.067 375.216 635.731 391.897C624.391 408.569 560.375 400.561 527.696 400.561C495.021 400.561 483.096 378.068 483.096 378.068L485.65 396.165C486.875 404.853 495.815 411.768 505.543 411.768H631.121C640.856 411.768 649.793 404.853 651.02 396.165L655.312 365.816C656.709 355.9 649.039 347.551 638.207 347.551Z" fill="#3E446D"/>
<path d="M645.227 330.392C645.227 339.685 637.622 347.288 628.329 347.288H508.346C499.05 347.288 491.445 339.685 491.445 330.392V225.614C491.445 216.32 499.05 208.716 508.346 208.716H628.329C637.622 208.716 645.227 216.32 645.227 225.614V330.392Z" fill="#484F80"/>
<path d="M508.346 347.288H628.329C637.622 347.288 645.227 339.685 645.227 330.392V225.614C645.227 216.32 637.622 208.716 628.329 208.716H576.91C576.601 208.984 576.391 209.173 576.391 209.173C624.151 226.611 664.414 327.877 584.393 335.209C504.372 342.544 491.445 309.2 491.445 309.2V330.392C491.445 339.685 499.05 347.288 508.346 347.288Z" fill="#3E446D"/>
<path d="M608.048 191.733C608.048 201.028 600.444 208.636 591.151 208.636H545.522C536.229 208.636 528.623 201.028 528.623 191.733V164.696C528.623 155.399 536.229 147.798 545.522 147.798H591.151C600.444 147.798 608.048 155.399 608.048 164.696V191.733Z" fill="#484F80"/>
<path d="M545.75 208.634H591.381C600.674 208.634 608.278 201.027 608.278 191.731V164.696C608.278 155.399 600.674 147.799 591.381 147.799H575.28C604.622 158.443 608.278 191.732 573.946 199.833C539.619 207.935 528.853 185.829 528.853 185.829V191.731C528.853 201.027 536.456 208.634 545.75 208.634Z" fill="#3E446D"/>
<path d="M421.036 321.042C421.036 323.124 419.331 324.829 417.25 324.829H286.996C284.914 324.829 283.209 323.124 283.209 321.042V239.796C283.209 237.714 284.914 236.009 286.996 236.009H417.25C419.331 236.009 421.036 237.714 421.036 239.796V321.042Z" fill="#343131"/>
<path d="M281.228 321.99V328.616C281.228 330.699 282.652 332.403 284.391 332.403H419.857C421.595 332.403 423.019 330.699 423.019 328.616V321.99H281.228Z" fill="#434244"/>
<path d="M281.228 328.616C281.228 330.699 282.652 332.403 284.391 332.403H419.857C421.595 332.403 423.019 330.699 423.019 328.616V327.985H281.228V328.616Z" fill="#434244"/>
<path d="M421.036 239.49V321.991H283.209L421.036 239.49Z" fill="#515050"/>
<path d="M247.424 533.089H233.069L294.041 350.372H314.388L247.424 533.089Z" fill="#0E0C50"/>
<path d="M756.803 533.089H771.156L710.188 350.372H689.843L756.803 533.089Z" fill="#0E0C50"/>
<path d="M802.223 350.924L202 351.029V332.253L802.223 332.149V350.924Z" fill="white"/>
<path d="M802.223 350.926L202 351.031V345.151L802.223 345.046V350.926Z" fill="#868686"/>
<path d="M580 522.5C580 527.984 575.554 532.429 570.077 532.429C564.589 532.429 560.143 527.984 560.143 522.5C560.143 517.021 564.589 512.571 570.077 512.571C575.554 512.571 580 517.016 580 522.5Z" fill="#434244"/>
<path d="M637.105 515.534C637.105 521.019 632.658 525.463 627.182 525.463C621.693 525.463 617.248 521.019 617.248 515.534C617.248 510.055 621.693 505.606 627.182 505.606C632.658 505.606 637.105 510.05 637.105 515.534Z" fill="#434244"/>
<path d="M657.229 309.718C654.267 309.718 651.845 307.295 651.845 304.332V295.722C651.845 293.458 647.052 285.782 645.229 281.419V270.341L662.029 275.45C664.995 275.45 677.151 292.759 677.151 295.722V304.332C677.151 307.295 674.73 309.718 671.767 309.718H657.229Z" fill="#484F80"/>
</svg>
