<svg width="514" height="570" viewBox="0 0 514 570" fill="none" xmlns="http://www.w3.org/2000/svg">
<path d="M245.294 168.53C225.612 168.53 209.656 184.528 209.656 204.261C209.656 223.995 225.612 239.991 245.294 239.991C264.975 239.991 280.931 223.995 280.931 204.261C280.931 184.528 264.975 168.53 245.294 168.53Z" fill="#484F80"/>
<path d="M263.589 189.369C262.475 188.304 260.723 188.304 259.609 189.369C252.048 195.415 245.256 202.371 239.387 210.079C237.945 207.283 236.505 204.49 235.064 201.696C233.4 198.469 228.543 201.32 230.206 204.543C232.313 208.631 234.421 212.72 236.527 216.808C237.347 218.153 239.099 218.578 240.442 217.756C240.826 217.521 241.151 217.195 241.387 216.808C247.64 207.977 255.117 200.078 263.589 193.357C264.677 192.253 264.677 190.474 263.589 189.369Z" fill="white"/>
<path d="M130.029 277.498L91.1826 216.332L136.165 192.179L147.972 238.845L231.156 283.914C240.503 280.541 250.807 285.404 254.171 294.775C257.535 304.147 252.685 314.478 243.338 317.852C234.565 321.016 224.833 316.935 220.922 308.449L130.029 277.498Z" fill="#FFB8B8"/>
<path d="M152.703 236.274C144.336 237.342 129.284 261.326 119.669 269.936L104.922 132.1C113.853 137.465 120.839 145.797 124.498 155.884C134.348 181.548 141.607 201.64 141.607 201.64C141.607 201.64 157.487 235.662 152.703 236.274Z" fill="#3E3C55"/>
<path d="M37.0958 341.312L157.093 338.306L173.938 382.149L178.766 400.383V405.528C177.982 407.317 177.624 409.264 177.719 411.215C177.719 415.006 178.98 542.643 178.98 542.643L180.37 569.311H138.647C138.646 568.403 138.646 567.917 138.646 567.917L102.094 444.072L87.1045 569.311H46.2008C45.6828 562.182 45.3743 557.808 45.3743 557.808L32.7695 485.774C32.7695 485.774 36.5508 476.929 38.1696 475.307C39.7871 473.685 26.4677 459.237 28.9895 450.39C31.5099 441.543 28.9895 441.543 23.9473 436.491C18.9051 431.435 21.4269 412.477 21.4269 412.477C13.9591 380.587 14.3049 353.725 37.0958 341.312Z" fill="#2E2D41"/>
<path d="M103.65 112.84C111.682 117.628 116.488 126.427 119.246 135.378C124.353 151.952 127.427 169.085 128.399 186.405L131.313 238.252L167.394 348.651C136.123 375.18 18.5821 354.681 18.5821 354.681C18.5821 354.681 14.9743 353.474 18.5821 349.856C22.1899 346.239 25.7028 349.443 22.095 345.826C18.4872 342.209 20.9751 346.239 22.1777 342.622C23.3789 339.005 22.1777 341.416 20.9751 340.209C19.7711 339.005 30.2853 328.15 30.2853 328.15L20.6633 264.781L8.63598 136.959C23.0684 118.872 52.0947 108.208 52.0947 108.208L59.5936 94.6725L97.0936 97.6808L103.65 112.84Z" fill="#3E3C55"/>
<path d="M85.0076 13.37C105.599 13.37 120.186 30.7145 122.292 50.7523C123.512 56.8869 118.621 65.2149 118.187 74.3333C118.147 75.173 118.03 76.0112 117.762 76.8081C115.273 84.2167 111.779 90.7402 107.332 93.8015C101.336 97.9293 89.7427 92.4447 82.301 89.053C62.0056 82.9478 47.7232 71.3982 47.7232 50.7523C47.7232 30.1064 64.4158 13.37 85.0076 13.37Z" fill="#FFB8B8"/>
<path d="M59.2997 95.1579L60.6527 79.5558V78.1991L94.4785 85.661L97.1846 97.8713L59.2997 95.1579Z" fill="#FFB8B8"/>
<path d="M114.774 31.3928C117.671 33.5596 119.093 37.4343 120.186 40.8898C120.606 35.2444 121.23 27.8394 120.862 22.1899C120.423 18.2192 117.636 17.3275 114.409 16.2916C111.493 15.3578 108.197 14.3015 107.31 10.4478C95.5891 -0.983056 75.187 -0.40669 61.225 3.5803C53.5417 5.77431 49.1205 8.59361 48.7259 10.2452L48.6432 10.5851L48.3314 10.7414C42.4093 13.7102 41.2569 23.0857 41.3328 30.4276C41.4778 44.2604 46.2408 59.9705 48.9239 61.2469C49.0662 61.3149 49.1029 61.2877 49.1639 61.2361C53.2041 57.9994 58.1338 61.4835 60.3004 63.377C62.9306 45.685 77.26 32.0738 95.0223 30.3991C97.841 30.1258 100.637 29.6555 103.39 28.9921C104.787 28.6305 106.223 28.4402 107.665 28.4293C110.149 28.3913 112.713 30.0022 114.774 31.3928Z" fill="#2E2D41"/>
<path d="M327.888 352.078L376.839 286.208C376.839 286.208 378.125 282.339 380.317 276.465V334.374L347.2 368.091C346.417 372.787 343.389 376.801 339.095 378.834C331.86 382.26 323.222 379.155 319.807 371.9C316.391 364.645 319.487 355.988 326.722 352.561C327.107 352.379 327.497 352.224 327.888 352.078Z" fill="#EDA885"/>
<path d="M485.887 438.592C491.924 410.748 489.51 381.692 489.51 381.692L348.241 373.22L343.159 387.141L340.392 395.234L338.465 399.481L333.752 414.379L318.054 514.858L322.549 569.311H368.859L368.766 566.914C368.766 566.914 374.804 563.283 377.22 563.283C379.633 563.283 376.016 539.676 376.016 539.676L380.841 536.65L377.22 524.542L415.857 438.592L421.418 569.311H477.725L479.851 544.851C479.851 544.851 479.851 466.435 485.887 438.592Z" fill="#2C3151"/>
<path d="M478.064 384.071L490.241 384.815C496.275 376.345 495.946 367.66 493.895 360.507C491.02 350.483 486.851 340.888 485.505 330.547L484.438 321.623C483.802 316.314 484.173 310.933 485.53 305.761L486.859 300.7L489.565 288.489L492.271 279.671L499.036 245.074L511.89 200.303C517.278 178.642 503.726 160.68 487.535 145.356L483.34 142.577C479.349 139.934 475.918 136.531 473.243 132.563L457.568 109.309H425.756L414.85 129.966C393.027 135.023 377.929 154.997 378.975 177.429L381.447 231.607L378.975 288.489L374.557 304.77L367.792 323.764L366.678 327.115C365.174 331.638 362.985 335.902 360.187 339.761C359.395 340.853 358.682 342 358.053 343.193L351.301 356.012C349.786 358.017 342.084 372.344 342.084 375.997C342.084 376.546 343.246 378.12 344.114 378.71C350.925 383.335 383.156 384.071 402.196 384.071C421.237 384.071 473.294 383.962 474.005 384.071H478.064Z" fill="#3E446D"/>
<path d="M437.554 15.3777C460.822 15.3777 479.684 34.2918 479.684 57.6211C479.684 80.949 460.741 98.5499 437.473 98.5499C429.512 98.5499 416.086 106.467 409.736 102.62C400.412 96.9723 398.659 81.3067 397.558 68.024C397.217 63.9097 394.176 61.4782 394.176 57.8487C394.176 34.5194 414.286 15.3777 437.554 15.3777Z" fill="#EDA885"/>
<path d="M428.002 98.5499L425.973 109.404H457.769L456.416 96.5149L428.002 98.5499Z" fill="#EDA885"/>
<path d="M410.412 120.935L421.913 109.403L457.768 106.011L463.18 116.186L410.412 120.935Z" fill="#F1F1FF"/>
<path d="M435.814 101.601C442.338 101.534 446.548 99.8525 452.968 98.6753C459.321 97.2058 473.341 86.3377 477.162 79.9161C480.001 75.1448 481.706 67.7662 482.636 62.4158C485.174 48.0963 481.537 33.3704 472.631 21.8934C470.932 19.5145 468.626 17.6413 465.952 16.4695C465.715 16.3839 465.472 16.3091 465.228 16.2466C461.353 15.3304 457.839 13.2737 455.139 10.3429C454.616 9.74887 454.049 9.19289 453.445 8.68178C450.416 6.24989 446.856 4.57109 443.054 3.78266C436.915 2.30504 428.132 4.15784 416.951 9.29485C411.334 11.8749 405.1 11.1544 400.295 10.2396C399.747 10.1472 399.19 10.3565 398.835 10.7847C396.85 12.7503 394.199 13.8895 391.41 13.9751C389.705 14.0947 387.972 16.5144 385.885 19.6627C385.414 20.3763 384.859 21.211 384.459 21.7194L384.38 20.7637L383.441 21.8553C378.613 27.4776 379.242 35.9613 384.85 40.8034C386.356 42.1043 388.132 43.0518 390.05 43.5792C391.782 43.9924 393.551 44.2303 395.327 44.2833C396.405 44.3527 397.518 44.4233 398.589 44.581C405.585 45.8303 411.412 50.6723 413.935 57.3318C414.99 60.0587 418.053 61.4126 420.773 60.355C421.2 60.1892 421.603 59.9662 421.971 59.6971C424.18 57.8783 427.138 57.2597 429.888 58.0387C431.065 58.6572 431.996 59.6604 432.523 60.8852C433.159 62.2459 434.187 63.3877 435.474 64.1612C439.861 66.2859 440.413 76.1915 439.071 84.4958C437.777 92.5011 435.443 97.8705 432.737 99.2272C430.707 100.584 430.173 100.884 430.031 101.262L429.902 101.601L430.147 101.909C431.324 102.304 434.58 101.734 435.814 101.601Z" fill="#EBED74"/>
<path d="M398.562 235.534L378.31 209.663C357.683 215.359 321.081 248.069 321.081 248.069L245.914 280.774C238.026 279.446 230.557 284.778 229.232 292.686C227.906 300.594 233.226 308.083 241.114 309.411C246.233 310.273 251.42 308.324 254.71 304.3L353.178 276.757L398.562 235.534Z" fill="#EDA885"/>
<path d="M355.614 277.635L427.438 208.443V180.429C428.111 170.292 422.988 160.652 414.222 155.555C402.089 148.612 386.662 152.278 378.929 163.944C367.638 181.005 343.437 222.688 321.788 247.787L253.46 277.635L259.549 306.126L355.614 277.635Z" fill="#3E446D"/>
<path d="M99.1976 375.685L16.1496 333.042C10.2424 330.008 8.2846 321.963 11.788 315.107L65.9372 209.099C69.4392 202.242 77.094 199.133 83.0012 202.166L166.051 244.81C171.958 247.844 173.914 255.89 170.412 262.746L116.262 368.752C112.76 375.609 105.105 378.718 99.1976 375.685Z" fill="#E6E6E6"/>
<path d="M85.0079 356.08L28.5837 327.107C23.0507 324.266 21.2176 316.731 24.4986 310.309L69.484 222.24C72.765 215.819 79.9345 212.907 85.4661 215.748L153.615 250.742C159.148 253.583 160.981 261.117 157.7 267.538L133.262 315.382C118.652 343.984 109.652 368.734 85.0079 356.08Z" fill="white"/>
<path d="M112.906 307.988L62.9287 282.326C61.5241 281.32 61.196 279.364 62.1979 277.954C62.9978 276.827 64.4417 276.359 65.7487 276.805L115.725 302.467C117.131 303.472 117.459 305.429 116.457 306.839C115.656 307.966 114.213 308.433 112.906 307.988Z" fill="#484F80"/>
<path d="M83.3932 320.363L51.7882 304.135C50.3823 303.129 50.0542 301.173 51.0547 299.763C51.856 298.636 53.3013 298.169 54.6083 298.613L86.2119 314.843C87.6179 315.847 87.946 317.805 86.9454 319.214C86.1441 320.341 84.7002 320.809 83.3932 320.363Z" fill="#484F80"/>
<path d="M132.683 269.27L82.7074 243.608C81.3015 242.602 80.9734 240.646 81.9753 239.236C82.7752 238.109 84.2191 237.641 85.5261 238.087L135.504 263.749C136.908 264.754 137.236 266.711 136.234 268.121C135.433 269.248 133.99 269.714 132.683 269.27Z" fill="#484F80"/>
<path d="M88.5408 260.369L77.1358 254.513C75.7299 253.508 75.4031 251.551 76.4037 250.141C77.205 249.014 78.6489 248.548 79.9545 248.992L91.3608 254.848C92.7668 255.853 93.0936 257.811 92.0916 259.22C91.2903 260.347 89.8478 260.815 88.5408 260.369Z" fill="#484F80"/>
<path d="M103.171 281.644L71.5659 265.415C70.16 264.41 69.8319 262.454 70.8338 261.045C71.6351 259.918 73.079 259.45 74.386 259.895L105.991 276.125C107.397 277.13 107.724 279.087 106.722 280.497C105.92 281.624 104.478 282.09 103.171 281.644Z" fill="#484F80"/>
<path d="M30.3812 283.395L11.6183 213.365L61.7544 203.848L59.0604 251.917L124.933 319.925C134.859 319.518 143.234 327.256 143.64 337.207C144.046 347.158 136.329 355.555 126.403 355.962C117.087 356.343 109.023 349.523 107.83 340.251L30.3812 283.395Z" fill="#FFB8B8"/>
<path d="M6.48753 134.846C-10.5304 148.316 11.3128 223.662 11.3128 223.662C14.6942 219.942 18.6233 274.937 22.7571 273.065C34.5064 267.744 56.0378 249.391 64.3394 250.886C69.0874 251.741 64.113 214.51 64.113 214.51C64.113 214.51 63.1992 193.161 61.48 165.717C60.7831 149.928 52.0667 135.599 38.384 127.75C38.384 127.75 23.5055 121.376 6.48753 134.846Z" fill="#3E3C55"/>
<path d="M289.653 438.834L244.333 417.378C242.369 416.452 240.936 414.678 240.443 412.561C239.945 410.487 240.418 408.303 241.732 406.627C254.86 389.806 263.875 370.134 268.054 349.19C268.704 345.881 271.596 343.497 274.957 343.493C298.071 343.572 315.345 352.034 326.299 368.64C327.469 370.388 327.81 372.564 327.233 374.588C320.89 396.505 311.237 417.322 298.612 436.313C296.676 439.28 292.848 440.358 289.653 438.834Z" fill="#E6E6E6"/>
<path d="M302.985 408.739L268.334 392.334C266.539 391.485 265.77 389.337 266.617 387.536C267.465 385.736 269.608 384.966 271.403 385.816L306.055 402.221C307.85 403.072 308.619 405.22 307.771 407.019C306.922 408.82 304.78 409.59 302.985 408.739Z" fill="white"/>
<path d="M308.368 397.31L273.715 380.904C271.921 380.055 271.153 377.907 272.001 376.106C272.849 374.306 274.991 373.536 276.786 374.386L311.438 390.792C313.233 391.642 314 393.79 313.153 395.589C312.305 397.39 310.163 398.16 308.368 397.31Z" fill="white"/>
</svg>
