<svg width="1440" height="1296" viewBox="0 0 1440 1296" fill="none" xmlns="http://www.w3.org/2000/svg">
<path d="M577.959 843.297C451.204 629.649 309 580.853 0.00012207 675V590.122C203.235 565.14 399.995 543.287 524.984 710.205C655.161 884.051 656.053 1031.51 865.644 1138.5C951.899 1182.53 1087.37 1198.12 1440 1208.94V1296C1330.41 1254.97 1087.27 1250.73 984.372 1223.14C881.478 1195.56 807.26 1141.67 751.991 1089.47C696.722 1037.27 649.5 963.88 577.959 843.297Z" fill="#CAC9F0"/>
<path d="M739 453.5C863.911 667 981.881 691.967 1440 627.836V706.836C1239.72 731.801 914.375 753.302 791.205 586.5C662.922 412.774 662.043 265.416 455.5 158.5C370.5 114.5 347.5 101.283 0 90.47V0.282715C108 41.2827 237.103 46.3488 338.5 73.9153C439.897 101.482 513.035 155.334 567.5 207.5C621.965 259.666 668.5 333 739 453.5Z" fill="#CAC9F0"/>
</svg>
