<svg width="117" height="117" viewBox="0 0 117 117" fill="none" xmlns="http://www.w3.org/2000/svg">
<rect x="0.214355" y="0.984375" width="116" height="116" rx="18" fill="#F1F1FF"/>
<path d="M13.2144 96.2563L13.2144 94.0147L104.001 94.0147V96.2563L13.2144 96.2563Z" fill="#0E0C50"/>
<path d="M16.4253 91.1538C16.4253 86.909 26.874 86.5824 26.874 91.6435C26.874 96.7046 26.874 94.419 26.874 98.9903C26.874 103.562 16.4253 104.051 16.4253 98.9903C16.4253 93.9292 16.4253 95.3985 16.4253 91.1538Z" fill="#0E0C50"/>
<path d="M29.6596 91.1538C29.6596 86.909 40.1083 86.5825 40.1083 91.6435C40.1083 96.7046 40.1083 94.419 40.1083 98.9903C40.1083 103.562 29.6596 104.051 29.6596 98.9903C29.6596 93.9292 29.6596 95.3985 29.6596 91.1538Z" fill="#A4A3C2"/>
<path d="M13.3179 24.3396L13.3179 22.098L104.104 22.098V24.3396L13.3179 24.3396Z" fill="#0E0C50"/>
<path d="M77.271 19.2294C77.271 14.9847 87.7197 14.6581 87.7197 19.7192C87.7197 24.7803 87.7197 22.4946 87.7197 27.066C87.7197 31.6373 77.271 32.127 77.271 27.066C77.271 22.0049 77.271 23.4742 77.271 19.2294Z" fill="#0E0C50"/>
<path d="M90.5073 19.2294C90.5073 14.9847 100.956 14.6581 100.956 19.7192C100.956 24.7803 100.956 22.4946 100.956 27.066C100.956 31.6373 90.5073 32.127 90.5073 27.066C90.5073 22.0049 90.5073 23.4742 90.5073 19.2294Z" fill="#A4A3C2"/>
<path d="M64.0366 19.2294C64.0366 14.9847 74.4853 14.6581 74.4853 19.7192C74.4853 24.7803 74.4853 22.4946 74.4853 27.066C74.4853 31.6373 64.0366 32.127 64.0366 27.066C64.0366 22.0049 64.0366 23.4742 64.0366 19.2294Z" fill="#A4A3C2"/>
<path d="M38.1496 56.1181C38.6201 56.0299 39.4728 55.9417 40.7077 55.8534C41.9721 55.7358 43.0453 55.677 43.9274 55.677C47.6322 55.677 50.4255 56.5003 52.3073 58.1469C54.2185 59.7935 55.1741 62.1457 55.1741 65.2037C55.1741 68.6145 54.1009 71.2314 51.9545 73.0544C49.8375 74.8774 47.0147 75.7889 43.4863 75.7889L40.6195 75.6566C37.9144 75.5095 36.3854 75.436 36.0326 75.436H29.064V73.2749L33.4745 72.8338V45.4006L29.1081 44.8713V42.6661H52.8807L53.3217 50.9578H50.3226L48.9554 45.3124L38.1496 44.9595V56.1181ZM38.1496 72.9662C38.2967 72.9956 38.723 73.0691 39.4287 73.1867C40.1638 73.3043 41.1929 73.3631 42.516 73.3631C45.0447 73.3631 46.9559 72.6868 48.2497 71.3343C49.5728 69.9817 50.2344 68.0411 50.2344 65.5124C50.2344 60.6903 47.691 58.2792 42.6042 58.2792C41.7516 58.2792 40.8842 58.3086 40.0021 58.3674C39.1494 58.4262 38.5319 58.485 38.1496 58.5438V72.9662Z" fill="#0E0C50"/>
<path d="M76.3996 75.9212C73.1653 75.9212 70.4014 75.2302 68.1079 73.8483C65.8439 72.4369 64.1238 70.4669 62.9476 67.9382C61.7715 65.4095 61.1834 62.4398 61.1834 59.029C61.1834 55.7358 61.8744 52.8249 63.2564 50.2962C64.6383 47.7675 66.5348 45.8122 68.9459 44.4303C71.357 43.0189 74.0621 42.3132 77.0612 42.3132C79.3253 42.3132 82.0451 42.6661 85.2206 43.3717L86.6761 43.6364L86.235 51.5753H83.28L82.1774 45.9739C81.7657 45.6211 81.0454 45.3271 80.0163 45.0918C79.0165 44.8272 77.7816 44.6949 76.3114 44.6949C74.4296 44.6949 72.7536 45.2389 71.2835 46.3268C69.8133 47.3853 68.6519 48.9584 67.7992 51.046C66.9759 53.1336 66.5642 55.6329 66.5642 58.5438C66.5642 61.3078 66.9318 63.8217 67.6669 66.0858C68.402 68.3498 69.5193 70.1581 71.0188 71.5107C72.5184 72.8338 74.3708 73.4954 76.5761 73.4954C78.1344 73.4954 79.3253 73.3631 80.1486 73.0985C81.0013 72.8338 81.7216 72.4516 82.3097 71.9517L84.1621 67.6295L86.9407 67.9823L85.8822 74.2452C85.2647 74.2746 84.3532 74.4804 83.1477 74.8627C82.0892 75.1861 81.0601 75.436 80.0604 75.6125C79.09 75.8183 77.8698 75.9212 76.3996 75.9212Z" fill="#0E0C50"/>
</svg>
