<svg width="274" height="88" viewBox="0 0 274 88" fill="none" xmlns="http://www.w3.org/2000/svg">
<path d="M0.808594 81.2109L0.808594 78.9693L91.5948 78.9693V81.2109L0.808594 81.2109Z" fill="#0E0C50"/>
<path d="M4.01956 76.1083C4.01957 71.8636 14.4683 71.537 14.4683 76.5981C14.4683 81.6592 14.4683 79.3736 14.4683 83.9449C14.4683 88.5162 4.01955 89.006 4.01956 83.9449C4.01956 78.8838 4.01955 80.3531 4.01956 76.1083Z" fill="#0E0C50"/>
<path d="M17.2538 76.1084C17.2538 71.8636 27.7025 71.5371 27.7025 76.5981C27.7025 81.6592 27.7025 79.3736 27.7025 83.9449C27.7025 88.5162 17.2538 89.006 17.2538 83.9449C17.2538 78.8838 17.2538 80.3531 17.2538 76.1084Z" fill="#A4A3C2"/>
<path d="M0.912109 9.2942L0.912109 7.05257L91.6983 7.05257V9.2942L0.912109 9.2942Z" fill="#0E0C50"/>
<path d="M64.8652 4.18403C64.8652 -0.0607095 75.3139 -0.387278 75.3139 4.6738C75.3139 9.73487 75.3139 7.44924 75.3139 12.0206C75.3139 16.5919 64.8652 17.0816 64.8652 12.0206C64.8652 6.95948 64.8652 8.42877 64.8652 4.18403Z" fill="#0E0C50"/>
<path d="M78.1015 4.18403C78.1016 -0.0607095 88.5502 -0.387278 88.5502 4.6738C88.5502 9.73487 88.5502 7.44924 88.5502 12.0206C88.5502 16.5919 78.1015 17.0816 78.1015 12.0206C78.1016 6.95948 78.1015 8.42877 78.1015 4.18403Z" fill="#A4A3C2"/>
<path d="M51.6308 4.18403C51.6308 -0.0607095 62.0795 -0.387278 62.0795 4.6738C62.0795 9.73487 62.0795 7.44924 62.0795 12.0206C62.0795 16.5919 51.6308 17.0816 51.6308 12.0206C51.6308 6.95948 51.6308 8.42877 51.6308 4.18403Z" fill="#A4A3C2"/>
<path d="M25.7439 41.0727C26.2143 40.9845 27.067 40.8962 28.302 40.808C29.5663 40.6904 30.6395 40.6316 31.5216 40.6316C35.2264 40.6316 38.0198 41.4549 39.9016 43.1015C41.8128 44.7481 42.7684 47.1003 42.7684 50.1583C42.7684 53.5691 41.6952 56.186 39.5487 58.009C37.4317 59.832 34.609 60.7435 31.0806 60.7435L28.2138 60.6111C25.5087 60.4641 23.9797 60.3906 23.6268 60.3906H16.6583V58.2295L21.0688 57.7884V30.3552L16.7024 29.8259V27.6207H40.4749L40.916 35.9124H37.9168L36.5496 30.267L25.7439 29.9141V41.0727ZM25.7439 57.9207C25.8909 57.9502 26.3172 58.0237 27.0229 58.1413C27.758 58.2589 28.7871 58.3177 30.1103 58.3177C32.639 58.3177 34.5502 57.6414 35.8439 56.2889C37.1671 54.9363 37.8286 52.9957 37.8286 50.467C37.8286 45.6449 35.2853 43.2338 30.1985 43.2338C29.3458 43.2338 28.4784 43.2632 27.5963 43.322C26.7436 43.3808 26.1261 43.4396 25.7439 43.4984V57.9207Z" fill="#0E0C50"/>
<path d="M63.9939 60.8758C60.7595 60.8758 57.9956 60.1848 55.7022 58.8028C53.4381 57.3915 51.718 55.4215 50.5419 52.8928C49.3657 50.3641 48.7777 47.3944 48.7777 43.9836C48.7777 40.6904 49.4687 37.7795 50.8506 35.2508C52.2326 32.7221 54.1291 30.7668 56.5401 29.3849C58.9512 27.9735 61.6563 27.2678 64.6555 27.2678C66.9195 27.2678 69.6393 27.6207 72.8149 28.3263L74.2703 28.591L73.8293 36.5299H70.8743L69.7716 30.9285C69.36 30.5757 68.6396 30.2817 67.6105 30.0464C66.6108 29.7818 65.3758 29.6495 63.9057 29.6495C62.0239 29.6495 60.3479 30.1934 58.8777 31.2814C57.4075 32.3399 56.2461 33.913 55.3934 36.0006C54.5701 38.0882 54.1585 40.5875 54.1585 43.4984C54.1585 46.2623 54.526 48.7763 55.2611 51.0404C55.9962 53.3044 57.1135 55.1127 58.6131 56.4653C60.1127 57.7884 61.9651 58.45 64.1703 58.45C65.7287 58.45 66.9195 58.3177 67.7428 58.0531C68.5955 57.7884 69.3159 57.4062 69.9039 56.9063L71.7564 52.5841L74.535 52.9369L73.4764 59.1998C72.859 59.2292 71.9475 59.435 70.7419 59.8173C69.6834 60.1407 68.6543 60.3906 67.6546 60.567C66.6843 60.7729 65.4641 60.8758 63.9939 60.8758Z" fill="#0E0C50"/>
<path d="M118.74 31.24C118.953 31.2 119.34 31.16 119.9 31.12C120.473 31.0667 120.96 31.04 121.36 31.04C123.04 31.04 124.307 31.4133 125.16 32.16C126.027 32.9067 126.46 33.9733 126.46 35.36C126.46 36.9067 125.973 38.0933 125 38.92C124.04 39.7467 122.76 40.16 121.16 40.16L119.86 40.1C118.633 40.0333 117.94 40 117.78 40H114.62V39.02L116.62 38.82V26.38L114.64 26.14V25.14H125.42L125.62 28.9H124.26L123.64 26.34L118.74 26.18V31.24ZM118.74 38.88C118.807 38.8933 119 38.9267 119.32 38.98C119.653 39.0333 120.12 39.06 120.72 39.06C121.867 39.06 122.733 38.7533 123.32 38.14C123.92 37.5267 124.22 36.6467 124.22 35.5C124.22 33.3133 123.067 32.22 120.76 32.22C120.373 32.22 119.98 32.2333 119.58 32.26C119.193 32.2867 118.913 32.3133 118.74 32.34V38.88Z" fill="#0E0C50"/>
<path d="M130.245 44.98C130.018 44.98 129.792 44.9667 129.565 44.94C129.352 44.9133 129.198 44.8733 129.105 44.82V43.08C129.185 43.1333 129.338 43.1733 129.565 43.2C129.805 43.2267 130.032 43.24 130.245 43.24C130.885 43.24 131.445 43.0133 131.925 42.56C132.418 42.12 132.892 41.2667 133.345 40H132.385L128.585 30.1L127.665 29.84V28.9H132.485V29.84L130.945 30.08L132.905 35.98L133.825 38.9L134.685 35.96L136.465 30.08L135.125 29.84V28.9H139.145V29.84L138.145 30.08C136.185 36.08 135.032 39.4867 134.685 40.3C134.232 41.4467 133.818 42.34 133.445 42.98C133.072 43.6333 132.632 44.1267 132.125 44.46C131.618 44.8067 130.992 44.98 130.245 44.98Z" fill="#0E0C50"/>
<path d="M144.65 34.46L141.27 30.08L140.15 29.84V28.9H145.23V29.84L143.83 30.08L145.65 32.66L146.21 33.52L146.75 32.66L148.65 30.08L147.19 29.84V28.9H151.41V29.84L150.21 30.08L146.89 34.22L150.43 38.86L151.59 39.04V40H146.45V39.04L147.77 38.84L145.95 36.14L145.35 35.24L144.81 36.12L142.89 38.84L144.55 39.04V40H139.89V39.04L141.23 38.84L144.65 34.46Z" fill="#0E0C50"/>
<path d="M161.805 28.9L161.905 33.06H160.645L160.145 30.1L156.765 30V38.84L159.485 39.02V40H153.105V39.02L154.685 38.84V30.16L153.145 29.88V28.9H161.805Z" fill="#0E0C50"/>
<path d="M163.863 37C163.863 35.7467 164.489 34.8267 165.743 34.24C166.996 33.64 168.583 33.32 170.503 33.28V32.72C170.503 32.0933 170.436 31.6 170.303 31.24C170.169 30.88 169.936 30.62 169.603 30.46C169.283 30.2867 168.823 30.2 168.223 30.2C167.543 30.2 166.929 30.3 166.383 30.5C165.849 30.6867 165.316 30.92 164.783 31.2L164.283 30.16C164.456 30.0133 164.776 29.82 165.243 29.58C165.709 29.34 166.249 29.1267 166.863 28.94C167.476 28.7533 168.089 28.66 168.702 28.66C169.649 28.66 170.396 28.7933 170.943 29.06C171.503 29.3133 171.902 29.7267 172.143 30.3C172.383 30.8733 172.503 31.64 172.503 32.6V39.02H173.682V39.9C173.416 39.9667 173.076 40.0333 172.663 40.1C172.263 40.1667 171.909 40.2 171.603 40.2C171.229 40.2 170.976 40.14 170.842 40.02C170.709 39.9133 170.643 39.6667 170.643 39.28V38.62C170.243 39.02 169.749 39.3867 169.163 39.72C168.589 40.0533 167.936 40.22 167.202 40.22C166.242 40.22 165.443 39.9467 164.803 39.4C164.176 38.84 163.863 38.04 163.863 37ZM168.062 38.86C168.409 38.86 168.809 38.7533 169.262 38.54C169.716 38.3267 170.129 38.0733 170.503 37.78V34.34C169.049 34.34 167.949 34.5667 167.202 35.02C166.469 35.46 166.103 36.04 166.103 36.76C166.103 37.48 166.276 38.0133 166.622 38.36C166.982 38.6933 167.462 38.86 168.062 38.86Z" fill="#0E0C50"/>
<path d="M179.293 31.14C179.293 32.98 179.187 34.56 178.973 35.88C178.76 37.1867 178.5 38.1467 178.193 38.76C177.993 39.2133 177.733 39.5533 177.413 39.78C177.093 40.0067 176.627 40.12 176.013 40.12C175.773 40.12 175.453 40.08 175.053 40L174.933 38.32C175.24 38.3867 175.693 38.42 176.293 38.42C176.853 38.42 177.3 37.68 177.633 36.2C177.967 34.72 178.14 32.7067 178.153 30.16L176.333 29.88V28.9H186.533V29.9L184.793 30.2V38.84L186.473 39.02V40H181.173V39.02L182.733 38.84V30.1H179.293V31.14Z" fill="#0E0C50"/>
<path d="M199.554 28.9L199.674 33.12H198.354L197.814 30.1L195.154 30V38.82L197.874 39.02V40H190.374V39.02L193.074 38.82V30L190.374 30.1L189.834 33.12H188.514L188.634 28.9H199.554Z" fill="#0E0C50"/>
<path d="M206.793 40.22C205.18 40.22 203.947 39.6933 203.093 38.64C202.253 37.5867 201.833 36.18 201.833 34.42C201.833 33.26 202.053 32.24 202.493 31.36C202.933 30.48 203.547 29.8 204.333 29.32C205.133 28.84 206.04 28.6 207.053 28.6C208.293 28.6 209.253 28.9467 209.933 29.64C210.627 30.32 210.993 31.3 211.033 32.58C211.033 33.3933 210.987 34.0133 210.893 34.44H204.013C204.04 35.76 204.347 36.8267 204.933 37.64C205.52 38.44 206.353 38.84 207.433 38.84C207.967 38.84 208.52 38.7467 209.093 38.56C209.68 38.36 210.133 38.1267 210.453 37.86L210.833 38.74C210.447 39.14 209.873 39.4867 209.113 39.78C208.353 40.0733 207.58 40.22 206.793 40.22ZM208.833 33.38C208.873 33.1 208.893 32.8133 208.893 32.52C208.88 31.6533 208.693 30.9733 208.333 30.48C207.987 29.9733 207.433 29.72 206.673 29.72C205.9 29.72 205.28 30 204.813 30.56C204.36 31.12 204.1 32.06 204.033 33.38H208.833Z" fill="#0E0C50"/>
<path d="M224.172 34.06C224.172 35.1933 223.939 36.2333 223.472 37.18C223.006 38.1133 222.339 38.8533 221.472 39.4C220.606 39.9467 219.592 40.22 218.432 40.22C218.112 40.22 217.766 40.1933 217.392 40.14C217.019 40.0867 216.719 40.02 216.492 39.94L216.552 41.62V43.64L218.632 43.86V44.84H213.052V43.86L214.492 43.64V30.44L213.032 30.08V29L215.872 28.64H215.912L216.332 29V30.18C216.732 29.74 217.226 29.3667 217.812 29.06C218.412 28.7533 219.079 28.6 219.812 28.6C220.599 28.6 221.319 28.7933 221.972 29.18C222.639 29.5667 223.172 30.1667 223.572 30.98C223.972 31.7933 224.172 32.82 224.172 34.06ZM218.992 30C218.486 30 218.012 30.1067 217.572 30.32C217.132 30.5333 216.792 30.7667 216.552 31.02V38.56C216.646 38.72 216.879 38.8667 217.252 39C217.639 39.12 218.059 39.18 218.512 39.18C219.539 39.18 220.366 38.7733 220.992 37.96C221.632 37.1467 221.952 35.92 221.952 34.28C221.952 32.84 221.672 31.7667 221.112 31.06C220.566 30.3533 219.859 30 218.992 30Z" fill="#0E0C50"/>
<path d="M226.271 34.52C226.271 33.4133 226.484 32.4133 226.911 31.52C227.351 30.6267 227.991 29.92 228.831 29.4C229.684 28.8667 230.704 28.6 231.891 28.6C232.464 28.6 232.958 28.6533 233.371 28.76C233.784 28.8667 234.278 29.0133 234.851 29.2L234.771 32.28H233.471L233.031 30.24C232.951 29.8667 232.444 29.68 231.511 29.68C230.578 29.68 229.838 30.06 229.291 30.82C228.758 31.5667 228.491 32.6333 228.491 34.02C228.491 35.5933 228.791 36.7933 229.391 37.62C230.004 38.4333 230.798 38.84 231.771 38.84C232.331 38.84 232.858 38.7533 233.351 38.58C233.858 38.4067 234.291 38.2 234.651 37.96L235.031 38.76C234.671 39.1333 234.138 39.4733 233.431 39.78C232.738 40.0733 232.031 40.22 231.311 40.22C230.218 40.22 229.291 39.9733 228.531 39.48C227.784 38.9867 227.218 38.3133 226.831 37.46C226.458 36.5933 226.271 35.6133 226.271 34.52Z" fill="#0E0C50"/>
<path d="M244.205 33.94C244.698 34.1667 245.152 34.5333 245.565 35.04C245.978 35.5467 246.452 36.2133 246.985 37.04C247.332 37.5867 247.618 38.0067 247.845 38.3C248.072 38.58 248.278 38.7467 248.465 38.8L249.245 39V40H247.145C246.785 40 246.432 39.78 246.085 39.34C245.738 38.9 245.325 38.2533 244.845 37.4C244.338 36.5067 243.905 35.8333 243.545 35.38C243.185 34.9267 242.805 34.7 242.405 34.7H240.945V38.84L242.685 39.02V40H237.385V39.02L238.905 38.84V30.16L237.405 29.88V28.9H242.525V29.88L240.945 30.16V33.74H242.965L245.625 30.16L244.105 29.88V28.9H248.765V29.88L247.285 30.16L244.205 33.94Z" fill="#0E0C50"/>
<path d="M250.777 37C250.777 35.7467 251.404 34.8267 252.657 34.24C253.911 33.64 255.497 33.32 257.417 33.28V32.72C257.417 32.0933 257.351 31.6 257.217 31.24C257.084 30.88 256.851 30.62 256.517 30.46C256.197 30.2867 255.737 30.2 255.137 30.2C254.457 30.2 253.844 30.3 253.297 30.5C252.764 30.6867 252.231 30.92 251.697 31.2L251.197 30.16C251.371 30.0133 251.691 29.82 252.157 29.58C252.624 29.34 253.164 29.1267 253.777 28.94C254.391 28.7533 255.004 28.66 255.617 28.66C256.564 28.66 257.311 28.7933 257.857 29.06C258.417 29.3133 258.817 29.7267 259.057 30.3C259.297 30.8733 259.417 31.64 259.417 32.6V39.02H260.597V39.9C260.331 39.9667 259.991 40.0333 259.577 40.1C259.177 40.1667 258.824 40.2 258.517 40.2C258.144 40.2 257.891 40.14 257.757 40.02C257.624 39.9133 257.557 39.6667 257.557 39.28V38.62C257.157 39.02 256.664 39.3867 256.077 39.72C255.504 40.0533 254.851 40.22 254.117 40.22C253.157 40.22 252.357 39.9467 251.717 39.4C251.091 38.84 250.777 38.04 250.777 37ZM254.977 38.86C255.324 38.86 255.724 38.7533 256.177 38.54C256.631 38.3267 257.044 38.0733 257.417 37.78V34.34C255.964 34.34 254.864 34.5667 254.117 35.02C253.384 35.46 253.017 36.04 253.017 36.76C253.017 37.48 253.191 38.0133 253.537 38.36C253.897 38.6933 254.377 38.86 254.977 38.86Z" fill="#0E0C50"/>
<path d="M267.608 35.5C267.355 35.6733 267.142 35.9467 266.968 36.32C266.795 36.68 266.582 37.1933 266.328 37.86C266.048 38.5933 265.808 39.1333 265.608 39.48C265.422 39.8267 265.195 40 264.928 40H262.248V39L263.028 38.8C263.388 38.72 263.688 38.52 263.928 38.2C264.182 37.8667 264.462 37.3933 264.768 36.78C264.982 36.38 265.148 36.0733 265.268 35.86C265.402 35.6467 265.548 35.4667 265.708 35.32C264.868 35.0933 264.242 34.6933 263.828 34.12C263.415 33.5333 263.208 32.8267 263.208 32C263.208 30.9333 263.642 30.1267 264.508 29.58C265.375 29.0333 266.608 28.76 268.208 28.76C268.768 28.76 269.462 28.7867 270.288 28.84C270.768 28.88 271.182 28.9 271.528 28.9H273.648V29.9L272.288 30.16V38.82L273.788 39V40H268.568V39L270.228 38.82V35.5H267.608ZM270.228 29.94C269.628 29.86 269.002 29.82 268.348 29.82C267.442 29.82 266.728 29.98 266.208 30.3C265.702 30.6067 265.448 31.1467 265.448 31.92C265.448 32.6933 265.675 33.3133 266.128 33.78C266.595 34.2333 267.322 34.46 268.308 34.46C269.415 34.46 270.055 34.4467 270.228 34.42V29.94Z" fill="#0E0C50"/>
<path d="M121.56 65.22C120.093 65.22 118.84 64.9067 117.8 64.28C116.773 63.64 115.993 62.7467 115.46 61.6C114.927 60.4533 114.66 59.1067 114.66 57.56C114.66 56.0667 114.973 54.7467 115.6 53.6C116.227 52.4533 117.087 51.5667 118.18 50.94C119.273 50.3 120.5 49.98 121.86 49.98C122.887 49.98 124.12 50.14 125.56 50.46L126.22 50.58L126.02 54.18H124.68L124.18 51.64C123.993 51.48 123.667 51.3467 123.2 51.24C122.747 51.12 122.187 51.06 121.52 51.06C120.667 51.06 119.907 51.3067 119.24 51.8C118.573 52.28 118.047 52.9933 117.66 53.94C117.287 54.8867 117.1 56.02 117.1 57.34C117.1 58.5933 117.267 59.7333 117.6 60.76C117.933 61.7867 118.44 62.6067 119.12 63.22C119.8 63.82 120.64 64.12 121.64 64.12C122.347 64.12 122.887 64.06 123.26 63.94C123.647 63.82 123.973 63.6467 124.24 63.42L125.08 61.46L126.34 61.62L125.86 64.46C125.58 64.4733 125.167 64.5667 124.62 64.74C124.14 64.8867 123.673 65 123.22 65.08C122.78 65.1733 122.227 65.22 121.56 65.22Z" fill="#0E0C50"/>
<path d="M132.186 56.14C132.186 57.98 132.08 59.56 131.866 60.88C131.653 62.1867 131.393 63.1467 131.086 63.76C130.886 64.2133 130.626 64.5533 130.306 64.78C129.986 65.0067 129.52 65.12 128.906 65.12C128.666 65.12 128.346 65.08 127.946 65L127.826 63.32C128.133 63.3867 128.586 63.42 129.186 63.42C129.746 63.42 130.193 62.68 130.526 61.2C130.86 59.72 131.033 57.7067 131.046 55.16L129.226 54.88V53.9H139.426V54.9L137.686 55.2V63.84L139.366 64.02V65H134.066V64.02L135.626 63.84V55.1H132.186V56.14Z" fill="#0E0C50"/>
<path d="M143.247 69.98C143.021 69.98 142.794 69.9667 142.567 69.94C142.354 69.9133 142.201 69.8733 142.107 69.82V68.08C142.187 68.1333 142.341 68.1733 142.567 68.2C142.807 68.2267 143.034 68.24 143.247 68.24C143.887 68.24 144.447 68.0133 144.927 67.56C145.421 67.12 145.894 66.2667 146.347 65H145.387L141.587 55.1L140.667 54.84V53.9H145.487V54.84L143.947 55.08L145.907 60.98L146.827 63.9L147.687 60.96L149.467 55.08L148.127 54.84V53.9H152.147V54.84L151.147 55.08C149.187 61.08 148.034 64.4867 147.687 65.3C147.234 66.4467 146.821 67.34 146.447 67.98C146.074 68.6333 145.634 69.1267 145.127 69.46C144.621 69.8067 143.994 69.98 143.247 69.98Z" fill="#0E0C50"/>
<path d="M166.433 58.94C166.939 59.1667 167.406 59.5467 167.833 60.08C168.259 60.6 168.739 61.2667 169.273 62.08C169.646 62.6533 169.939 63.0733 170.153 63.34C170.366 63.6067 170.559 63.7667 170.733 63.82L171.493 64V65H169.373C169.013 65 168.666 64.7867 168.333 64.36C167.999 63.92 167.586 63.2667 167.093 62.4C166.559 61.48 166.119 60.8 165.773 60.36C165.426 59.92 165.053 59.7 164.653 59.7H163.153V63.82L164.913 64.02V65H159.573V64.02L161.133 63.82V59.7H159.633C159.246 59.7 158.879 59.92 158.533 60.36C158.186 60.8 157.746 61.4733 157.213 62.38C156.719 63.2467 156.299 63.9 155.953 64.34C155.619 64.78 155.266 65 154.893 65H152.773V64L153.553 63.8C153.753 63.7333 153.953 63.5733 154.153 63.32C154.366 63.0533 154.666 62.62 155.053 62.02C155.573 61.2067 156.039 60.5467 156.453 60.04C156.879 59.5333 157.339 59.1667 157.833 58.94L154.753 55.16L153.293 54.88V53.9H157.933V54.88L156.413 55.16L159.093 58.74H161.133V55.16L159.653 54.88V53.9H164.813V54.88L163.153 55.16V58.74H165.193L167.873 55.16L166.333 54.88V53.9H170.993V54.88L169.533 55.16L166.433 58.94Z" fill="#0E0C50"/>
<path d="M182.103 49.46C182.023 49.8467 181.91 50.1333 181.763 50.32C181.616 50.4933 181.376 50.5867 181.043 50.6C178.47 50.7867 176.816 51.1667 176.083 51.74C175.71 52.02 175.383 52.46 175.103 53.06C174.823 53.6467 174.656 54.44 174.603 55.44C175.016 54.9467 175.596 54.5267 176.343 54.18C177.09 53.8333 177.823 53.66 178.543 53.66C181.45 53.66 182.903 55.3867 182.903 58.84C182.903 60.88 182.47 62.4467 181.603 63.54C180.736 64.62 179.496 65.16 177.883 65.16C176.31 65.16 175.063 64.52 174.143 63.24C173.236 61.9467 172.783 59.98 172.783 57.34C172.783 55.6867 173.023 54.34 173.503 53.3C173.983 52.26 174.603 51.4 175.363 50.72C175.843 50.2933 176.463 49.9467 177.223 49.68C177.983 49.4133 178.723 49.24 179.443 49.16C180.016 49.0933 180.403 49.0267 180.603 48.96C180.816 48.8933 180.956 48.7533 181.023 48.54L181.303 47.68H182.423L182.103 49.46ZM178.023 54.94C177.543 54.94 177.096 55.0267 176.683 55.2C176.27 55.36 175.916 55.5533 175.623 55.78C175.343 56.0067 175.15 56.2133 175.043 56.4C175.043 58.2533 175.143 59.7467 175.343 60.88C175.543 62.0133 175.85 62.8467 176.263 63.38C176.676 63.9 177.216 64.16 177.883 64.16C178.896 64.16 179.61 63.7133 180.023 62.82C180.45 61.9267 180.663 60.6 180.663 58.84C180.663 57.4133 180.456 56.4067 180.043 55.82C179.643 55.2333 178.97 54.94 178.023 54.94Z" fill="#0E0C50"/>
<path d="M185.087 62C185.087 60.7467 185.714 59.8267 186.967 59.24C188.221 58.64 189.807 58.32 191.727 58.28V57.72C191.727 57.0933 191.661 56.6 191.527 56.24C191.394 55.88 191.161 55.62 190.827 55.46C190.507 55.2867 190.048 55.2 189.447 55.2C188.768 55.2 188.154 55.3 187.607 55.5C187.074 55.6867 186.541 55.92 186.008 56.2L185.508 55.16C185.681 55.0133 186.001 54.82 186.467 54.58C186.934 54.34 187.474 54.1267 188.087 53.94C188.701 53.7533 189.314 53.66 189.928 53.66C190.874 53.66 191.621 53.7933 192.167 54.06C192.727 54.3133 193.128 54.7267 193.368 55.3C193.608 55.8733 193.727 56.64 193.727 57.6V64.02H194.908V64.9C194.641 64.9667 194.301 65.0333 193.887 65.1C193.488 65.1667 193.134 65.2 192.827 65.2C192.454 65.2 192.201 65.14 192.068 65.02C191.934 64.9133 191.867 64.6667 191.867 64.28V63.62C191.467 64.02 190.974 64.3867 190.387 64.72C189.814 65.0533 189.161 65.22 188.428 65.22C187.467 65.22 186.667 64.9467 186.027 64.4C185.401 63.84 185.087 63.04 185.087 62ZM189.288 63.86C189.634 63.86 190.034 63.7533 190.488 63.54C190.941 63.3267 191.354 63.0733 191.727 62.78V59.34C190.274 59.34 189.174 59.5667 188.428 60.02C187.694 60.46 187.327 61.04 187.327 61.76C187.327 62.48 187.501 63.0133 187.848 63.36C188.208 63.6933 188.688 63.86 189.288 63.86Z" fill="#0E0C50"/>
</svg>
