<svg width="859" height="644" viewBox="0 0 859 644" fill="none" xmlns="http://www.w3.org/2000/svg">
<path fill-rule="evenodd" clip-rule="evenodd" d="M220.192 11.2815C210.934 7.16104 200.5 13.9378 200.5 24.0721V468.975C200.5 485.544 210.241 500.565 225.369 507.323L513.421 636.001C520.036 638.956 527.5 634.115 527.5 626.87V175.325C527.5 158.735 517.734 143.699 502.577 136.954L220.192 11.2815ZM248.922 32.6443C239.64 28.3114 229 35.0868 229 45.3302V448.618C229 465.004 238.53 479.894 253.409 486.757L494.812 598.099C501.438 601.155 509 596.315 509 589.018V180.796C509 164.479 499.55 149.64 484.766 142.738L248.922 32.6443Z" fill="#4E5481"/>
<path fill-rule="evenodd" clip-rule="evenodd" d="M209.775 6.68827C200.508 2.49147 190 9.26803 190 19.4416V473.049C190 489.519 199.626 504.468 214.62 511.284L502.862 642.306C509.483 645.316 517 640.476 517 633.203V172.901C517 156.409 507.349 141.444 492.326 134.641L209.775 6.68827ZM228.321 39.1542C219.049 34.9152 208.5 41.6915 208.5 51.8867V458.077C208.5 474.492 218.063 489.403 232.983 496.249L484.329 611.59C490.954 614.63 498.5 609.79 498.5 602.501V189.651C498.5 173.214 488.912 158.287 473.963 151.453L228.321 39.1542Z" fill="#626AA4"/>
<path d="M219.162 406.665C215.243 405.42 212.4 401.727 212.4 397.4C212.4 392.062 215.76 387.783 221.098 387.783C222.633 387.783 224.085 388.14 225.373 388.777L225.448 388.749L498.494 512.949V533.729L219.165 406.67L219.162 406.665Z" fill="#626AA4"/>
<path fill-rule="evenodd" clip-rule="evenodd" d="M310.021 470.257V431.596C310.021 416.649 322.137 404.533 337.083 404.533C352.03 404.533 364.146 416.649 364.146 431.596V451.825L346.749 443.998C345.565 443.481 344.257 443.194 342.883 443.194C337.545 443.194 333.217 447.521 333.217 452.859C333.217 456.526 335.409 459.261 338.418 460.899L364.146 472.606C362.712 486.202 351.06 497.32 337.083 497.32C322.137 497.32 310.021 485.203 310.021 470.257Z" fill="#A4A3C2"/>
<path fill-rule="evenodd" clip-rule="evenodd" d="M367.046 496.199V457.537C367.046 442.591 379.162 430.474 394.109 430.474C409.055 430.474 421.172 442.591 421.172 457.537V477.767L403.774 469.94C402.591 469.423 401.282 469.136 399.908 469.136C394.57 469.136 390.243 473.463 390.243 478.801C390.243 482.468 392.434 485.203 395.444 486.841L421.172 498.547C419.737 512.144 408.086 523.262 394.109 523.262C379.162 523.262 367.046 511.145 367.046 496.199Z" fill="#0E0C50"/>
<path fill-rule="evenodd" clip-rule="evenodd" d="M426.005 523.03V484.368C426.005 469.422 438.122 457.305 453.068 457.305C468.014 457.305 480.131 469.422 480.131 484.368V504.598L462.733 496.771C461.55 496.254 460.241 495.967 458.867 495.967C453.529 495.967 449.202 500.294 449.202 505.632C449.202 509.299 451.393 512.034 454.403 513.672L480.131 525.378C478.696 538.975 467.045 550.092 453.068 550.092C438.122 550.092 426.005 537.976 426.005 523.03Z" fill="#A4A3C2"/>
<path d="M219.162 314.844C215.243 313.6 212.4 309.906 212.4 305.579C212.4 300.241 215.76 295.962 221.098 295.962C222.633 295.962 224.085 296.32 225.373 296.956L225.448 296.928L498.494 421.128V441.909L219.165 314.849L219.162 314.844Z" fill="#626AA4"/>
<path fill-rule="evenodd" clip-rule="evenodd" d="M289.723 369.225V330.564C289.723 315.617 301.839 303.501 316.786 303.501C331.732 303.501 343.849 315.617 343.849 330.564V350.793L326.451 342.966C325.267 342.449 323.959 342.162 322.585 342.162C317.247 342.162 312.919 346.489 312.919 351.828C312.919 355.495 315.111 358.229 318.12 359.867L343.849 371.574C342.414 385.17 330.763 396.288 316.786 396.288C301.839 396.288 289.723 384.172 289.723 369.225Z" fill="#0E0C50"/>
<path fill-rule="evenodd" clip-rule="evenodd" d="M231.731 342.839V304.177C231.731 289.231 243.848 277.114 258.794 277.114C273.741 277.114 285.857 289.231 285.857 304.177V324.407L268.46 316.58C267.276 316.063 265.968 315.776 264.594 315.776C259.256 315.776 254.928 320.103 254.928 325.441C254.928 329.108 257.12 331.843 260.129 333.481L285.857 345.187C284.423 358.784 272.771 369.902 258.794 369.902C243.848 369.902 231.731 357.785 231.731 342.839Z" fill="#A4A3C2"/>
<path d="M219.162 218.191C215.243 216.946 212.4 213.252 212.4 208.926C212.4 203.588 215.76 199.308 221.098 199.308C222.633 199.308 224.085 199.666 225.373 200.303L225.448 200.275L498.494 324.474V345.255L219.165 218.196L219.162 218.191Z" fill="#626AA4"/>
<path fill-rule="evenodd" clip-rule="evenodd" d="M382.51 314.732V276.07C382.51 261.124 394.627 249.007 409.573 249.007C424.519 249.007 436.636 261.124 436.636 276.07V296.3L419.238 288.473C418.055 287.956 416.746 287.669 415.372 287.669C410.034 287.669 405.707 291.996 405.707 297.334C405.707 301.001 407.898 303.736 410.908 305.374L436.636 317.08C435.201 330.677 423.55 341.795 409.573 341.795C394.627 341.795 382.51 329.678 382.51 314.732Z" fill="#A4A3C2"/>
<path fill-rule="evenodd" clip-rule="evenodd" d="M441.469 341.582V302.921C441.469 287.975 453.585 275.858 468.532 275.858C483.478 275.858 495.595 287.975 495.595 302.921V323.151L478.197 315.324C477.013 314.806 475.705 314.519 474.331 314.519C468.993 314.519 464.666 318.847 464.666 324.185C464.666 327.852 466.857 330.587 469.866 332.224L495.595 343.931C494.16 357.528 482.509 368.645 468.532 368.645C453.585 368.645 441.469 356.529 441.469 341.582Z" fill="#0E0C50"/>
<path d="M219.162 117.671C215.243 116.427 212.4 112.733 212.4 108.407C212.4 103.069 215.76 98.7889 221.098 98.7889C222.633 98.7889 224.085 99.1467 225.373 99.7834L225.448 99.7555L498.494 223.955V244.736L219.165 117.677L219.162 117.671Z" fill="#626AA4"/>
<path fill-rule="evenodd" clip-rule="evenodd" d="M349.648 199.309V160.647C349.648 145.701 361.765 133.584 376.711 133.584C391.658 133.584 403.774 145.701 403.774 160.647V180.877L386.377 173.05C385.193 172.533 383.885 172.246 382.511 172.246C377.173 172.246 372.845 176.573 372.845 181.911C372.845 185.578 375.037 188.313 378.046 189.951L403.774 201.657C402.34 215.254 390.688 226.372 376.711 226.372C361.765 226.372 349.648 214.255 349.648 199.309Z" fill="#A4A3C2"/>
<path fill-rule="evenodd" clip-rule="evenodd" d="M232.697 146.101V107.439C232.697 92.4929 244.814 80.3763 259.76 80.3763C274.707 80.3763 286.823 92.4929 286.823 107.439V127.669L269.426 119.842C268.242 119.325 266.934 119.038 265.559 119.038C260.222 119.038 255.894 123.365 255.894 128.703C255.894 132.37 258.086 135.105 261.095 136.743L286.823 148.449C285.388 162.046 273.737 173.164 259.76 173.164C244.814 173.164 232.697 161.047 232.697 146.101Z" fill="#A4A3C2"/>
<path fill-rule="evenodd" clip-rule="evenodd" d="M290.689 172.506V133.845C290.689 118.899 302.806 106.782 317.752 106.782C332.699 106.782 344.815 118.899 344.815 133.845V154.075L327.418 146.248C326.234 145.73 324.926 145.443 323.552 145.443C318.214 145.443 313.886 149.771 313.886 155.109C313.886 158.776 316.078 161.511 319.087 163.149L344.815 174.855C343.381 188.452 331.729 199.569 317.752 199.569C302.806 199.569 290.689 187.453 290.689 172.506Z" fill="#0E0C50"/>
<path fill-rule="evenodd" clip-rule="evenodd" d="M222.275 1.35551C213.008 -2.84129 202.5 3.93527 202.5 14.1088V14.3245L368 91.049L486.664 146.057C501.504 152.936 511 167.805 511 184.162V634.593L223.777 504.248C210.711 496.841 202.5 482.927 202.5 467.716V494.593L223.777 504.248C224.859 504.862 225.974 505.43 227.12 505.951L515.362 636.974C521.983 639.983 529.5 635.143 529.5 627.87V167.568C529.5 151.077 519.849 136.111 504.826 129.308L222.275 1.35551Z" fill="#626AA4"/>
<path d="M211.34 1.09265L198.5 6.56265L217.499 7.09265L211.34 1.09265Z" fill="#626AA4"/>
<path d="M510.5 642.593L523.38 637.093L505.622 636.092L510.5 642.593Z" fill="#626AA4"/>
<path d="M771.084 475.392L729.863 491.245L688.127 475.393L729.863 460.296L771.084 475.392Z" fill="#36395E"/>
<path d="M688.252 475.703L688.663 454.333L730.129 469.386L729.718 490.755L688.252 475.703Z" fill="#36395E"/>
<path d="M702.065 477.395L702.377 462.767L726.035 471.35L725.724 485.977L702.065 477.395Z" fill="white"/>
<path d="M703.869 475.366L704.527 465.811L707.029 466.906L706.371 476.462L703.869 475.366Z" fill="#CECDC9"/>
<path d="M718.221 480.76L718.634 471.147L724.187 473.242L723.775 482.854L718.221 480.76Z" fill="#CECDC9"/>
<path d="M713.261 478.782L714.029 469.281L714.093 469.555L713.325 479.056L713.261 478.782Z" fill="#CECDC9"/>
<path d="M710.795 477.856L711.563 468.354L711.627 468.628L710.859 478.13L710.795 477.856Z" fill="#CECDC9"/>
<path d="M709.562 477.391L710.33 467.89L710.394 468.164L709.626 477.666L709.562 477.391Z" fill="#CECDC9"/>
<path d="M698.953 468.696C699.1 465.256 697.609 461.858 695.621 461.109C693.633 460.359 691.902 462.541 691.755 465.981C691.607 469.422 693.099 472.818 695.086 473.568C697.074 474.317 698.805 472.136 698.953 468.696ZM692.577 466.291C692.691 463.637 694.026 461.954 695.56 462.532C697.094 463.11 698.244 465.731 698.131 468.386C698.017 471.04 696.681 472.723 695.147 472.145C693.614 471.566 692.463 468.946 692.577 466.291Z" fill="#F5F8FF"/>
<path d="M698.131 468.386C698.244 465.731 697.094 463.11 695.56 462.532C694.026 461.954 692.69 463.637 692.576 466.292C692.462 468.946 693.614 471.566 695.147 472.145C696.681 472.723 698.017 471.04 698.131 468.386Z" fill="#282C3A"/>
<path d="M688.343 455.227L688.754 433.857L730.22 448.91L729.809 470.279L688.343 455.227Z" fill="#9C9BC1"/>
<path d="M702.156 456.917L702.468 442.29L726.039 450.841L725.728 465.468L702.156 456.917Z" fill="white"/>
<path d="M703.96 454.891L704.618 445.335L707.119 446.431L706.461 455.986L703.96 454.891Z" fill="#CECDC9"/>
<path d="M718.31 460.283L718.723 450.671L724.276 452.765L723.864 462.378L718.31 460.283Z" fill="#CECDC9"/>
<path d="M713.35 458.307L714.118 448.805L714.182 449.079L713.414 458.581L713.35 458.307Z" fill="#CECDC9"/>
<path d="M710.885 457.379L711.653 447.877L711.718 448.152L710.95 457.653L710.885 457.379Z" fill="#CECDC9"/>
<path d="M709.653 456.915L710.421 447.414L710.485 447.688L709.717 457.19L709.653 456.915Z" fill="#CECDC9"/>
<path d="M699.042 448.22C699.189 444.78 697.697 441.383 695.71 440.633C693.722 439.884 691.991 442.065 691.843 445.505C691.696 448.946 693.187 452.342 695.175 453.092C697.163 453.841 698.894 451.66 699.042 448.22ZM692.666 445.816C692.779 443.161 694.115 441.478 695.649 442.056C697.182 442.635 698.333 445.255 698.219 447.91C698.105 450.564 696.77 452.247 695.236 451.669C693.702 451.09 692.552 448.47 692.666 445.816Z" fill="#F5F8FF"/>
<path d="M698.221 447.91C698.335 445.255 697.184 442.635 695.65 442.056C694.116 441.478 692.781 443.161 692.667 445.816C692.553 448.47 693.704 451.09 695.237 451.669C696.771 452.247 698.107 450.564 698.221 447.91Z" fill="#282C3A"/>
<path d="M688.434 434.533L688.845 413.163L730.311 428.215L729.9 449.585L688.434 434.533Z" fill="#626AA4"/>
<path d="M702.247 436.231L702.554 421.596L726.886 430.423L726.579 445.058L702.247 436.231Z" fill="white"/>
<path d="M704.049 434.196L704.707 424.64L707.209 425.736L706.551 435.292L704.049 434.196Z" fill="#CECDC9"/>
<path d="M719.144 440.258L719.557 430.645L725.11 432.739L724.698 442.352L719.144 440.258Z" fill="#CECDC9"/>
<path d="M713.259 437.546L714.027 428.044L714.091 428.319L713.323 437.82L713.259 437.546Z" fill="#CECDC9"/>
<path d="M710.793 436.618L711.561 427.117L711.625 427.391L710.857 436.893L710.793 436.618Z" fill="#CECDC9"/>
<path d="M709.562 436.154L710.33 426.653L710.394 426.927L709.626 436.429L709.562 436.154Z" fill="#CECDC9"/>
<path d="M699.132 427.526C699.28 424.086 697.788 420.689 695.801 419.939C693.813 419.19 692.082 421.371 691.934 424.812C691.787 428.252 693.278 431.648 695.266 432.398C697.253 433.147 698.985 430.966 699.132 427.526ZM692.756 425.122C692.87 422.467 694.206 420.784 695.74 421.362C697.273 421.941 698.424 424.561 698.31 427.216C698.196 429.87 696.861 431.553 695.327 430.975C693.793 430.396 692.643 427.776 692.756 425.122Z" fill="#F5F8FF"/>
<path d="M698.312 427.216C698.426 424.562 697.275 421.941 695.741 421.362C694.207 420.784 692.872 422.467 692.758 425.122C692.644 427.776 693.795 430.396 695.328 430.975C696.862 431.553 698.198 429.87 698.312 427.216Z" fill="#282C3A"/>
<path d="M764.95 416.758L729.538 428.604L729.094 490.313L765.293 474.949L764.95 416.758Z" fill="#E2E4EE"/>
<path d="M764.941 427.438L729.094 428.369L764.941 417.662V427.438Z" fill="#CED1E1"/>
<path d="M769.596 416.293L729.425 428.605L688.592 413.22L727.639 405.339L769.596 416.293Z" fill="#525A8F"/>
<path d="M736.13 451.237L732.975 452.897L737.115 452.375L740.27 450.715L736.13 451.237Z" fill="#CED1E1"/>
<path d="M756.614 446.582L753.459 448.241L757.599 447.719L760.754 446.06L756.614 446.582Z" fill="#CED1E1"/>
<path d="M735.199 431.684L732.044 433.344L736.184 432.822L739.339 431.162L735.199 431.684Z" fill="#CED1E1"/>
<path d="M751.028 435.409L747.873 437.069L752.012 436.547L755.167 434.887L751.028 435.409Z" fill="#CED1E1"/>
<path d="M738.557 470.672L734.08 473.026L740.04 471.605L744.517 469.25L738.557 470.672Z" fill="#CED1E1"/>
<path d="M757.545 473.583L754.39 475.243L758.53 474.721L761.685 473.061L757.545 473.583Z" fill="#CED1E1"/>
<path d="M744.51 459.617L741.355 461.277L745.495 460.755L748.65 459.096L744.51 459.617Z" fill="#CED1E1"/>
<path d="M613.577 190.444L613.286 192.581C613.213 193.126 612.906 193.611 612.445 193.912C609.004 196.157 607.311 200.298 608.195 204.308L608.507 205.724C608.605 206.17 608.835 206.576 609.166 206.891L613.657 211.155L613.901 209.313C614.148 207.446 616.665 207.031 617.495 208.72C617.666 209.069 617.941 209.357 618.281 209.545L642.989 223.211C644.765 224.194 646.158 225.746 646.943 227.618L649.723 224.253C650.973 222.739 651.888 220.976 652.405 219.081L652.521 218.656C653.318 215.734 653.04 212.623 651.737 209.89C650.657 207.626 650.276 205.091 650.643 202.608L651.058 199.79C651.271 198.346 651.315 196.883 651.188 195.43C650.926 192.42 648.889 189.86 646.016 188.93L644.577 188.464C643.235 188.029 642.002 187.31 640.964 186.355L637.748 183.397C636.564 182.309 635.076 181.609 633.482 181.391L631.214 181.082C628.059 180.652 624.865 181.545 622.389 183.552C621.639 184.16 620.739 184.556 619.784 184.699L619.147 184.795C616.242 185.23 613.972 187.532 613.577 190.444Z" fill="#EBED74"/>
<path d="M625.048 190.672C625.048 190.672 611.886 203.382 615.957 220.151C620.028 236.92 627.091 237.148 635.02 230.119C642.947 223.09 647.678 215.627 648.871 207.258C650.063 198.888 637.061 179.338 625.048 190.672Z" fill="#EDA885"/>
<path d="M623.759 200.082L623.624 200.901C623.182 203.574 621.254 205.762 618.658 206.538C615.756 207.176 613.562 209.562 613.168 212.508L612.971 213.975L611.209 208.947C610.508 206.948 611.098 204.722 612.697 203.33C613.691 202.465 614.442 201.356 614.878 200.113L615.941 197.081C617.07 193.859 619.545 191.286 622.721 190.033L623.556 189.703C624.557 189.308 625.502 188.786 626.369 188.15C629.468 185.876 633.59 185.57 636.986 187.36L640.164 189.035C645.273 191.134 648.777 195.915 649.242 201.421L649.378 203.026C649.47 204.115 649.644 205.196 649.898 206.26L650.697 209.594C651.047 211.053 651.279 212.538 651.391 214.035C651.468 215.068 651.385 216.107 651.145 217.115L650.727 218.872C650.441 220.072 650.002 221.231 649.422 222.321L646.616 227.586L646.963 222.248C647.013 221.48 646.903 220.71 646.639 219.987L646.396 219.319C646.271 218.977 646.225 218.61 646.261 218.248L646.525 215.591C646.612 214.708 646.233 213.844 645.525 213.312C644.43 212.488 643.952 211.076 644.321 209.755L644.683 208.459C644.838 207.902 644.924 207.32 644.937 206.742C644.981 204.734 644.117 202.784 642.583 201.488L642.099 201.079C640.287 199.548 638.181 198.404 635.909 197.72L634.726 197.363C633.8 197.084 632.848 196.905 631.884 196.827L628.38 196.544C627.399 196.465 626.421 196.715 625.598 197.256C624.618 197.9 623.951 198.925 623.759 200.082Z" fill="#EBED74"/>
<path d="M621.301 246.155C621.301 246.155 623.301 241.828 624.739 236.94C624.992 236.079 625.229 235.2 625.434 234.324C626.153 231.246 626.482 228.206 625.813 226.103C623.872 220.006 638.763 224.485 638.763 224.485C638.763 224.485 635.548 240.46 638.343 245.921C641.138 251.382 621.301 246.155 621.301 246.155Z" fill="#EDA885"/>
<path d="M636.608 228.412C636.556 228.529 633.168 235.968 624.777 236.972C625.029 236.107 625.264 235.224 625.467 234.345C625.467 234.345 630.036 235.361 636.608 228.412Z" fill="#A7785F"/>
<path d="M572.382 520.399C572.382 520.399 564.79 531.575 565.903 533.284C567.017 534.992 575.265 535.018 580.237 532.897C585.21 530.776 585.043 517.923 587.189 512.341C588.088 510.004 585.902 503.236 583.032 502.818C580.162 502.401 577.085 503.938 577.085 503.938C577.085 503.938 580.225 511.635 572.382 520.399Z" fill="#36395E"/>
<path d="M577.026 503.843C577.026 503.843 575.48 508.557 574.977 513.032C574.559 516.744 569.646 524.733 569.908 525.719C570.169 526.706 576.641 527.432 579.214 524.801C581.786 522.17 583.311 514.678 583.792 510.208C584.239 506.046 584.874 503.978 584.874 503.978C584.874 503.978 579.475 501.044 577.026 503.843Z" fill="#EDA885"/>
<path d="M640.468 518.973C640.468 518.973 633.154 529.959 634.268 531.668C635.382 533.376 643.629 533.402 648.601 531.281C653.573 529.16 653.407 516.307 655.553 510.725C656.452 508.388 654.267 501.621 651.397 501.203C648.527 500.785 645.5 502.592 645.5 502.592C645.5 502.592 648.31 510.208 640.468 518.973Z" fill="#36395E"/>
<path d="M645.5 502.092C645.5 502.092 644.722 507.529 643.845 511.156C642.968 514.782 638.006 523.117 638.268 524.103C638.528 525.09 645.005 525.817 647.578 523.185C650.152 520.553 652.021 513.085 652.162 508.59C652.302 504.095 651.401 501.19 651.401 501.19C651.401 501.19 647.95 499.292 645.5 502.092Z" fill="#EDA885"/>
<path d="M603.667 324.913C603.667 324.913 597.604 357.639 596.227 365.875C594.849 374.11 591.347 413.911 591.024 420.672C590.702 427.433 584.66 453.035 585.02 455.437C585.381 457.839 576.339 506.521 576.339 506.521C576.339 506.521 579.838 509.296 583.407 506.592C585.242 505.201 604.533 460.68 604.279 448.63C603.926 431.972 615.354 409.913 616.81 406.145C630.326 371.147 627.297 360.637 629.11 358.338C630.923 356.039 631.162 359.674 632.353 364.626C633.544 369.578 636.778 412.577 638.29 418.003C639.8 423.429 639.108 441.935 640.08 451.234C641.053 460.533 645.5 502.092 645.5 502.092C645.5 502.092 647.889 505.859 651.5 501.592C652.277 500.674 657.079 455.413 657 444.322C656.92 433.232 656.761 417.937 656.96 413.135C658.861 367.116 665.783 360.367 653.975 328.148C631.865 267.822 603.667 324.913 603.667 324.913Z" fill="#EDA885"/>
<path d="M587.442 511.391L587.619 522.895L586.094 522.931L585.957 514.039L587.442 511.391Z" fill="#36395E"/>
<path d="M655.806 509.776L655.983 521.279L654.458 521.316L654.322 512.424L655.806 509.776Z" fill="#36395E"/>
<path d="M647.897 314.258C647.897 314.258 667.694 341.543 661.099 400.968C661.099 400.968 616.106 408.666 591.534 395.52C591.534 395.52 599.888 334.207 603.256 324.607C606.624 315.007 647.897 314.258 647.897 314.258Z" fill="#36395E"/>
<path d="M652.968 282.386C652.968 282.386 652.364 283.689 650.737 288.801C648.712 274.61 649.487 267.178 649.487 267.178C649.824 274.78 652.968 282.386 652.968 282.386Z" fill="#CFBDB8"/>
<path d="M648.133 298.186C647.942 299.063 647.779 299.847 647.659 300.396C647.529 300.996 647.415 301.635 647.315 302.304C641.624 299.435 637.531 297.183 637.531 297.183C639.048 297.476 648.133 298.186 648.133 298.186Z" fill="#CFBDB8"/>
<path d="M637.183 242.436L621.63 255.839L622.891 242.151C622.891 242.151 632.114 239.887 637.183 242.436Z" fill="#EDA885"/>
<path d="M626.168 253.508L621.633 255.839L636.83 239.919L626.168 253.508Z" fill="#D5C5BD"/>
<path d="M649.062 297.004C647.084 306.162 655.699 326.415 655.699 326.415L639.716 331.889C637.415 332.678 634.942 331.325 634.376 328.965C631.979 319.005 626.335 294.483 625.403 280.789C624.214 263.316 636.461 242.328 636.461 242.328C659.198 245.591 653.809 280.009 653.809 280.009C653.809 280.009 653.04 282.189 652.021 285.592L652.021 285.594C651.764 286.447 651.495 287.38 651.214 288.374C650.5 290.926 649.736 293.889 649.062 297.004Z" fill="#626AA4"/>
<path d="M621.205 242.875L621.465 242.119C621.465 242.119 609.937 244.203 604.129 247.308C598.321 250.413 587.44 265.923 587.44 265.923L602.65 284.984C603.038 299.947 601.277 326.617 601.277 326.617L608.106 330.315C609.941 331.31 612.175 329.967 612.162 327.874C612.1 317.752 611.957 293.716 611.906 282.075C611.84 267.101 621.9 242.604 621.9 242.604C621.664 242.692 621.434 242.783 621.205 242.875Z" fill="#626AA4"/>
<path d="M601.975 313.644C601.975 313.644 613.102 313.757 614.818 313.279C616.535 312.801 627.928 307.515 628.483 302.597C629.037 297.679 601.808 307.748 601.808 307.748L601.975 313.644Z" fill="#EDA885"/>
<path d="M636.063 297.29L590.794 293.342L611.641 309.172L636.063 297.29Z" fill="#6A77BE"/>
<path d="M611.649 309.261L636.143 300.203L636.062 297.356L610.729 306.211L611.649 309.261Z" fill="#313656"/>
<path d="M623.633 239.535L615.435 253.355L611.37 256.081L620.641 242.289L623.633 239.535Z" fill="#F9E6DE"/>
<path d="M615.437 253.37L621.584 255.812L622.866 242.083L623.65 239.535L615.437 253.37Z" fill="#D5C5BD"/>
<path d="M636.839 239.926L626.175 253.537L632.348 258.751L638.43 242.647L636.839 239.926Z" fill="#F9E6DE"/>
<path d="M622.743 289.369C622.743 289.369 619.014 289.476 616.915 289.113C615.289 288.832 611.286 289.397 610.288 290.329C609.29 291.26 606.213 297.637 605.608 298.038C605.004 298.439 605.96 299.3 607.028 298.823C607.028 298.823 608.097 301.545 610.518 300.446C612.937 299.346 614.537 297.051 615.808 296.619C617.079 296.187 624.491 293.976 624.491 293.976C624.491 293.976 624.648 288.645 622.743 289.369Z" fill="#EDA885"/>
<path d="M652.361 284.499C652.361 284.499 652.02 285.612 652.02 285.614C651.766 286.451 651.499 287.365 651.221 288.341C649.103 289.058 630.567 288.238 630.567 288.238C630.567 288.238 645.952 284.249 652.361 284.499Z" fill="#3C426B"/>
<path d="M651.423 287.959C648.447 287.819 643.575 287.64 639.593 287.737C633.399 287.886 622.825 288.877 622.825 288.877L624.267 295.464C624.267 295.464 643.114 297.981 653.38 298.406C653.38 298.406 666.947 299.575 667.897 297.529C668.847 295.482 667.158 282.556 664.642 270.939C662.126 259.322 659.683 252.66 656.896 249.128C654.109 245.597 639.826 243.19 639.826 243.19L652.946 282.314C652.946 282.314 654.769 285.784 654.722 287.306C654.708 287.769 654.393 287.997 653.964 288.092C653.66 288.074 652.991 288.036 652.069 287.991L651.423 287.959Z" fill="#626AA4"/>
<path d="M603.104 307.151C603.104 307.151 602.802 312.86 603.299 314.041C603.299 314.041 575.407 312.075 572.705 308.29C570.002 304.505 569.963 299.817 569.963 299.817L603.104 307.151Z" fill="#626AA4"/>
<path d="M611.601 308.961L597.116 260.603L547.029 256.767L561.961 301.232L611.601 308.961Z" fill="#242740"/>
<path d="M612.088 313.622L612.115 318.632L631.205 315.124L628.606 302.981L624.033 304.708L622.633 306.615C621.639 307.969 620.405 309.128 618.992 310.036L617.491 311C616.356 311.729 615.158 312.355 613.911 312.87L612.088 313.622Z" fill="white"/>
<path d="M725.218 596.584L774.948 579.656L774.85 554.197L675.568 554.428L675.667 579.89L725.218 596.584Z" fill="#626AA4"/>
<path d="M725.12 571.124L774.85 554.197L725.301 537.502L675.568 554.428L725.12 571.124Z" fill="#A7B5EE"/>
<path d="M675.568 554.428L715.639 557.689L716.884 558.125L725.119 571.123L733.538 551.752L675.568 554.428Z" fill="#0E0C50"/>
<path d="M716.881 556.873L732.727 551.479L774.851 554.196L725.12 571.124L716.881 556.873Z" fill="#B5C2FB"/>
<path d="M717.349 557.687L734.914 551.62L732.725 551.479L716.88 556.874L717.349 557.687Z" fill="#0E0C50"/>
<path d="M725.119 571.123L725.218 596.584L774.948 579.656L774.85 554.197L725.119 571.123Z" fill="#889AE1"/>
<path d="M733.538 551.752L717.695 557.145L675.568 554.428L725.3 537.501L733.538 551.752Z" fill="#B5C2FB"/>
<path d="M725.3 537.501L733.825 551.29L773.322 554.098L733.407 551.521L725.3 537.501Z" fill="#0E0C50"/>
<path d="M725.215 595.922L725.119 571.123L675.568 554.428L675.664 579.226L725.215 595.922Z" fill="#9BABEB"/>
<path d="M725.121 571.49L725.119 571.123L675.568 554.428L675.57 554.795L725.121 571.49Z" fill="#A7B5EE"/>
<path d="M725.218 596.584L774.948 579.656L774.85 554.197L675.568 554.428L675.667 579.89L725.218 596.584Z" fill="#626AA4"/>
<path d="M725.12 571.124L774.851 554.196L725.301 537.502L675.568 554.428L725.12 571.124Z" fill="#A7B5EE"/>
<path d="M675.568 554.428L715.639 557.689L716.884 558.125L725.119 571.123L733.538 551.752L675.568 554.428Z" fill="#0E0C50"/>
<path d="M716.881 556.873L732.727 551.479L774.851 554.196L725.12 571.124L716.881 556.873Z" fill="#B5C2FB"/>
<path d="M717.349 557.687L734.914 551.62L732.725 551.479L716.88 556.874L717.349 557.687Z" fill="#0E0C50"/>
<path d="M725.513 571.123L725.611 596.584L775.274 579.656L775.176 554.196L725.513 571.123Z" fill="#889AE1"/>
<path d="M733.538 551.752L717.695 557.145L675.568 554.428L725.3 537.501L733.538 551.752Z" fill="#B5C2FB"/>
<path d="M725.3 537.501L733.825 551.29L773.322 554.098L733.407 551.521L725.3 537.501Z" fill="#0E0C50"/>
<path d="M725.596 595.922L725.5 571.123L675.568 554.428L675.664 579.226L725.596 595.922Z" fill="#9BABEB"/>
<path d="M725.121 571.49L725.119 571.123L675.568 554.428L675.57 554.795L725.121 571.49Z" fill="#A7B5EE"/>
<path d="M725.534 577.86L775.265 560.932L775.166 535.472L675.885 535.704L675.983 561.166L725.534 577.86Z" fill="#626AA4"/>
<path d="M725.437 552.399L775.166 535.472L725.618 518.777L675.885 535.704L725.437 552.399Z" fill="#A7B5EE"/>
<path d="M675.885 535.704L715.956 538.965L717.201 539.401L725.436 552.398L733.855 533.028L675.885 535.704Z" fill="#0E0C50"/>
<path d="M717.198 538.149L733.043 532.754L775.168 535.472L725.437 552.399L717.198 538.149Z" fill="#B5C2FB"/>
<path d="M717.665 538.963L735.231 532.895L733.042 532.754L717.196 538.149L717.665 538.963Z" fill="#0E0C50"/>
<path d="M725.436 552.398L725.534 577.86L775.265 560.932L775.166 535.472L725.436 552.398Z" fill="#889AE1"/>
<path d="M733.855 533.028L718.012 538.421L675.885 535.704L725.617 518.777L733.855 533.028Z" fill="#B5C2FB"/>
<path d="M725.618 518.777L734.142 532.565L773.639 535.373L733.724 532.797L725.618 518.777Z" fill="#0E0C50"/>
<path d="M725.532 577.97L725.436 552.4L675.5 535.704L675.595 561.273L725.532 577.97Z" fill="#9BABEB"/>
<path d="M725.438 552.765L725.436 552.398L675.885 535.704L675.886 536.07L725.438 552.765Z" fill="#A7B5EE"/>
<path d="M680.761 620.618L687.214 623.004L734.293 607.049C734.293 607.049 740.73 604.104 737.811 600.202C734.893 596.3 635.01 595.98 635.01 595.98L680.761 620.618Z" fill="#ACB0D0"/>
<path d="M622.397 600.869L623.472 602.284L686.164 623.397L684.909 621.927C684.909 621.927 685.913 619.541 689.024 618.467C692.132 617.391 732.82 603.049 732.82 603.049L670.309 581.991L625.997 597.629C625.997 597.629 623.18 598.433 622.397 600.869Z" fill="#C0C4DB"/>
<path d="M688.727 623.198L733.304 608.024C736.736 606.856 739.519 604.024 739.51 601.712C739.501 599.401 736.704 598.469 733.271 599.636L692.503 613.514L692.506 614.515L733.275 600.639C735.888 599.749 738.017 600.459 738.024 602.219C738.031 603.979 735.913 606.134 733.3 607.023L688.723 622.196C687.443 622.632 686.398 622.285 686.395 621.422C686.392 620.559 687.431 619.503 688.711 619.066L732.824 604.051L732.82 603.049L688.707 618.066C686.607 618.78 684.903 620.513 684.909 621.927C684.914 623.341 686.627 623.912 688.727 623.198Z" fill="#E2E4EE"/>
<path d="M626.215 602.14L670.792 586.966C674.225 585.797 677.007 582.967 676.998 580.654C676.989 578.342 674.192 577.411 670.759 578.579L629.99 592.456L629.994 593.458L670.763 579.579C673.376 578.69 675.505 579.399 675.512 581.16C675.519 582.919 673.401 585.075 670.788 585.964L626.211 601.137C624.931 601.574 623.887 601.225 623.883 600.363C623.88 599.5 624.919 598.444 626.199 598.008L670.313 582.993L670.309 581.991L626.195 597.007C624.094 597.722 622.392 599.453 622.397 600.869C622.403 602.283 624.114 602.853 626.215 602.14Z" fill="#C0C4DB"/>
<path d="M629.992 592.456L692.503 613.514L732.622 600.313L737.81 599.418L675.272 578.348L670.761 578.578L629.992 592.456Z" fill="#E2E4EE"/>
<path d="M629.994 593.458L692.506 614.515L692.503 613.514L629.99 592.456L629.994 593.458Z" fill="#C0C4DB"/>
<path d="M691.729 611.346L636.423 592.711L648.72 588.526L704.025 607.16L691.729 611.346Z" fill="#626AA4"/>
<path d="M706.307 606.063L689.105 600.266L708.644 593.615L725.847 599.411L706.307 606.063Z" fill="#C0C4DB"/>
<path d="M684.427 598.629L651.678 587.595L654.994 586.467L687.739 597.501L684.427 598.629Z" fill="#C0C4DB"/>
<path d="M689.907 596.764L657.158 585.73L660.473 584.601L693.219 595.635L689.907 596.764Z" fill="#C0C4DB"/>
<path d="M695.387 594.896L662.64 583.865L665.955 582.736L698.701 593.769L695.387 594.896Z" fill="#C0C4DB"/>
<path d="M700.864 593.031L668.119 581.999L671.435 580.871L704.18 591.904L700.864 593.031Z" fill="#C0C4DB"/>
<path d="M735.287 419.706L809.851 402.112L855.257 416.687L854.804 431.263L823.904 423.683L781.344 433.128L765.603 428.464L735.287 434.535V419.706Z" fill="#7E7CA1"/>
<path d="M810.823 386.809C815.383 386.863 825.099 374.029 818.381 352.435C818.381 352.435 806.918 368.879 800.794 370.176C794.694 371.489 798.432 367.449 803.306 363.81C808.159 360.223 817.553 342.867 803.681 331.224C803.681 331.224 805.961 354.908 792.121 354.735C778.265 354.579 797.628 341.82 790.508 330.458C783.365 319.096 771.84 315.513 771.84 315.513C771.84 315.513 780.24 329.489 774.652 333.326C769.085 337.179 768.779 326.999 769.321 321.489C769.862 315.976 763.714 313.683 757.566 314.445C751.419 315.223 744.888 315.651 741.631 313.15C741.631 313.15 740.031 321.977 734.316 328.934C728.567 335.867 729.921 345.251 733.731 347.897C737.532 350.556 749.897 355.364 746.445 358.347C742.993 361.287 730.828 356.288 728.343 348.982C728.343 348.982 727.016 370.181 733.354 372.147C739.652 374.082 754.688 375.083 751.616 378.384C748.554 381.697 738.464 378.173 732.972 374.903C732.972 374.903 733.519 391.42 743.846 393.109C754.147 394.785 760.388 389.981 761.296 392.676C762.215 395.329 754.358 403.515 740.039 398.825C740.039 398.825 753.839 425.764 765.465 416.975C777.094 408.184 779.762 399.486 783.89 399.923C783.89 399.923 787.372 402.457 788.386 401.595C788.386 401.595 789.391 398.805 794.203 402.671C799.024 406.528 815.554 411.453 821.831 387.712C821.831 387.712 804.32 395.815 800.137 390.43C795.968 385.065 806.272 386.751 810.823 386.809ZM774.79 403.735C773.229 406.378 770.873 407.901 769.614 407.149C768.309 406.388 768.554 403.645 770.148 400.995C771.733 398.369 774.043 396.827 775.338 397.588C776.616 398.35 776.384 401.092 774.79 403.735ZM763.002 370.821C762.893 372.325 760.311 373.312 757.239 373.067C754.182 372.822 751.777 371.402 751.887 369.914C751.984 368.446 754.578 367.459 757.628 367.688C760.707 367.932 763.099 369.352 763.002 370.821ZM749.338 341.564C747.808 343.058 744.052 341.721 740.956 338.558C737.87 335.396 736.582 331.622 738.123 330.131C739.653 328.633 743.395 329.955 746.501 333.111C749.597 336.289 750.865 340.06 749.338 341.564ZM764.6 347.944C764.807 344.881 766.226 342.479 767.701 342.569C769.199 342.668 770.211 345.24 769.994 348.314C769.761 351.388 768.382 353.779 766.877 353.693C765.408 353.593 764.367 351.025 764.6 347.944ZM794.834 394.175C794.371 395.111 792.462 395.085 790.55 394.139C788.662 393.196 787.483 391.675 787.917 390.763C788.377 389.834 790.286 389.847 792.2 390.783C794.089 391.742 795.278 393.27 794.834 394.175ZM787.681 374.082C787.478 377.161 786.056 379.576 784.591 379.486C783.083 379.39 782.061 376.815 782.288 373.747C782.511 370.673 783.909 368.25 785.385 368.363C786.883 368.452 787.908 371.03 787.681 374.082Z" fill="#74999D"/>
<path d="M781.336 386.477C781.336 386.477 814.885 375.795 818.361 352.427C818.361 352.427 820.263 371.924 782.223 388.887L781.336 386.477Z" fill="#74999D"/>
<path d="M779.682 382.381C779.682 382.381 748.533 392.733 733.016 374.899C733.016 374.899 740.756 394.786 780.757 384.773L779.682 382.381Z" fill="#74999D"/>
<path d="M774.071 371.055C774.071 371.055 773.036 359.16 777.816 353.908C782.596 348.666 797.808 335.17 771.822 315.518C771.822 315.518 786.825 327.061 783.69 340.815C781.978 348.244 768.544 353.936 771.465 370.396L774.071 371.055Z" fill="#74999D"/>
<path d="M728.373 348.993C728.373 348.993 730.387 361.195 741.945 362.448C753.506 363.697 759.7 359.445 764.273 359.717L765.258 361.299C765.258 361.299 755.583 364.073 750.097 364.934C742.446 366.114 730.616 365.874 728.373 348.993Z" fill="#74999D"/>
<path d="M734.314 328.937C728.565 335.87 729.919 345.254 733.73 347.9C736.864 350.079 745.675 353.687 746.907 356.566C754.605 358.686 761.14 357.202 761.14 357.202C764.15 363.107 773.034 374.155 773.034 374.155C767.315 385.831 751.98 377.684 751.98 377.684C751.953 377.903 751.843 378.156 751.615 378.387C748.556 381.697 738.462 378.176 732.971 374.909C732.971 374.909 733.52 391.423 743.848 393.111C754.145 394.788 760.386 389.984 761.298 392.682C762.217 395.332 754.356 403.517 740.037 398.827C740.037 398.827 753.837 425.766 765.467 416.978C777.094 408.186 779.764 399.489 783.893 399.929C783.893 399.929 787.372 402.463 788.389 401.597C788.389 401.597 789.394 398.808 794.203 402.674C799.024 406.53 815.555 411.459 821.832 387.715C821.832 387.715 804.324 395.818 800.141 390.433C799.932 390.176 799.756 389.898 799.603 389.665C797.932 391.488 796.296 392.553 794.753 393.111C794.923 393.51 794.965 393.873 794.837 394.178C794.371 395.114 792.461 395.091 790.55 394.142C789.852 393.817 789.271 393.381 788.823 392.928C785.573 391.635 783.507 388.79 783.507 388.79C784.617 381.447 793.601 372.347 799.079 367.431C800.132 366.327 801.645 365.057 803.306 363.81C803.306 363.81 804.84 362.055 806.844 359.671C811.166 352.875 814.519 340.288 803.685 331.227C803.685 331.227 805.965 354.914 792.125 354.741C778.265 354.582 797.631 341.82 790.508 330.458C783.365 319.099 771.843 315.513 771.843 315.513C794.84 334.233 781.22 348.607 776.082 354.19C770.909 359.774 772.434 371.181 772.434 371.181C772.434 371.181 771.12 369.228 766.794 363.577C762.451 357.937 756.356 349.146 755.327 338.918C754.315 328.699 741.63 313.153 741.63 313.153C741.63 313.153 740.033 321.983 734.314 328.937ZM774.789 403.738C773.228 406.381 770.872 407.904 769.613 407.152C768.311 406.391 768.553 403.648 770.147 400.998C771.732 398.372 774.045 396.83 775.337 397.591C776.619 398.352 776.383 401.095 774.789 403.738ZM782.287 373.75C782.514 370.676 783.909 368.253 785.385 368.366C786.883 368.455 787.908 371.037 787.681 374.085C787.481 377.164 786.056 379.579 784.59 379.488C783.082 379.393 782.061 376.821 782.287 373.75ZM749.337 341.567C747.81 343.061 744.051 341.724 740.955 338.561C737.869 335.399 736.581 331.625 738.125 330.134C739.652 328.636 743.397 329.958 746.499 333.114C749.596 336.292 750.864 340.063 749.337 341.567Z" fill="#74999D"/>
<path d="M788.691 434.359C788.691 434.359 791.836 437.595 794.035 434.728C794.035 434.728 790.732 393.26 777.509 375.569C764.282 357.882 759.656 351.254 756.525 339.65C753.371 328.018 747.035 317.712 741.623 313.15C741.623 313.15 752.559 329.359 755.231 342.096C757.881 354.844 765.19 363.287 770.219 370.232C775.221 377.174 785.915 389.406 788.691 434.359Z" fill="#74999D"/>
<path d="M797.32 402.917C793.505 406.888 780.073 398.865 780.073 398.865C783.079 418.556 796.832 415.991 801.054 413.292C805.277 410.578 805.866 412.921 805.866 412.921C806.6 413.717 809.615 411.948 809.615 411.948C812.996 411.947 814.4 419.205 823.022 427.277C831.643 435.352 845.105 414.794 845.105 414.794C833.124 417.347 827.513 410.099 828.472 408.032C829.424 405.953 834.057 410.334 842.505 409.864C850.978 409.389 852.852 396.089 852.852 396.089C848.127 398.268 839.691 400.259 837.49 397.326C835.327 394.395 847.529 394.872 852.791 393.842C858.063 392.795 858.821 375.589 858.821 375.589C856.17 381.27 845.928 384.269 843.388 381.586C840.878 378.911 851.254 376.065 854.554 374.243C857.865 372.434 859.756 364.992 855.72 358.911C851.7 352.8 851.164 345.529 851.164 345.529C848.327 347.296 843.11 346.378 838.216 345.237C833.321 344.084 828.138 345.414 828.099 349.913C828.07 354.392 826.966 362.579 822.79 359.011C818.623 355.435 826.595 344.855 826.595 344.855C826.595 344.855 816.983 346.777 810.248 355.329C803.534 363.906 818.069 375.837 806.859 374.796C795.679 373.745 799.561 354.833 799.561 354.833C787.358 363.046 793.467 377.838 797.068 381.172C800.685 384.483 803.347 388.106 798.535 386.514C793.732 384.922 785.866 370.704 785.866 370.704C778.602 387.541 785.337 398.738 789.014 399.08C792.71 399.425 801.157 398.948 797.32 402.917ZM816.737 410.805C817.826 410.292 819.571 411.729 820.63 414.004C821.676 416.27 821.619 418.511 820.52 418.999C819.419 419.523 817.677 418.079 816.631 415.813C815.572 413.544 815.619 411.307 816.737 410.805ZM833.577 388.187C836.059 388.243 838.07 389.267 838.018 390.461C837.979 391.684 835.913 392.618 833.431 392.549C830.929 392.487 828.928 391.472 828.97 390.259C828.999 389.042 831.075 388.118 833.577 388.187ZM845.512 361.246C848.292 358.95 851.432 358.183 852.557 359.54C853.653 360.875 852.301 363.817 849.53 366.096C846.773 368.387 843.626 369.142 842.508 367.801C841.402 366.466 842.767 363.527 845.512 361.246ZM827.329 376.108C826.098 376.047 825.185 373.976 825.257 371.478C825.347 368.993 826.396 367.011 827.616 367.056C828.804 367.102 829.741 369.166 829.649 371.671C829.556 374.162 828.517 376.15 827.329 376.108ZM803.718 403.873C805.312 403.287 806.863 403.427 807.161 404.215C807.448 404.994 806.363 406.128 804.737 406.709C803.121 407.318 801.576 407.165 801.292 406.396C801.007 405.605 802.099 404.473 803.718 403.873ZM811.1 386.345C812.344 386.405 813.238 388.467 813.155 390.959C813.072 393.453 812.024 395.455 810.803 395.39C809.615 395.345 808.701 393.28 808.77 390.772C808.863 388.277 809.912 386.299 811.1 386.345Z" fill="#74999D"/>
<path d="M812.846 401.351C812.846 401.351 786.692 389.869 785.88 370.708C785.88 370.708 782.673 386.26 811.917 403.199L812.846 401.351Z" fill="#74999D"/>
<path d="M814.532 398.127C814.532 398.127 838.773 409.142 852.842 396.071C852.842 396.071 844.886 411.492 813.469 399.976L814.532 398.127Z" fill="#74999D"/>
<path d="M819.96 389.489C819.96 389.489 821.808 379.964 818.422 375.337C815.048 370.706 803.943 358.51 826.618 344.865C826.618 344.865 813.514 352.902 814.846 364.265C815.549 370.416 825.92 376.146 822.102 389.184L819.96 389.489Z" fill="#74999D"/>
<path d="M858.792 375.576C858.792 375.576 856.106 385.246 846.673 385.274C837.236 385.284 832.612 381.325 828.9 381.159L827.973 382.352C827.973 382.352 835.523 385.421 839.867 386.578C845.968 388.194 855.538 389.024 858.792 375.576Z" fill="#74999D"/>
<path d="M851.164 345.525C851.164 345.525 839.601 357.006 837.901 365.148C836.18 373.326 830.516 379.885 826.529 384.089C822.558 388.272 821.326 389.742 821.326 389.742C821.326 389.742 823.53 380.664 819.857 375.71C816.193 370.76 806.429 358.023 826.595 344.855C826.595 344.855 816.984 346.774 810.249 355.325C803.534 363.902 818.069 375.837 806.859 374.796C795.679 373.749 799.561 354.833 799.561 354.833C790.034 361.238 791.67 371.674 794.561 377.51C795.973 379.597 797.068 381.176 797.068 381.176C798.295 382.309 799.419 383.458 800.151 384.446C804.152 388.89 810.635 396.987 810.881 403.012C810.881 403.012 808.963 405.112 806.24 405.895C805.846 406.211 805.343 406.514 804.737 406.712C803.121 407.318 801.576 407.165 801.292 406.393C801.2 406.123 801.277 405.828 801.438 405.525C800.249 404.953 799.012 403.95 797.825 402.341C797.67 402.52 797.516 402.703 797.32 402.913C793.505 406.884 780.073 398.865 780.073 398.865C783.079 418.555 796.832 415.994 801.055 413.296C805.277 410.578 805.866 412.921 805.866 412.921C806.599 413.714 809.615 411.948 809.615 411.948C812.996 411.947 814.4 419.205 823.022 427.277C831.643 435.352 845.105 414.794 845.105 414.794C833.124 417.35 827.513 410.099 828.472 408.029C829.424 405.949 834.058 410.334 842.505 409.861C850.978 409.39 852.852 396.086 852.852 396.086C848.128 398.265 839.691 400.256 837.49 397.326C837.357 397.102 837.28 396.909 837.266 396.721C837.266 396.721 824.207 402.006 820.592 392.082C820.592 392.082 828.716 383.919 831.639 379.429C831.639 379.429 836.784 381.181 843.19 380.109C844.444 377.917 851.847 375.743 854.554 374.243C857.865 372.434 859.756 364.992 855.721 358.908C851.701 352.8 851.164 345.525 851.164 345.525ZM816.737 410.805C817.826 410.292 819.571 411.729 820.63 414.004C821.676 416.27 821.619 418.511 820.521 419.003C819.419 419.526 817.677 418.076 816.631 415.81C815.572 413.544 815.619 411.304 816.737 410.805ZM810.803 395.39C809.615 395.348 808.701 393.283 808.771 390.776C808.863 388.277 809.912 386.299 811.1 386.348C812.344 386.408 813.238 388.464 813.155 390.959C813.072 393.453 812.024 395.455 810.803 395.39ZM845.512 361.249C848.292 358.954 851.432 358.183 852.558 359.536C853.653 360.875 852.301 363.817 849.53 366.096C846.773 368.387 843.623 369.145 842.508 367.801C841.402 366.466 842.768 363.527 845.512 361.249Z" fill="#74999D"/>
<path d="M802.779 439.322C802.779 439.322 799.984 441.67 798.466 439.157C798.466 439.157 804.698 405.988 816.888 392.858C829.051 379.689 833.378 374.768 836.899 365.642C840.444 356.538 846.442 348.762 851.191 345.53C851.191 345.53 840.995 357.667 837.765 367.734C834.49 377.803 827.864 383.971 823.229 389.15C818.584 394.329 808.915 403.287 802.779 439.322Z" fill="#74999D"/>
<path d="M841.99 503.138L783.638 523.974L753.953 505.535L742.657 434.505L780.193 444.655L849.437 431.597L841.99 503.138Z" fill="#A4A3C2"/>
<path d="M855.272 431.286L781.193 451.105L734.558 434.411L735.287 419.552L781.21 433.003L855.286 416.688L855.272 431.286Z" fill="#A4A3C2"/>
<path d="M857.15 431.274L855.279 416.688L781.202 432.998L781.903 452.252L857.15 431.274Z" fill="#ADACCD"/>
<path d="M781.928 450.502L743.449 437.676L752.56 509.592L783.677 523.961L781.928 450.502Z" fill="#ADACCD"/>
<path d="M735.287 419.603L734.572 434.439L781.928 452.251L781.212 433.012L735.287 419.603Z" fill="#BBBADF"/>
<path d="M104.357 522.679H104.356C96.0716 522.679 89.2556 521.812 88.4023 519.551C88.8377 521.91 90.7035 532.199 90.9716 536.627C91.2758 541.645 90.2109 548.365 94.8499 550.15C99.4889 551.936 101.39 552.447 104.356 552.447C107.322 552.447 109.224 551.936 113.863 550.15C118.502 548.365 117.436 541.645 117.74 536.627C118.009 532.199 119.875 521.91 120.31 519.551C119.457 521.812 112.641 522.679 104.357 522.679Z" fill="#A4A3C2"/>
<path d="M120.403 519.058C120.403 521.688 113.219 522.679 104.357 522.679C95.4951 522.679 88.3105 521.688 88.3105 519.058C88.3105 516.427 95.4948 513.153 104.357 513.153C113.218 513.153 120.403 516.427 120.403 519.058Z" fill="#7E7CA2"/>
<path d="M59.151 438.839C59.151 438.839 62.368 439.062 63.5231 438.691C64.6783 438.322 65.7515 436.989 63.0288 434.842C60.3062 432.696 49.664 422.775 45.2912 417.149C40.9191 411.523 38.6915 408.488 37.1239 407.749C35.5564 407.008 30.5241 405.823 26.1514 402.196C21.7793 398.569 19.4696 395.016 11.9619 394.867C13.3648 396.348 15.4266 398.199 15.4266 398.199L9.074 396.348C9.074 396.348 4.20691 396.422 2.22704 397.311C3.79455 398.125 7.34193 400.361 7.34193 400.361L0 399.087C0 399.087 3.38218 405.454 10.7241 406.194C11.5495 408.563 19.4696 419.371 24.4193 420.555C26.8942 422.628 45.5384 436.914 59.151 438.839Z" fill="#74999D"/>
<path d="M89.1803 476.37C80.3528 459.715 68.8033 441.578 64.6784 437.063C64.6784 437.063 53.871 426.403 40.0119 415.965C26.1515 405.528 14.8485 398.347 7.25879 401.16C7.25879 401.16 15.3248 398.729 35.7024 414.645C50.9845 426.581 60.6902 436.437 63.9137 439.234C66.6195 443.007 82.7915 465.816 90.087 482.071C98.0639 499.84 101.564 521.057 101.564 521.057C101.941 521.085 103.174 521.178 103.174 521.178C103.174 521.178 98.0078 493.026 89.1803 476.37Z" fill="#4F7075"/>
<path d="M61.3913 297.963L66.3842 303.849L58.8941 299.384C58.8941 299.384 58.1456 312.019 57.1461 314.733C56.1474 317.446 57.1329 340.154 68.9992 345.036C80.8662 349.918 85.3609 350.324 85.3609 350.324C85.3609 350.324 99.9994 348.497 103.167 344.438C106.334 340.379 105.91 327.096 100.129 315.807C94.3487 304.516 85.6918 295.324 83.279 293.904V298.978L80.991 292.55C80.991 292.55 73.1119 289.432 68.9992 291.063C64.8865 292.694 61.3913 297.963 61.3913 297.963Z" fill="#74999D"/>
<path d="M75.1953 306.555L85.1338 352.144C85.1338 352.144 100.256 517.217 100.296 521.952L101.878 521.976L103.916 522.028C103.916 522.028 96.4902 428.977 93.5204 407.391C90.5498 385.804 88.0208 349.92 88.0208 349.92L75.1953 306.555Z" fill="#4F7075"/>
<path d="M65.0344 372.959L61.1595 373.55C61.1595 373.55 53.3041 378.375 44.1929 370.99C35.0804 363.605 31.7293 358.879 29.1115 353.857C26.493 348.836 22.8271 345.881 19.476 335.543C16.1242 325.204 14.6582 323.629 13.5057 321.857C12.3538 320.084 12.2493 315.16 13.5057 315.357C14.7627 315.554 17.0671 318.016 17.0671 318.016L16.2293 315.352C16.2293 315.352 22.1989 315.455 23.77 316.637C25.3411 317.819 27.8545 320.773 27.8545 320.773L25.9693 316.637C25.9693 316.637 31.7293 318.508 34.4523 320.674C37.1759 322.84 43.0404 329.832 44.8211 331.013C46.6018 332.195 48.0678 333.967 48.0678 333.967L50.5811 338.299L50.3722 332.392C50.3722 332.392 52.2573 336.232 53.4085 337.413C54.5611 338.595 57.7026 344.109 58.541 345.881C59.3788 347.654 61.1595 353.857 62.6255 355.826C64.0914 357.795 72.0907 364.392 69.767 368.528C67.4433 372.664 65.0344 372.959 65.0344 372.959Z" fill="#74999D"/>
<path d="M62.8356 376.109L61.1595 373.55C61.1595 373.55 33.615 332.49 22.9321 323.332C30.0542 328.453 59.3788 363.9 65.0344 372.959C64.7196 375.026 64.3022 376.109 64.3022 376.109C64.3022 376.109 70.6319 390.971 79.383 416.726C88.2386 442.789 99.5364 479.989 102.867 520.991L101.508 520.967C101.508 520.967 98.5216 488.408 91.8459 461.625C86.579 440.493 62.8356 376.109 62.8356 376.109Z" fill="#4F7075"/>
<path d="M75.9009 438.26C74.2558 438.132 73.3579 441.724 70.8149 440.218C69.605 439.032 69.1198 438.411 67.3639 439.466C65.608 440.519 63.5494 442.979 58.4641 441.574C53.3789 440.169 48.7164 438.361 43.632 432.537C38.546 426.714 37.2745 414.263 36.8509 412.506C36.4265 410.749 36.549 404.975 36.549 404.975L43.632 407.585L37.0326 401.862C37.0326 401.862 37.9406 396.642 40.0601 394.533C41.2699 395.387 43.4494 396.842 43.4494 396.842L41.6335 392.777C41.6335 392.777 43.9339 390.216 45.448 389.864C46.9613 389.513 60.2809 393.88 63.4893 398.6C63.4285 403.721 63.3684 404.273 63.3684 404.273L65.427 399.051C65.427 399.051 75.5366 410.8 77.837 413.41C80.1382 416.02 86.3132 423.752 86.495 428.572C86.6759 433.391 82.9839 438.813 75.9009 438.26Z" fill="#74999D"/>
<path d="M88.5049 473.414C80.1309 454.549 73.1641 439.219 72.7335 438.576C71.3372 436.492 51.2389 400.035 44.5397 393.322C44.5397 393.322 50.5407 403.644 58.9685 418.506C62.7043 425.093 67.5492 432.52 71.4808 440.424C85.2676 468.142 97.8555 500.852 99.8096 515.196L100.32 521.36L102.372 521.414C102.372 521.414 96.8789 490.659 88.5049 473.414Z" fill="#4F7075"/>
<path d="M119.53 306.401C119.53 306.401 119.172 303.082 117.204 301.852C115.236 300.624 107.007 297.796 106.738 278.619C106.47 259.442 120.781 231.291 121.766 229.815C122.303 231.045 123.286 233.012 123.286 233.012V228.34C123.286 228.34 129.011 222.071 132.32 221.825C135.63 221.579 137.062 225.636 136.972 226.374C136.882 227.111 134.825 231.659 134.825 231.659L137.509 229.201C137.509 229.201 141.892 245.673 141.534 259.81C138.94 264.236 138.224 265.588 138.224 265.588L141.555 261.285C141.555 261.285 142.607 273.333 139.119 290.42C135.63 307.507 131.247 307.631 129.637 308.369C128.027 309.106 124.896 308.737 121.229 307.016L119.53 306.401Z" fill="#74999D"/>
<path d="M132.045 226.87C132.045 226.87 124.89 272.761 122.982 281.065C121.074 289.369 119.007 306.851 118.053 312.314C117.099 317.777 110.044 356.02 106.893 403.44C103.742 450.861 103.569 474.429 103.728 487.104C103.887 499.779 104.507 522.06 104.507 522.06L105.752 522.043C105.752 522.043 104.37 481.399 105.96 447.309C107.55 413.218 112.169 361.264 114.395 344.438C116.622 327.611 123.388 293.084 124.218 286.747C125.049 280.409 127.275 275.82 132.045 226.87Z" fill="#4F7075"/>
<path d="M124.627 345.8C124.627 345.8 131.635 352.995 137.376 345.8C143.116 338.604 146.098 323.439 147.514 316.908L143.638 319.675L147.514 315.136C147.514 315.136 150.422 298.532 149.826 291.447L146.992 292.997L149.304 289.897C149.304 289.897 148.409 285.912 147.44 284.694L144.383 286.798L146.62 282.923C146.62 282.923 144.234 280.156 139.314 283.588C138.121 284.252 136.555 285.912 136.555 285.912L136.257 289.012L135.812 285.69C135.812 285.69 125.149 296.761 121.198 307.609C117.246 318.457 113.891 330.855 123.36 342.147C123.509 342.922 124.627 345.8 124.627 345.8Z" fill="#74999D"/>
<path d="M104.367 521.748C104.367 521.748 108.376 436.353 110.576 415.209C112.776 394.064 118.333 359.511 123.195 346.618L124.627 345.8C124.627 345.8 141.11 294.802 143.572 290.232C138.478 299.344 126.09 333.381 122.732 344.727C119.375 356.072 110.743 390.414 107.617 431.671C104.491 472.929 104.196 504.87 103.34 521.853" fill="#4F7075"/>
<path d="M120.841 419.572C121.848 419.415 122.397 423.836 123.954 421.983C124.695 420.522 124.991 419.758 126.066 421.055C127.141 422.354 128.401 425.381 131.514 423.652C134.627 421.921 137.481 419.696 140.594 412.527C143.707 405.359 144.485 390.033 144.745 387.87C145.004 385.708 144.93 378.6 144.93 378.6L140.594 381.814L144.634 374.769C144.634 374.769 144.077 368.343 142.78 365.747C142.039 366.798 140.705 368.59 140.705 368.59L141.817 363.584C141.817 363.584 140.409 360.433 139.482 360C138.556 359.567 130.402 364.944 128.438 370.753C128.475 377.055 128.512 377.736 128.512 377.736L127.252 371.309C127.252 371.309 121.064 385.769 119.655 388.983C118.247 392.197 114.466 401.713 114.355 407.646C114.244 413.579 116.505 420.252 120.841 419.572Z" fill="#74999D"/>
<path d="M113.127 462.842C118.253 439.62 122.517 420.751 122.78 419.959C123.635 417.395 135.938 372.519 140.039 364.255C140.039 364.255 136.366 376.961 131.206 395.255C128.92 403.363 125.953 412.505 123.547 422.234C115.107 456.352 107.402 496.615 106.206 514.272L105.894 521.86L104.638 521.926C104.638 521.926 108 484.069 113.127 462.842Z" fill="#4F7075"/>
<path d="M143.713 434.61C137.942 438.107 130.215 444.381 129.078 447.898C127.941 451.415 127.231 452.445 126.947 455.447C126.662 458.449 126.662 462.162 128.226 461.967C129.788 461.771 133.34 462.41 136.182 455.447C139.024 448.484 141.013 446.529 143.145 444.771C145.276 443.013 150.217 435.588 152.008 433.243C153.8 430.898 160.762 427.186 162.325 425.036C163.888 422.887 165.451 419.566 165.451 419.566C165.451 419.566 163.888 420.737 162.752 420.933C161.614 421.128 159.767 419.762 158.346 422.008C156.926 424.254 152.095 425.232 150.248 427.187C148.401 429.14 145.567 433.487 143.713 434.61Z" fill="#74999D"/>
<path d="M160.925 424.752C160.925 424.752 147.094 432.987 143.081 436.973C139.068 440.959 122.735 461.033 117.566 475.24C112.397 489.445 106.786 522.181 106.786 522.181L104.798 522.207C104.798 522.207 111.877 479.368 122.876 461.974C133.874 444.579 136.995 436.914 160.925 424.752Z" fill="#4F7075"/>
</svg>
