<svg width="253" height="100" viewBox="0 0 253 100" fill="none" xmlns="http://www.w3.org/2000/svg">
<rect width="253" height="100" rx="42" fill="white"/>
<path d="M32.5 75.6026L32.5 74.0499L95.0241 74.0498V75.6026L32.5 75.6026Z" fill="#0E0C50"/>
<path d="M34.7114 72.0681C34.7114 69.1279 41.9074 68.9017 41.9074 72.4074C41.9074 75.9131 41.9074 74.3299 41.9074 77.4963C41.9074 80.6628 34.7114 81.002 34.7114 77.4963C34.7114 73.9906 34.7114 75.0084 34.7114 72.0681Z" fill="#0E0C50"/>
<path d="M43.8258 72.0681C43.8258 69.1279 51.0217 68.9017 51.0217 72.4074C51.0217 75.9131 51.0217 74.3299 51.0217 77.4963C51.0217 80.6628 43.8257 81.002 43.8258 77.4963C43.8258 73.9906 43.8257 75.0084 43.8258 72.0681Z" fill="#A4A3C2"/>
<path d="M32.5713 25.7875L32.5713 24.2348L95.0954 24.2348V25.7875L32.5713 25.7875Z" fill="#0E0C50"/>
<path d="M76.6155 22.2478C76.6155 19.3075 83.8115 19.0813 83.8115 22.587C83.8115 26.0927 83.8115 24.5095 83.8115 27.676C83.8115 30.8424 76.6155 31.1817 76.6155 27.676C76.6155 24.1703 76.6155 25.188 76.6155 22.2478Z" fill="#0E0C50"/>
<path d="M85.7313 22.2478C85.7313 19.3075 92.9273 19.0813 92.9273 22.587C92.9273 26.0927 92.9273 24.5095 92.9273 27.676C92.9273 30.8424 85.7313 31.1817 85.7313 27.676C85.7313 24.1703 85.7313 25.188 85.7313 22.2478Z" fill="#A4A3C2"/>
<path d="M67.5011 22.2478C67.5011 19.3075 74.6971 19.0813 74.6971 22.587C74.6971 26.0927 74.6971 24.5095 74.6971 27.676C74.6971 30.8424 67.5011 31.1817 67.5011 27.676C67.5011 24.1703 67.5011 25.188 67.5011 22.2478Z" fill="#A4A3C2"/>
<path d="M49.6728 47.7997C49.9968 47.7386 50.5841 47.6775 51.4346 47.6164C52.3053 47.5349 53.0444 47.4942 53.6519 47.4942C56.2034 47.4942 58.1272 48.0645 59.4232 49.205C60.7394 50.3456 61.3975 51.9749 61.3975 54.0931C61.3975 56.4557 60.6584 58.2683 59.1802 59.5311C57.7222 60.7938 55.7782 61.4252 53.3482 61.4252L51.3738 61.3336C49.5108 61.2317 48.4578 61.1808 48.2148 61.1808H43.4156V59.6838L46.4531 59.3783V40.3759L43.446 40.0093V38.4818H59.818L60.1218 44.2253H58.0563L57.1147 40.3148L49.6728 40.0704V47.7997ZM49.6728 59.47C49.7741 59.4904 50.0677 59.5413 50.5537 59.6227C51.06 59.7042 51.7687 59.7449 52.6799 59.7449C54.4214 59.7449 55.7377 59.2765 56.6287 58.3396C57.5399 57.4027 57.9956 56.0585 57.9956 54.307C57.9956 50.9668 56.2439 49.2967 52.7407 49.2967C52.1535 49.2967 51.5561 49.317 50.9486 49.3578C50.3613 49.3985 49.9361 49.4393 49.6728 49.48V59.47Z" fill="#0E0C50"/>
<path d="M76.0155 61.5169C73.788 61.5169 71.8845 61.0383 70.305 60.081C68.7457 59.1034 67.5611 57.7388 66.7511 55.9872C65.9411 54.2357 65.5361 52.1786 65.5361 49.816C65.5361 47.5349 66.012 45.5186 66.9637 43.767C67.9155 42.0155 69.2216 40.6611 70.8821 39.7038C72.5426 38.7262 74.4056 38.2374 76.4711 38.2374C78.0303 38.2374 79.9034 38.4818 82.0904 38.9706L83.0928 39.1539L82.7891 44.653H80.7539L79.9946 40.7731C79.7111 40.5287 79.2149 40.325 78.5062 40.1621C77.8177 39.9788 76.9672 39.8871 75.9547 39.8871C74.6587 39.8871 73.5045 40.2639 72.492 41.0175C71.4795 41.7507 70.6796 42.8403 70.0924 44.2864C69.5254 45.7325 69.2419 47.4637 69.2419 49.48C69.2419 51.3945 69.495 53.1359 70.0012 54.7041C70.5075 56.2724 71.277 57.5249 72.3097 58.4618C73.3425 59.3783 74.6182 59.8366 76.137 59.8366C77.2102 59.8366 78.0303 59.7449 78.5973 59.5616C79.1846 59.3783 79.6807 59.1136 80.0857 58.7673L81.3614 55.7734L83.2751 56.0178L82.5461 60.356C82.1208 60.3763 81.4931 60.5189 80.6628 60.7837C79.9338 61.0077 79.2251 61.1808 78.5366 61.303C77.8683 61.4456 77.028 61.5169 76.0155 61.5169Z" fill="#0E0C50"/>
<path d="M113.719 40.9888C113.866 40.9611 114.132 40.9334 114.518 40.9057C114.913 40.8688 115.248 40.8503 115.523 40.8503C116.68 40.8503 117.553 41.1089 118.14 41.6261C118.737 42.1433 119.036 42.8822 119.036 43.8427C119.036 44.914 118.7 45.736 118.03 46.3086C117.369 46.8812 116.487 47.1675 115.386 47.1675L114.49 47.126C113.645 47.0798 113.168 47.0567 113.058 47.0567H110.881V46.3779L112.259 46.2393V37.6224L110.895 37.4562V36.7635H118.319L118.457 39.368H117.52L117.093 37.5947L113.719 37.4839V40.9888ZM113.719 46.2809C113.765 46.2901 113.898 46.3132 114.118 46.3502C114.348 46.3871 114.669 46.4056 115.083 46.4056C115.872 46.4056 116.469 46.1932 116.873 45.7683C117.286 45.3435 117.493 44.7339 117.493 43.9396C117.493 42.425 116.699 41.6677 115.11 41.6677C114.844 41.6677 114.573 41.6769 114.297 41.6954C114.031 41.7138 113.838 41.7323 113.719 41.7508V46.2809Z" fill="#0E0C50"/>
<path d="M121.642 50.5062C121.486 50.5062 121.33 50.497 121.174 50.4785C121.027 50.4601 120.921 50.4323 120.857 50.3954V49.1901C120.912 49.2271 121.018 49.2548 121.174 49.2733C121.339 49.2917 121.495 49.301 121.642 49.301C122.083 49.301 122.469 49.144 122.799 48.83C123.139 48.5252 123.465 47.9341 123.777 47.0567H123.116L120.499 40.1992L119.865 40.0191V39.368H123.185V40.0191L122.124 40.1853L123.474 44.2721L124.108 46.2948L124.7 44.2583L125.926 40.1853L125.003 40.0191V39.368H127.772V40.0191L127.083 40.1853C125.733 44.3414 124.939 46.7011 124.7 47.2645C124.388 48.0588 124.103 48.6776 123.846 49.1209C123.589 49.5734 123.286 49.9151 122.937 50.146C122.588 50.3862 122.157 50.5062 121.642 50.5062Z" fill="#0E0C50"/>
<path d="M131.563 43.2193L129.235 40.1853L128.464 40.0191V39.368H131.963V40.0191L130.998 40.1853L132.252 41.9724L132.638 42.5681L133.009 41.9724L134.318 40.1853L133.312 40.0191V39.368H136.219V40.0191L135.392 40.1853L133.106 43.053L135.544 46.267L136.343 46.3917V47.0567H132.803V46.3917L133.712 46.2532L132.459 44.383L132.045 43.7596L131.673 44.3691L130.351 46.2532L131.494 46.3917V47.0567H128.285V46.3917L129.208 46.2532L131.563 43.2193Z" fill="#0E0C50"/>
<path d="M143.377 39.368L143.446 42.2495H142.579L142.234 40.1992L139.906 40.1299V46.2532L141.78 46.3779V47.0567H137.386V46.3779L138.474 46.2532V40.2408L137.413 40.0468V39.368H143.377Z" fill="#0E0C50"/>
<path d="M144.795 44.9787C144.795 44.1105 145.226 43.4732 146.089 43.0669C146.952 42.6513 148.045 42.4296 149.368 42.4019V42.014C149.368 41.5799 149.322 41.2382 149.23 40.9888C149.138 40.7395 148.977 40.5594 148.748 40.4486C148.527 40.3285 148.211 40.2685 147.797 40.2685C147.329 40.2685 146.907 40.3377 146.53 40.4763C146.163 40.6056 145.795 40.7672 145.428 40.9611L145.084 40.2408C145.203 40.1392 145.424 40.0052 145.745 39.839C146.066 39.6728 146.438 39.525 146.861 39.3957C147.283 39.2664 147.705 39.2017 148.128 39.2017C148.78 39.2017 149.294 39.2941 149.671 39.4788C150.056 39.6543 150.332 39.9406 150.497 40.3377C150.662 40.7349 150.745 41.2659 150.745 41.9309V46.3779H151.558V46.9874C151.374 47.0336 151.14 47.0798 150.855 47.126C150.58 47.1721 150.336 47.1952 150.125 47.1952C149.868 47.1952 149.693 47.1537 149.602 47.0706C149.51 46.9967 149.464 46.8258 149.464 46.558V46.1008C149.188 46.3779 148.849 46.6319 148.445 46.8627C148.05 47.0936 147.6 47.2091 147.095 47.2091C146.434 47.2091 145.883 47.0198 145.442 46.6411C145.01 46.2532 144.795 45.6991 144.795 44.9787ZM147.687 46.267C147.926 46.267 148.201 46.1932 148.514 46.0454C148.826 45.8976 149.11 45.7221 149.368 45.519V43.1361C148.367 43.1361 147.609 43.2931 147.095 43.6072C146.59 43.9119 146.337 44.3137 146.337 44.8124C146.337 45.3111 146.457 45.6806 146.695 45.9207C146.943 46.1516 147.274 46.267 147.687 46.267Z" fill="#0E0C50"/>
<path d="M155.422 40.9196C155.422 42.1941 155.348 43.2885 155.201 44.2029C155.054 45.108 154.875 45.7729 154.664 46.1978C154.526 46.5118 154.347 46.7473 154.127 46.9043C153.907 47.0613 153.585 47.1398 153.163 47.1398C152.998 47.1398 152.777 47.1121 152.502 47.0567L152.419 45.893C152.63 45.9392 152.942 45.9623 153.356 45.9623C153.741 45.9623 154.049 45.4497 154.279 44.4245C154.508 43.3994 154.628 42.0048 154.637 40.2408L153.383 40.0468V39.368H160.408V40.0607L159.21 40.2685V46.2532L160.367 46.3779V47.0567H156.717V46.3779L157.791 46.2532V40.1992H155.422V40.9196Z" fill="#0E0C50"/>
<path d="M169.375 39.368L169.458 42.2911H168.549L168.177 40.1992L166.345 40.1299V46.2393L168.218 46.3779V47.0567H163.053V46.3779L164.913 46.2393V40.1299L163.053 40.1992L162.681 42.2911H161.772L161.855 39.368H169.375Z" fill="#0E0C50"/>
<path d="M174.361 47.2091C173.25 47.2091 172.4 46.8443 171.813 46.1147C171.234 45.385 170.945 44.4107 170.945 43.1916C170.945 42.3881 171.097 41.6815 171.4 41.072C171.703 40.4624 172.125 39.9914 172.667 39.6589C173.218 39.3264 173.842 39.1602 174.54 39.1602C175.394 39.1602 176.055 39.4003 176.523 39.8806C177.001 40.3516 177.253 41.0304 177.281 41.917C177.281 42.4804 177.249 42.9099 177.185 43.2054H172.446C172.465 44.1197 172.676 44.8586 173.08 45.422C173.484 45.9761 174.058 46.2532 174.802 46.2532C175.169 46.2532 175.55 46.1885 175.945 46.0592C176.349 45.9207 176.661 45.7591 176.882 45.5744L177.143 46.1839C176.877 46.461 176.482 46.7011 175.959 46.9043C175.435 47.1075 174.903 47.2091 174.361 47.2091ZM175.766 42.4712C175.793 42.2772 175.807 42.0787 175.807 41.8755C175.798 41.2752 175.669 40.8041 175.422 40.4624C175.183 40.1115 174.802 39.936 174.278 39.936C173.746 39.936 173.319 40.1299 172.997 40.5178C172.685 40.9057 172.506 41.5568 172.46 42.4712H175.766Z" fill="#0E0C50"/>
<path d="M186.33 42.9422C186.33 43.7272 186.169 44.4476 185.848 45.1033C185.526 45.7498 185.067 46.2624 184.47 46.6411C183.873 47.0198 183.175 47.2091 182.377 47.2091C182.156 47.2091 181.917 47.1906 181.66 47.1537C181.403 47.1167 181.197 47.0706 181.041 47.0151L181.082 48.1788V49.578L182.514 49.7304V50.4093H178.671V49.7304L179.663 49.578V40.4347L178.658 40.1853V39.4372L180.614 39.1879H180.641L180.93 39.4372V40.2546C181.206 39.9498 181.546 39.6912 181.95 39.4788C182.363 39.2664 182.822 39.1602 183.327 39.1602C183.869 39.1602 184.365 39.2941 184.815 39.5619C185.274 39.8298 185.641 40.2454 185.916 40.8087C186.192 41.3721 186.33 42.0833 186.33 42.9422ZM182.762 40.1299C182.413 40.1299 182.087 40.2038 181.784 40.3516C181.481 40.4994 181.247 40.661 181.082 40.8365V46.0592C181.146 46.1701 181.307 46.2717 181.564 46.364C181.83 46.4471 182.119 46.4887 182.432 46.4887C183.139 46.4887 183.708 46.207 184.14 45.6436C184.58 45.0803 184.801 44.2306 184.801 43.0946C184.801 42.0971 184.608 41.3537 184.222 40.8642C183.846 40.3747 183.359 40.1299 182.762 40.1299Z" fill="#0E0C50"/>
<path d="M187.775 43.2608C187.775 42.4943 187.922 41.8016 188.216 41.1828C188.519 40.564 188.96 40.0745 189.538 39.7143C190.126 39.3449 190.828 39.1602 191.645 39.1602C192.04 39.1602 192.38 39.1971 192.665 39.271C192.949 39.3449 193.289 39.4465 193.684 39.5758L193.629 41.7092H192.734L192.431 40.2962C192.376 40.0376 192.027 39.9083 191.384 39.9083C190.741 39.9083 190.231 40.1715 189.855 40.6979C189.488 41.2151 189.304 41.954 189.304 42.9145C189.304 44.0043 189.511 44.8355 189.924 45.4081C190.346 45.9715 190.893 46.2532 191.563 46.2532C191.949 46.2532 192.311 46.1932 192.651 46.0731C193 45.953 193.298 45.8099 193.546 45.6436L193.808 46.1978C193.56 46.4564 193.193 46.6919 192.706 46.9043C192.229 47.1075 191.742 47.2091 191.246 47.2091C190.493 47.2091 189.855 47.0382 189.331 46.6965C188.817 46.3548 188.427 45.8884 188.161 45.2973C187.904 44.697 187.775 44.0182 187.775 43.2608Z" fill="#0E0C50"/>
<path d="M200.126 42.8591C200.466 43.0161 200.778 43.2701 201.063 43.621C201.347 43.972 201.673 44.4338 202.041 45.0064C202.279 45.385 202.477 45.676 202.633 45.8791C202.789 46.0731 202.931 46.1885 203.06 46.2255L203.597 46.364V47.0567H202.151C201.903 47.0567 201.66 46.9043 201.421 46.5995C201.182 46.2948 200.897 45.8468 200.567 45.2557C200.218 44.6369 199.919 44.1705 199.671 43.8565C199.424 43.5425 199.162 43.3855 198.886 43.3855H197.881V46.2532L199.079 46.3779V47.0567H195.429V46.3779L196.476 46.2532V40.2408L195.443 40.0468V39.368H198.969V40.0468L197.881 40.2408V42.7205H199.272L201.104 40.2408L200.057 40.0468V39.368H203.266V40.0468L202.247 40.2408L200.126 42.8591Z" fill="#0E0C50"/>
<path d="M204.652 44.9787C204.652 44.1105 205.084 43.4732 205.947 43.0669C206.81 42.6513 207.903 42.4296 209.225 42.4019V42.014C209.225 41.5799 209.18 41.2382 209.088 40.9888C208.996 40.7395 208.835 40.5594 208.606 40.4486C208.385 40.3285 208.068 40.2685 207.655 40.2685C207.187 40.2685 206.764 40.3377 206.388 40.4763C206.021 40.6056 205.653 40.7672 205.286 40.9611L204.942 40.2408C205.061 40.1392 205.281 40.0052 205.603 39.839C205.924 39.6728 206.296 39.525 206.719 39.3957C207.141 39.2664 207.563 39.2017 207.986 39.2017C208.638 39.2017 209.152 39.2941 209.528 39.4788C209.914 39.6543 210.19 39.9406 210.355 40.3377C210.52 40.7349 210.603 41.2659 210.603 41.9309V46.3779H211.415V46.9874C211.232 47.0336 210.998 47.0798 210.713 47.126C210.438 47.1721 210.194 47.1952 209.983 47.1952C209.726 47.1952 209.551 47.1537 209.46 47.0706C209.368 46.9967 209.322 46.8258 209.322 46.558V46.1008C209.046 46.3779 208.707 46.6319 208.303 46.8627C207.908 47.0936 207.458 47.2091 206.953 47.2091C206.292 47.2091 205.741 47.0198 205.3 46.6411C204.868 46.2532 204.652 45.6991 204.652 44.9787ZM207.545 46.267C207.784 46.267 208.059 46.1932 208.371 46.0454C208.684 45.8976 208.968 45.7221 209.225 45.519V43.1361C208.225 43.1361 207.467 43.2931 206.953 43.6072C206.448 43.9119 206.195 44.3137 206.195 44.8124C206.195 45.3111 206.315 45.6806 206.553 45.9207C206.801 46.1516 207.132 46.267 207.545 46.267Z" fill="#0E0C50"/>
<path d="M216.244 43.9396C216.069 44.0597 215.922 44.249 215.803 44.5076C215.684 44.757 215.537 45.1126 215.362 45.5744C215.169 46.0823 215.004 46.4564 214.866 46.6965C214.738 46.9366 214.582 47.0567 214.398 47.0567H212.552V46.364L213.09 46.2255C213.338 46.1701 213.544 46.0315 213.709 45.8099C213.884 45.579 214.077 45.2511 214.288 44.8263C214.435 44.5492 214.55 44.3368 214.632 44.189C214.724 44.0412 214.825 43.9166 214.935 43.815C214.357 43.658 213.925 43.3809 213.641 42.9838C213.356 42.5774 213.214 42.0879 213.214 41.5153C213.214 40.7764 213.512 40.2177 214.109 39.839C214.706 39.4603 215.555 39.271 216.657 39.271C217.043 39.271 217.52 39.2895 218.09 39.3264C218.42 39.3541 218.705 39.368 218.944 39.368H220.404V40.0607L219.467 40.2408V46.2393L220.5 46.364V47.0567H216.905V46.364L218.048 46.2393V43.9396H216.244ZM218.048 40.0884C217.635 40.0329 217.203 40.0052 216.753 40.0052C216.129 40.0052 215.638 40.1161 215.28 40.3377C214.931 40.5501 214.756 40.9242 214.756 41.4599C214.756 41.9955 214.912 42.425 215.225 42.7482C215.546 43.0623 216.046 43.2193 216.726 43.2193C217.488 43.2193 217.929 43.21 218.048 43.1916V40.0884Z" fill="#0E0C50"/>
<path d="M115.661 64.526C114.651 64.526 113.788 64.309 113.072 63.8749C112.364 63.4316 111.827 62.8128 111.46 62.0185C111.093 61.2243 110.909 60.2915 110.909 59.2201C110.909 58.1857 111.125 57.2714 111.556 56.4771C111.988 55.6828 112.58 55.0687 113.333 54.6346C114.086 54.1913 114.931 53.9696 115.868 53.9696C116.575 53.9696 117.424 54.0804 118.416 54.3021L118.87 54.3852L118.733 56.8789H117.81L117.465 55.1195C117.337 55.0086 117.112 54.9163 116.79 54.8424C116.478 54.7593 116.093 54.7177 115.633 54.7177C115.046 54.7177 114.522 54.8886 114.063 55.2303C113.604 55.5628 113.241 56.0569 112.975 56.7126C112.718 57.3684 112.589 58.1534 112.589 59.0677C112.589 59.9359 112.704 60.7255 112.934 61.4367C113.163 62.1478 113.512 62.7158 113.981 63.1407C114.449 63.5563 115.027 63.7641 115.716 63.7641C116.203 63.7641 116.575 63.7225 116.832 63.6394C117.098 63.5563 117.323 63.4362 117.507 63.2792L118.085 61.9216L118.953 62.0324L118.622 63.9996C118.43 64.0088 118.145 64.0735 117.768 64.1935C117.438 64.2951 117.116 64.3736 116.804 64.4291C116.501 64.4937 116.12 64.526 115.661 64.526Z" fill="#0E0C50"/>
<path d="M122.979 58.2365C122.979 59.511 122.906 60.6055 122.759 61.5198C122.612 62.4249 122.433 63.0899 122.222 63.5147C122.084 63.8287 121.905 64.0642 121.685 64.2212C121.464 64.3783 121.143 64.4568 120.72 64.4568C120.555 64.4568 120.335 64.429 120.059 64.3736L119.977 63.2099C120.188 63.2561 120.5 63.2792 120.913 63.2792C121.299 63.2792 121.607 62.7666 121.836 61.7415C122.066 60.7163 122.185 59.3217 122.194 57.5577L120.941 57.3637V56.6849H127.966V57.3776L126.767 57.5854V63.5701L127.924 63.6948V64.3736H124.274V63.6948L125.348 63.5701V57.5161H122.979V58.2365Z" fill="#0E0C50"/>
<path d="M130.597 67.8232C130.441 67.8232 130.285 67.8139 130.129 67.7955C129.982 67.777 129.876 67.7493 129.812 67.7123V66.5071C129.867 66.544 129.973 66.5717 130.129 66.5902C130.294 66.6087 130.45 66.6179 130.597 66.6179C131.038 66.6179 131.423 66.4609 131.754 66.1469C132.094 65.8421 132.42 65.251 132.732 64.3736H132.071L129.454 57.5161L128.82 57.336V56.6849H132.14V57.336L131.079 57.5023L132.429 61.5891L133.063 63.6117L133.655 61.5752L134.881 57.5023L133.958 57.336V56.6849H136.726V57.336L136.038 57.5023C134.688 61.6583 133.894 64.0181 133.655 64.5814C133.343 65.3757 133.058 65.9945 132.801 66.4378C132.544 66.8904 132.241 67.2321 131.892 67.463C131.543 67.7031 131.111 67.8232 130.597 67.8232Z" fill="#0E0C50"/>
<path d="M146.565 60.176C146.914 60.333 147.235 60.5962 147.529 60.9657C147.823 61.3259 148.153 61.7876 148.521 62.351C148.778 62.7481 148.98 63.0391 149.127 63.2238C149.273 63.4085 149.407 63.5193 149.526 63.5563L150.049 63.681V64.3736H148.589C148.341 64.3736 148.103 64.2259 147.873 63.9303C147.644 63.6255 147.359 63.173 147.019 62.5727C146.652 61.9354 146.349 61.4644 146.11 61.1596C145.871 60.8548 145.614 60.7024 145.339 60.7024H144.306V63.5563L145.518 63.6948V64.3736H141.84V63.6948L142.915 63.5563V60.7024H141.881C141.615 60.7024 141.363 60.8548 141.124 61.1596C140.885 61.4644 140.582 61.9308 140.215 62.5588C139.875 63.1591 139.586 63.6117 139.347 63.9165C139.118 64.2212 138.874 64.3736 138.617 64.3736H137.157V63.681L137.694 63.5424C137.832 63.4962 137.97 63.3854 138.107 63.2099C138.254 63.0252 138.461 62.7251 138.727 62.3095C139.085 61.7461 139.407 61.2889 139.691 60.938C139.985 60.587 140.302 60.333 140.642 60.176L138.521 57.5577L137.515 57.3637V56.6849H140.711V57.3637L139.664 57.5577L141.51 60.0375H142.915V57.5577L141.895 57.3637V56.6849H145.449V57.3637L144.306 57.5577V60.0375H145.711L147.556 57.5577L146.496 57.3637V56.6849H149.705V57.3637L148.7 57.5577L146.565 60.176Z" fill="#0E0C50"/>
<path d="M157.357 53.6094C157.302 53.8773 157.224 54.0758 157.123 54.2051C157.022 54.3252 156.856 54.3898 156.627 54.3991C154.855 54.5284 153.716 54.7916 153.211 55.1887C152.954 55.3827 152.729 55.6875 152.536 56.1031C152.343 56.5094 152.228 57.059 152.192 57.7516C152.476 57.4099 152.876 57.119 153.39 56.8789C153.904 56.6387 154.409 56.5187 154.905 56.5187C156.907 56.5187 157.908 57.7147 157.908 60.1067C157.908 61.5198 157.609 62.605 157.012 63.3623C156.416 64.1104 155.562 64.4845 154.451 64.4845C153.367 64.4845 152.508 64.0411 151.875 63.1545C151.25 62.2587 150.938 60.8964 150.938 59.0677C150.938 57.9225 151.103 56.9897 151.434 56.2693C151.765 55.5489 152.192 54.9532 152.715 54.4822C153.046 54.1867 153.473 53.9465 153.996 53.7618C154.519 53.5771 155.029 53.457 155.525 53.4016C155.92 53.3554 156.186 53.3093 156.324 53.2631C156.471 53.2169 156.567 53.1199 156.613 52.9722L156.806 52.3765H157.577L157.357 53.6094ZM154.547 57.4053C154.216 57.4053 153.909 57.4653 153.624 57.5854C153.339 57.6962 153.096 57.8301 152.894 57.9871C152.701 58.1442 152.568 58.2873 152.495 58.4166C152.495 59.7004 152.563 60.7348 152.701 61.5198C152.839 62.3048 153.05 62.8821 153.335 63.2515C153.619 63.6117 153.991 63.7918 154.451 63.7918C155.148 63.7918 155.64 63.4824 155.924 62.8636C156.218 62.2448 156.365 61.3259 156.365 60.1067C156.365 59.1185 156.223 58.4212 155.938 58.0149C155.663 57.6085 155.199 57.4053 154.547 57.4053Z" fill="#0E0C50"/>
<path d="M159.412 62.2956C159.412 61.4274 159.844 60.7902 160.707 60.3838C161.57 59.9682 162.663 59.7465 163.985 59.7188V59.3309C163.985 58.8969 163.939 58.5551 163.847 58.3058C163.756 58.0564 163.595 57.8763 163.365 57.7655C163.145 57.6454 162.828 57.5854 162.415 57.5854C161.947 57.5854 161.524 57.6547 161.148 57.7932C160.78 57.9225 160.413 58.0841 160.046 58.2781L159.701 57.5577C159.821 57.4561 160.041 57.3222 160.363 57.1559C160.684 56.9897 161.056 56.8419 161.478 56.7126C161.901 56.5833 162.323 56.5187 162.745 56.5187C163.397 56.5187 163.912 56.611 164.288 56.7957C164.674 56.9712 164.949 57.2575 165.115 57.6547C165.28 58.0518 165.362 58.5828 165.362 59.2478V63.6948H166.175V64.3044C165.991 64.3505 165.757 64.3967 165.473 64.4429C165.197 64.4891 164.954 64.5122 164.743 64.5122C164.486 64.5122 164.311 64.4706 164.219 64.3875C164.127 64.3136 164.081 64.1427 164.081 63.8749V63.4177C163.806 63.6948 163.466 63.9488 163.062 64.1797C162.667 64.4106 162.217 64.526 161.712 64.526C161.051 64.526 160.5 64.3367 160.06 63.958C159.628 63.5701 159.412 63.016 159.412 62.2956ZM162.305 63.584C162.543 63.584 162.819 63.5101 163.131 63.3623C163.443 63.2146 163.728 63.0391 163.985 62.8359V60.4531C162.984 60.4531 162.227 60.6101 161.712 60.9241C161.207 61.2289 160.955 61.6306 160.955 62.1294C160.955 62.6281 161.074 62.9975 161.313 63.2376C161.561 63.4685 161.891 63.584 162.305 63.584Z" fill="#0E0C50"/>
</svg>
