<svg width="1440" height="994" viewBox="0 0 1440 994" fill="none" xmlns="http://www.w3.org/2000/svg">
<path d="M675.5 646.48C735.014 484.355 861 197.48 1093 197.48C1301.5 197.48 1425.26 350.27 1440.01 369.5V155.481H943.113L46 993H83.2766C146.071 928.214 237.992 857.663 350.5 841.48C479.35 822.947 617.5 804.48 675.5 646.48Z" fill="#CAC9F0"/>
<path d="M501.781 -0.5C471.955 58.7225 454.478 166.971 314.5 155.48C172.506 143.824 41.4168 182.764 0 196.705V227.5H531.5V-0.5H501.781Z" fill="#CAC9F0"/>
<path d="M675.5 622.5C735.014 460.375 861 173.5 1093 173.5C1301.45 173.5 1425.2 326.218 1440 345.506V0H512.237C474.316 51.5126 469.856 186.253 314.5 173.5C172.506 161.844 41.4168 200.783 0 214.724V993.052H61C123.292 922.824 223.854 835.716 350.5 817.5L354.06 816.988C481.887 798.615 618.034 779.046 675.5 622.5Z" fill="#444A75"/>
</svg>
