<svg width="359" height="592" viewBox="0 0 359 592" fill="none" xmlns="http://www.w3.org/2000/svg">
<path d="M196.841 27.2641L195.949 33.4955C195.721 35.0893 194.806 36.5031 193.445 37.3641C183.223 43.8321 178.148 56.0088 180.752 67.8199L181.594 71.6397C181.88 72.9332 182.549 74.1103 183.516 75.0164L196.805 87.4787L197.55 82.1515C198.319 76.6469 205.74 75.4427 208.211 80.4214C208.726 81.4581 209.546 82.3118 210.562 82.8672L284.114 123.098C289.102 125.826 293.021 130.159 295.236 135.394L295.374 135.721L305.768 123.513C308.114 120.757 309.84 117.528 310.827 114.047L313.161 105.813C314.841 99.8864 314.293 93.5493 311.619 87.9991L308.361 81.235C306.145 76.6364 305.378 71.4737 306.161 66.4298L307.936 54.9975C308.592 50.7655 308.742 46.4703 308.381 42.2029C307.646 33.5056 301.756 26.1017 293.446 23.4279L288.011 21.6794C284.59 20.5787 281.444 18.7596 278.783 16.3439L268.732 7.21739C265.182 3.99377 260.74 1.91828 255.989 1.26314L249.181 0.324333C239.882 -0.957861 230.462 1.59468 223.084 7.39564C220.842 9.15831 218.175 10.2983 215.351 10.7004L213.098 11.0212C204.671 12.2213 198.047 18.8391 196.841 27.2641Z" fill="#F5F69F"/>
<path d="M231.298 28.493C231.298 28.493 192.451 64.8777 204.074 113.234C215.697 161.589 236.41 162.362 259.797 142.251C283.18 122.141 297.199 100.727 300.856 76.6464C304.512 52.5654 266.748 -3.94658 231.298 28.493Z" fill="#EDA885"/>
<path d="M226.922 55.5557L226.553 57.6826C225.195 65.5037 219.489 71.8629 211.859 74.0589L211.724 74.0978L203.128 75.9113C199.668 76.6414 197.035 79.4587 196.541 82.9597L194.754 95.6278L189.639 81.1474C187.56 75.2627 189.339 68.7061 194.108 64.6786C197.045 62.1974 199.282 58.99 200.594 55.3759L203.673 46.8941C207.134 37.3605 214.571 29.8033 224.049 26.1891L226.464 25.2684C229.446 24.1312 232.271 22.6193 234.872 20.7689C244.109 14.1959 256.253 13.3571 266.306 18.5976L275.773 23.5325L276.176 23.6965C291.048 29.7506 301.25 43.6541 302.56 59.6553L302.994 64.9467C303.217 67.6712 303.649 70.3744 304.288 73.0324L307.316 85.636C307.974 88.3755 308.406 91.1644 308.608 93.9745L308.89 97.888C309.029 99.8275 308.862 101.777 308.394 103.664L305.828 114.009C305.57 115.046 305.179 116.045 304.664 116.982L294.43 135.584L295.641 118.501C295.725 117.315 295.557 116.125 295.147 115.009L293.885 111.575C293.518 110.576 293.385 109.506 293.497 108.448L294.308 100.791C294.582 98.2038 293.468 95.6649 291.38 94.1138C288.147 91.7126 286.747 87.5555 287.869 83.6883L288.936 80.0111C289.405 78.3927 289.667 76.6974 289.712 75.013C289.87 69.195 287.357 63.5396 282.888 59.8104L281.451 58.6119C276.034 54.0918 269.756 50.7174 262.997 48.6928L259.535 47.6558C256.786 46.8325 253.96 46.2976 251.1 46.0596L240.614 45.1869C237.761 44.9495 234.91 45.6535 232.496 47.1912C229.544 49.0715 227.52 52.1079 226.922 55.5557Z" fill="#F5F79F"/>
<path d="M219.645 188.539C219.645 188.539 225.59 176.11 229.898 162.055C230.657 159.578 231.37 157.049 231.986 154.53C234.153 145.678 235.174 136.928 233.251 130.86C227.676 113.268 271.255 126.412 271.255 126.412C271.255 126.412 261.527 172.369 269.621 188.143C277.714 203.917 219.645 188.539 219.645 188.539Z" fill="#EDA885"/>
<path d="M264.902 137.703C264.747 138.037 254.623 159.321 229.909 162.062C230.668 159.585 231.378 157.057 231.993 154.537C231.993 154.537 245.419 157.528 264.902 137.703Z" fill="#A7785F"/>
<path d="M298.865 385.558C298.865 385.558 176.33 387.225 166.216 415.045C158.656 435.845 142.481 540.496 134.798 592L340.748 591.893C346.993 450.968 298.865 385.558 298.865 385.558Z" fill="#444A75"/>
<path d="M313.103 293.579C313.103 293.579 311.389 297.344 306.787 312.123C300.779 271.059 302.902 249.563 302.902 249.563C303.972 271.558 313.103 293.579 313.103 293.579Z" fill="#CFBDB8"/>
<path d="M298.925 339.295C298.346 341.851 297.851 344.136 297.489 345.736C297.093 347.486 296.746 349.348 296.441 351.301C279.621 342.854 267.526 336.228 267.526 336.228C272.017 337.103 298.925 339.295 298.925 339.295Z" fill="#CFBDB8"/>
<path d="M266.725 178.078L220.405 216.842L224.328 177.067C224.328 177.067 251.721 170.603 266.725 178.078Z" fill="#EDA885"/>
<path d="M233.89 210.12L220.401 216.834L265.703 170.772L233.89 210.12Z" fill="#D5C5BD"/>
<path d="M301.638 335.968C295.764 362.463 321.206 421.18 321.206 421.18L273.9 436.877C267.091 439.138 259.777 435.197 258.105 428.361C251.039 399.503 234.395 328.452 231.669 288.796C228.193 238.199 264.482 177.553 264.482 177.553C331.754 187.217 315.725 286.81 315.725 286.81C315.725 286.81 313.444 293.116 310.422 302.956L310.422 302.962C309.659 305.43 308.859 308.128 308.026 311.003C305.907 318.385 303.64 326.956 301.638 335.968Z" fill="#484F80"/>
<path d="M219.638 179.342L220.413 177.157C220.413 177.157 186.219 183.073 168.98 192.004C151.741 200.936 119.394 245.745 119.394 245.745L164.395 301.109C165.469 344.447 160.105 421.672 160.105 421.672L180.335 432.455C185.774 435.354 192.403 431.487 192.377 425.425C192.246 396.108 191.947 326.494 191.858 292.778C191.74 249.411 221.7 178.566 221.7 178.566C221.002 178.817 220.319 179.078 219.638 179.342Z" fill="#484F80"/>
<path d="M162.221 384.024C162.221 384.024 195.177 384.499 200.269 383.125C205.361 381.752 239.184 366.451 240.899 352.088C242.611 337.723 161.814 366.794 161.814 366.794L162.221 384.024Z" fill="#EDA885"/>
<path d="M263.328 336.873L129.348 324.732L190.843 371.35L263.328 336.873Z" fill="#6A77BE"/>
<path d="M190.85 371.349L263.531 345.193L263.334 336.873L188.168 362.425L190.85 371.349Z" fill="#313656"/>
<path d="M226.681 169.685L202.181 209.689L190.082 217.553L217.768 177.641L226.681 169.685Z" fill="#F9E6DE"/>
<path d="M202.18 209.689L220.409 216.836L224.333 177.061L226.681 169.685L202.18 209.689Z" fill="#D5C5BD"/>
<path d="M265.714 170.776L233.903 210.124L252.177 225.32L270.409 178.685L265.714 170.776Z" fill="#F9E6DE"/>
<path d="M223.913 313.784C223.913 313.784 212.862 314.049 206.644 312.963C201.831 312.121 189.957 313.717 186.984 316.419C184.015 319.12 174.802 337.667 173.003 338.828C171.207 339.989 174.027 342.511 177.201 341.135C177.201 341.135 180.33 349.084 187.52 345.911C194.707 342.738 199.48 336.069 203.254 334.825C207.028 333.582 229.029 327.236 229.029 327.236C229.029 327.236 229.57 311.699 223.913 313.784Z" fill="#EDA885"/>
<path d="M311.403 299.668C311.403 299.668 310.38 302.953 310.38 302.959C309.619 305.428 308.819 308.125 307.986 311.002C301.711 313.095 246.887 310.462 246.887 310.462C246.887 310.462 292.445 298.858 311.403 299.668Z" fill="#3C426B"/>
<path d="M308.492 309.94C299.658 309.497 285.196 308.917 273.375 309.148C254.985 309.506 223.582 312.251 223.582 312.251L227.786 331.386C227.786 331.386 283.706 338.923 314.18 340.284L314.18 340.285C314.18 340.285 354.44 343.844 357.287 337.916C360.13 331.989 355.27 294.452 347.937 260.703C340.605 226.956 333.431 207.589 325.2 197.305C316.967 187.021 274.594 179.859 274.594 179.859L313.079 293.574C313.079 293.574 318.452 303.668 318.294 308.083C318.245 309.429 317.31 310.087 316.033 310.355C315.132 310.3 313.145 310.182 310.41 310.038L308.492 309.94Z" fill="#484F80"/>
<path d="M190.834 371.347L148.524 230.551L0 218.754L43.689 348.236L190.834 371.347Z" fill="#242740"/>
<path d="M164.747 366.691C164.747 366.691 164.977 383.389 166.677 386.736C166.677 386.736 83.8431 386.361 75.1114 375.848C66.3781 365.336 65.3395 351.679 65.3395 351.679L164.747 366.691Z" fill="#484F80"/>
</svg>
