<svg width="361" height="47" viewBox="0 0 361 47" fill="none" xmlns="http://www.w3.org/2000/svg">
<path d="M0.235474 17.8401V46.4517L360.295 46.2175V0.856934C359.511 1.32781 353.515 4.21582 335.81 12.0009C313.679 21.7323 300.495 25.8131 284.956 29.2662C269.417 32.7193 254.192 33.818 238.811 33.504C226.505 33.2529 209.198 28.2721 202.083 25.8131C193.711 22.8833 174.584 16.2701 165.041 13.2566C153.112 9.48958 136.945 6.03645 111.832 3.29742C91.7416 1.1062 77.3035 2.38441 72.5957 3.29742C64.6148 4.53893 45.8863 8.00627 34.8194 11.9435C23.7526 15.8808 7.15226 17.5151 0.235474 17.8401Z" fill="#414772"/>
</svg>
