<svg width="360" height="57" viewBox="0 0 360 57" fill="none" xmlns="http://www.w3.org/2000/svg">
<g clip-path="url(#clip0_2076_423)">
<rect width="360" height="57" fill="#F1F1FF"/>
<path d="M0 28.0169V-0.594727L360.06 -0.360489V45C359.276 44.5292 353.28 41.6412 335.575 33.8561C313.444 24.1247 300.26 20.0438 284.721 16.5908C269.182 13.1377 253.957 12.039 238.576 12.3529C226.27 12.6041 208.963 17.5848 201.848 20.0438C193.476 22.9737 174.349 29.5868 164.806 32.6004C152.877 36.3674 136.71 39.8205 111.597 42.5596C91.5061 44.7508 77.068 43.4726 72.3602 42.5596C64.3793 41.318 45.6508 37.8507 34.5839 33.9135C23.5171 29.9762 6.91679 28.3419 0 28.0169Z" fill="#414772"/>
</g>
<defs>
<clipPath id="clip0_2076_423">
<rect width="360" height="57" fill="white"/>
</clipPath>
</defs>
</svg>
