<svg width="382" height="129" viewBox="0 0 382 129" fill="none" xmlns="http://www.w3.org/2000/svg">
<path d="M381.715 128.036L187.998 128.036V65.118L381.715 65.118V128.036Z" fill="#B5B4D7"/>
<path d="M218.258 83.0484C210.83 83.0484 204.809 89.0694 204.809 96.4965C204.809 103.924 210.83 109.945 218.258 109.945C225.685 109.945 231.706 103.924 231.706 96.4965C231.706 89.0694 225.685 83.0484 218.258 83.0484Z" fill="#F1F1FF"/>
<path d="M367.787 115.069V77.9262L253.478 77.9262V115.069L367.787 115.069Z" fill="white"/>
<path d="M348.895 110.907V82.7295H346.973V110.907H348.895Z" fill="#D9D9D9"/>
<path d="M340.57 110.907V82.7295H338.649V110.907H340.57Z" fill="#D9D9D9"/>
<path d="M332.247 110.907V82.7295H330.326V110.907L332.247 110.907Z" fill="#D9D9D9"/>
<path d="M323.921 110.907V82.7295H322V110.907H323.921Z" fill="#D9D9D9"/>
<path d="M203.719 59.2789L22.5893 127.969L0.279297 69.1392L181.409 0.449219L203.719 59.2789Z" fill="#3E446D"/>
<path d="M34.9305 75.1762C27.9859 77.8098 24.4911 85.5744 27.1247 92.519C29.7583 99.4636 37.523 102.958 44.4676 100.325C51.4122 97.6911 54.9069 89.9265 52.2733 82.9819C49.6397 76.0373 41.875 72.5426 34.9305 75.1762Z" fill="#F1F1FF"/>
<path d="M186.098 52.0925L172.928 17.3635L66.0466 57.8963L79.2169 92.6252L186.098 52.0925Z" fill="white"/>
<path d="M166.957 54.9004L156.966 28.5543L155.169 29.2355L165.161 55.5816L166.957 54.9004Z" fill="#D9D9D9"/>
<path d="M159.174 57.8514L149.183 31.5053L147.387 32.1865L157.378 58.5326L159.174 57.8514Z" fill="#D9D9D9"/>
<path d="M151.39 60.803L141.399 34.4569L139.602 35.1381L149.594 61.4842L151.39 60.803Z" fill="#D9D9D9"/>
<path d="M143.606 63.7547L133.614 37.4086L131.818 38.0898L141.809 64.4359L143.606 63.7547Z" fill="#D9D9D9"/>
</svg>
