<svg width="104" height="129" viewBox="0 0 104 129" fill="none" xmlns="http://www.w3.org/2000/svg">
<path d="M0 31.1715C1.26583 39.0364 8.95823 49.2167 20.5087 55.7954C32.0603 62.3751 44.7585 63.8087 52.1922 60.8992C50.9259 53.0343 43.234 42.8535 31.6824 36.2738C20.1319 29.6951 7.43271 28.2621 0 31.1715Z" fill="#4F7075"/>
<path d="M21.6578 9.26127C18.8466 16.7157 20.4624 29.3618 27.2196 40.7897C33.9779 52.2187 44.2911 59.7469 52.1922 60.8992C55.0034 53.4438 53.3872 40.7985 46.6289 29.3695C39.8717 17.9421 29.559 10.4131 21.6578 9.26127Z" fill="#74999D"/>
<path d="M103.95 30.4281C96.4746 27.6249 83.7982 29.2388 72.3442 35.9818C60.8898 42.7258 53.3456 53.0156 52.1938 60.898C59.6677 63.7013 72.3447 62.0868 83.7997 55.3428C95.2536 48.5998 102.797 38.3106 103.95 30.4281Z" fill="#4F7075"/>
<path d="M81.7407 8.69648C73.8635 9.99622 63.6954 17.7169 57.1564 29.2695C50.6169 40.8231 49.2407 53.4966 52.1938 60.898C60.0711 59.5977 70.2401 51.8773 76.7796 40.3236C83.3186 28.771 84.6938 16.0968 81.7407 8.69648Z" fill="#74999D"/>
<path d="M51.5901 0.952148C45.4246 6.01209 40.4984 17.7738 40.6371 31.0404C40.7758 44.3086 45.9468 55.9663 52.2168 60.8981C58.3823 55.8382 63.3079 44.0765 63.1692 30.8083C63.0305 17.5417 57.86 5.88399 51.5901 0.952148Z" fill="#4F7075"/>
<path d="M13.9762 60.881H89.2489V102.593C89.2489 111.232 82.2281 118.235 73.5671 118.235H29.658C20.9969 118.235 13.9762 111.232 13.9762 102.593V60.881Z" fill="#3E446D"/>
<path d="M74.1501 118.192V128.383H29.0753V118.192H74.1501Z" fill="#3E446D"/>
</svg>
