<svg width="1237" height="480" viewBox="0 0 1237 480" fill="none" xmlns="http://www.w3.org/2000/svg">
<g opacity="0.38">
<path d="M16.1723 355.152C15.63 354.042 16.0602 352.648 17.1336 352.038L50.2634 333.211C54.5442 330.763 56.2516 325.182 54.0714 320.75C51.8891 316.321 46.6441 314.716 42.3579 317.167L8.25149 336.553C5.57872 338.081 4.51156 341.569 5.87384 344.338C7.23708 347.108 10.5149 348.111 13.195 346.578L41.3376 330.484C41.3396 330.484 41.3413 330.483 41.3434 330.482C42.411 329.867 42.8352 328.476 42.2909 327.37C41.7457 326.263 40.435 325.862 39.3634 326.474L25.777 334.242C24.705 334.855 23.3939 334.453 22.8488 333.345C22.3032 332.238 22.7305 330.843 23.8025 330.23L37.3884 322.462C40.6037 320.624 44.5367 321.827 46.1726 325.15C47.8088 328.474 46.5286 332.658 43.3129 334.497C43.3091 334.499 43.3054 334.5 43.3016 334.502L15.1701 350.589C10.3459 353.348 4.44621 351.543 1.99156 346.557C-0.46047 341.572 1.46009 335.295 6.28099 332.538L40.388 313.152C46.8128 309.478 54.6792 311.885 57.9531 318.53C61.2242 325.179 58.6632 333.549 52.2334 337.226L19.0981 356.056C18.0247 356.666 16.7147 356.261 16.1723 355.152Z" fill="#C6C8D6"/>
<path d="M218.651 378.026C217.135 377.685 216.104 376.165 216.35 374.631L223.933 327.274C224.898 321.143 220.761 315.074 214.692 313.727C208.624 312.385 202.919 316.273 201.953 322.411L194.15 371.167C193.547 374.995 196.133 378.788 199.925 379.63C203.718 380.471 207.283 378.041 207.887 374.202L214.23 333.895C214.231 333.892 214.231 333.89 214.232 333.887C214.468 332.355 213.436 330.844 211.922 330.508C210.405 330.172 208.979 331.143 208.738 332.678L205.674 352.135C205.432 353.671 204.006 354.643 202.489 354.306C200.971 353.97 199.937 352.452 200.179 350.917L203.243 331.46C203.968 326.855 208.245 323.94 212.796 324.948C217.348 325.957 220.45 330.507 219.725 335.113C219.724 335.118 219.723 335.123 219.722 335.128L213.381 375.419C212.294 382.329 205.878 386.702 199.049 385.189C192.223 383.674 187.569 376.847 188.656 369.943L196.459 321.186C197.908 311.985 206.463 306.153 215.566 308.168C224.671 310.188 230.876 319.291 229.427 328.499L221.842 375.864C221.596 377.398 220.167 378.366 218.651 378.026Z" fill="#C6C8D6"/>
<path d="M396.789 410.262C396.5 409.201 397.109 408.054 398.15 407.7L430.268 396.781C434.421 395.357 436.847 390.763 435.683 386.523C434.516 382.285 430.198 380.004 426.04 381.43L392.975 392.674C390.382 393.563 388.865 396.434 389.593 399.084C390.322 401.734 393.02 403.159 395.62 402.267L422.92 392.904C422.92 392.904 422.923 392.903 422.925 392.902C423.962 392.544 424.565 391.398 424.274 390.34C423.983 389.281 422.904 388.711 421.865 389.067L408.685 393.586C407.645 393.942 406.566 393.372 406.275 392.312C405.983 391.252 406.59 390.104 407.63 389.748L420.809 385.229C423.928 384.159 427.165 385.869 428.04 389.049C428.914 392.228 427.095 395.673 423.976 396.743C423.972 396.744 423.968 396.744 423.965 396.746L396.676 406.105C391.996 407.71 387.139 405.145 385.827 400.374C384.517 395.605 387.247 390.438 391.923 388.834L424.989 377.59C431.222 375.452 437.697 378.873 439.448 385.231C441.196 391.592 437.556 398.482 431.319 400.621L399.196 411.542C398.155 411.896 397.077 411.323 396.789 410.262Z" fill="#C6C8D6"/>
<path d="M825.412 299.028C827.21 299.662 829.271 298.754 830.016 296.999L852.984 242.829C855.975 235.827 864.23 232.214 871.416 234.767C878.599 237.324 881.996 245.083 879.001 252.093L855.35 307.86C853.482 312.232 848.323 314.491 843.832 312.895C839.342 311.298 837.219 306.45 839.092 302.066L858.757 256.033C858.758 256.03 858.759 256.027 858.761 256.024C859.513 254.277 861.571 253.378 863.364 254.016C865.16 254.654 866.008 256.593 865.26 258.346L855.769 280.569C855.02 282.322 855.869 284.262 857.666 284.9C859.462 285.539 861.525 284.635 862.274 282.882L871.765 260.66C874.012 255.4 871.465 249.583 866.076 247.666C860.687 245.749 854.498 248.459 852.251 253.719C852.249 253.725 852.247 253.731 852.245 253.737L832.587 299.752C829.217 307.643 833.037 316.369 841.122 319.245C849.205 322.117 858.49 318.052 861.858 310.167L885.51 254.399C889.999 243.89 884.905 232.254 874.129 228.418C863.349 224.586 850.968 230.007 846.475 240.524L823.503 294.702C822.759 296.457 823.613 298.394 825.412 299.028Z" fill="#C6C8D6"/>
<path d="M514.552 206.845C514.783 205.632 515.964 204.774 517.189 204.93L554.99 209.74C559.883 210.349 564.597 206.909 565.511 202.055C566.422 197.202 563.188 192.771 558.289 192.161L519.371 187.212C516.316 186.832 513.37 188.982 512.798 192.015C512.228 195.049 514.249 197.818 517.313 198.199L549.484 202.204C549.486 202.205 549.488 202.205 549.49 202.206C550.713 202.354 551.887 201.496 552.114 200.285C552.343 199.071 551.534 197.964 550.309 197.812L534.78 195.877C533.554 195.724 532.746 194.616 532.974 193.403C533.202 192.189 534.381 191.329 535.606 191.482L551.136 193.417C554.811 193.875 557.236 197.197 556.552 200.837C555.867 204.478 552.333 207.057 548.657 206.6C548.653 206.599 548.649 206.598 548.645 206.597L516.487 202.593C510.972 201.907 507.334 196.923 508.361 191.462C509.39 186.002 514.692 182.132 520.203 182.818L559.121 187.767C566.465 188.682 571.315 195.326 569.948 202.607C568.577 209.889 561.507 215.049 554.157 214.134L516.35 209.323C515.126 209.168 514.32 208.058 514.552 206.845Z" fill="#C6C8D6"/>
<path d="M1230.42 473.008C1229.2 472.825 1228.3 471.68 1228.41 470.45L1231.69 432.486C1232.1 427.572 1228.47 423.001 1223.58 422.283C1218.7 421.568 1214.4 424.978 1213.99 429.898L1210.61 468.983C1210.36 472.051 1212.62 474.908 1215.68 475.357C1218.73 475.805 1221.42 473.674 1221.67 470.597L1224.38 438.291C1224.38 438.289 1224.38 438.287 1224.38 438.285C1224.48 437.057 1223.58 435.919 1222.36 435.74C1221.13 435.561 1220.06 436.413 1219.96 437.643L1218.65 453.238C1218.55 454.469 1217.47 455.321 1216.25 455.142C1215.03 454.963 1214.12 453.82 1214.23 452.589L1215.53 436.994C1215.84 433.303 1219.06 430.747 1222.73 431.284C1226.39 431.821 1229.11 435.248 1228.8 438.94C1228.8 438.944 1228.8 438.948 1228.8 438.952L1226.1 471.246C1225.63 476.783 1220.8 480.619 1215.3 479.813C1209.81 479.005 1205.73 473.864 1206.19 468.33L1209.57 429.244C1210.18 421.868 1216.63 416.754 1223.96 417.827C1231.29 418.903 1236.73 425.759 1236.11 433.14L1232.83 471.111C1232.72 472.341 1231.65 473.19 1230.42 473.008Z" fill="#C6C8D6"/>
<path d="M804.441 397.963C804.417 399.198 803.397 400.242 802.164 400.294L764.092 401.907C759.166 402.129 755.098 406.314 755.013 411.252C754.93 416.189 758.863 420.013 763.795 419.791L802.991 418.127C806.067 417.988 808.609 415.373 808.663 412.287C808.715 409.201 806.257 406.811 803.173 406.95L770.787 408.41C770.784 408.41 770.783 408.41 770.78 408.41C769.55 408.469 768.537 409.513 768.516 410.745C768.495 411.979 769.478 412.935 770.711 412.879L786.345 412.176C787.579 412.121 788.562 413.077 788.541 414.311C788.52 415.546 787.502 416.591 786.269 416.647L770.635 417.35C766.935 417.517 763.986 414.65 764.049 410.947C764.112 407.243 767.162 404.105 770.862 403.939C770.867 403.939 770.871 403.939 770.875 403.939L803.249 402.479C808.8 402.229 813.224 406.53 813.13 412.087C813.034 417.641 808.458 422.348 802.91 422.598L763.714 424.262C756.32 424.595 750.422 418.861 750.545 411.454C750.673 404.045 756.775 397.769 764.174 397.436L802.252 395.822C803.485 395.77 804.466 396.729 804.441 397.963Z" fill="#C6C8D6"/>
<path d="M1113.06 300.855C1111.92 301.911 1110.08 301.898 1108.96 300.825L1074.26 267.722C1069.75 263.45 1062.41 263.416 1057.86 267.651C1053.31 271.887 1053.28 278.79 1057.79 283.067L1093.52 317.145C1096.33 319.812 1100.92 319.834 1103.76 317.188C1106.61 314.541 1106.63 310.226 1103.81 307.552L1074.21 279.469C1074.21 279.466 1074.2 279.465 1074.2 279.463C1073.07 278.399 1071.24 278.392 1070.11 279.449C1068.97 280.507 1068.96 282.233 1070.09 283.302L1084.38 296.86C1085.5 297.93 1085.5 299.656 1084.36 300.715C1083.22 301.774 1081.39 301.765 1080.26 300.695L1065.97 287.137C1062.59 283.928 1062.61 278.752 1066.02 275.575C1069.44 272.398 1074.94 272.424 1078.33 275.633C1078.33 275.637 1078.33 275.641 1078.34 275.645L1107.93 303.717C1113 308.531 1112.96 316.296 1107.84 321.062C1102.73 325.825 1094.46 325.786 1089.39 320.976L1053.66 286.897C1046.9 280.486 1046.95 270.132 1053.77 263.777C1060.6 257.424 1071.62 257.476 1078.38 263.892L1113.09 297.001C1114.21 298.073 1114.2 299.799 1113.06 300.855Z" fill="#C6C8D6"/>
<path d="M761.758 52.0871C760.89 51.2086 760.853 49.75 761.676 48.8296L787.076 20.4233C790.353 16.7384 790.192 10.9049 786.713 7.39906C783.232 3.89632 777.749 4.04727 774.468 7.73659L748.321 36.9836C746.275 39.2842 746.375 42.9302 748.549 45.1211C750.724 47.3115 754.151 47.2172 756.202 44.9099L777.746 20.6845C777.748 20.6831 777.749 20.6818 777.751 20.68C778.567 19.7573 778.526 18.3036 777.657 17.4289C776.787 16.553 775.417 16.5907 774.597 17.5132L764.195 29.2065C763.375 30.129 762.004 30.1667 761.134 29.2903C760.264 28.4144 760.224 26.9559 761.045 26.0335L771.446 14.3402C773.907 11.5724 778.019 11.4592 780.629 14.0874C783.239 16.7159 783.359 21.0897 780.898 23.8579C780.895 23.861 780.892 23.8637 780.889 23.8668L759.353 48.0825C755.66 52.2351 749.493 52.4049 745.577 48.4618C741.664 44.5182 741.483 37.9565 745.173 33.8066L771.321 4.55914C776.239 -0.971066 784.463 -1.19746 789.684 4.05749C794.904 9.31639 795.145 18.0661 790.223 23.6008L764.819 52.0115C763.996 52.9319 762.625 52.9657 761.758 52.0871Z" fill="#C6C8D6"/>
<path d="M297.078 111.628C296.715 113.378 294.987 114.591 293.219 114.338L238.628 106.511C231.561 105.517 224.661 110.388 223.227 117.391C221.797 124.393 226.375 130.878 233.451 131.873L289.654 139.927C294.066 140.547 298.379 137.503 299.275 133.127C300.171 128.75 297.31 124.697 292.885 124.075L246.423 117.542C246.42 117.541 246.418 117.541 246.414 117.54C244.648 117.297 242.93 118.512 242.572 120.26C242.214 122.01 243.358 123.631 245.127 123.879L267.556 127.036C269.325 127.285 270.47 128.906 270.111 130.657C269.754 132.408 268.028 133.625 266.259 133.376L243.831 130.22C238.523 129.473 235.09 124.61 236.164 119.359C237.238 114.106 242.411 110.454 247.72 111.201C247.726 111.202 247.732 111.203 247.738 111.204L294.181 117.735C302.145 118.856 307.295 126.15 305.684 134.03C304.07 141.907 296.309 147.386 288.35 146.266L232.146 138.213C221.54 136.721 214.674 126.994 216.818 116.49C218.969 105.984 229.318 98.6786 239.933 100.172L294.533 108C296.301 108.254 297.441 109.878 297.078 111.628Z" fill="#C6C8D6"/>
</g>
</svg>
