<svg width="1236" height="376" viewBox="0 0 1236 376" fill="none" xmlns="http://www.w3.org/2000/svg">
<path d="M1220.65 152.318C1221.14 151.185 1220.66 149.805 1219.55 149.237L1185.57 131.716C1181.18 129.437 1179.24 123.913 1181.24 119.383C1183.24 114.855 1188.44 113.034 1192.83 115.316L1227.82 133.357C1230.56 134.78 1231.78 138.232 1230.53 141.063C1229.27 143.894 1226.03 145.032 1223.28 143.605L1194.4 128.62C1194.4 128.62 1194.4 128.619 1194.4 128.618C1193.3 128.046 1192.82 126.669 1193.32 125.538C1193.82 124.406 1195.12 123.951 1196.22 124.522L1210.16 131.754C1211.26 132.324 1212.56 131.869 1213.06 130.736C1213.56 129.604 1213.07 128.223 1211.97 127.653L1198.03 120.421C1194.73 118.709 1190.84 120.075 1189.34 123.471C1187.83 126.869 1189.29 131.01 1192.59 132.722C1192.59 132.724 1192.6 132.725 1192.6 132.727L1221.46 147.706C1226.41 150.274 1232.25 148.225 1234.51 143.129C1236.76 138.033 1234.58 131.82 1229.63 129.254L1194.64 111.212C1188.05 107.791 1180.27 110.523 1177.26 117.316C1174.25 124.112 1177.16 132.396 1183.76 135.82L1217.75 153.344C1218.85 153.911 1220.15 153.452 1220.65 152.318Z" fill="#434972"/>
<path d="M1018.57 183.509C1020.08 183.106 1021.05 181.54 1020.74 180.013L1011.21 132.868C1009.99 126.763 1013.89 120.512 1019.92 118.914C1025.95 117.319 1031.82 120.982 1033.04 127.094L1042.85 175.632C1043.61 179.443 1041.18 183.35 1037.41 184.349C1033.64 185.347 1029.97 183.058 1029.21 179.236L1021.2 139.105C1021.2 139.102 1021.2 139.1 1021.2 139.097C1020.9 137.571 1021.87 136.014 1023.38 135.616C1024.89 135.217 1026.35 136.132 1026.66 137.66L1030.52 157.033C1030.83 158.561 1032.3 159.477 1033.81 159.077C1035.31 158.678 1036.29 157.115 1035.98 155.587L1032.12 136.215C1031.2 131.63 1026.8 128.883 1022.28 130.08C1017.75 131.278 1014.83 135.965 1015.74 140.55C1015.74 140.556 1015.75 140.56 1015.75 140.566L1023.75 180.681C1025.12 187.56 1031.73 191.681 1038.51 189.884C1045.3 188.086 1049.68 181.055 1048.31 174.18L1038.5 125.641C1036.67 116.48 1027.86 110.986 1018.81 113.378C1009.77 115.775 1003.92 125.151 1005.75 134.32L1015.28 181.473C1015.59 183.001 1017.06 183.912 1018.57 183.509Z" fill="#434972"/>
<path d="M841.29 223.09C841.536 222.015 840.878 220.89 839.82 220.578L807.172 210.944C802.951 209.686 800.33 205.181 801.323 200.885C802.32 196.59 806.555 194.129 810.782 195.388L844.393 205.31C847.029 206.095 848.667 208.91 848.046 211.595C847.424 214.28 844.777 215.818 842.134 215.031L814.381 206.759C814.381 206.759 814.377 206.759 814.375 206.758C813.321 206.441 812.669 205.318 812.917 204.245C813.166 203.172 814.224 202.557 815.281 202.872L828.68 206.863C829.737 207.178 830.795 206.562 831.044 205.488C831.293 204.415 830.637 203.288 829.58 202.974L816.182 198.982C813.011 198.037 809.836 199.883 809.089 203.104C808.343 206.327 810.308 209.704 813.479 210.649C813.483 210.65 813.487 210.651 813.49 210.652L841.233 218.92C845.991 220.337 850.755 217.569 851.875 212.735C852.992 207.902 850.044 202.836 845.289 201.419L811.678 191.497C805.342 189.609 798.99 193.301 797.495 199.744C796.004 206.189 799.935 212.945 806.276 214.835L838.93 224.471C839.988 224.783 841.044 224.165 841.29 223.09Z" fill="#434972"/>
<path d="M406.997 129.129C405.22 129.838 403.116 129.012 402.299 127.284L377.069 73.9408C373.785 67.0465 365.363 63.7638 358.262 66.6178C351.165 69.4754 348.076 77.3898 351.363 84.2927L377.343 139.209C379.393 143.513 384.657 145.565 389.094 143.782C393.531 141.997 395.462 137.051 393.406 132.734L371.818 87.4098C371.817 87.4065 371.816 87.4039 371.815 87.4005C370.989 85.6807 368.89 84.8645 367.118 85.5771C365.344 86.291 364.572 88.2688 365.394 89.9946L375.812 111.876C376.634 113.602 375.862 115.58 374.087 116.294C372.312 117.008 370.207 116.187 369.385 114.461L358.966 92.5802C356.5 87.402 358.816 81.4673 364.14 79.3255C369.465 77.1833 375.78 79.6446 378.247 84.8237C378.249 84.8298 378.251 84.8356 378.254 84.8417L399.833 130.148C403.533 137.918 400.058 146.82 392.07 150.034C384.083 153.244 374.609 149.551 370.911 141.787L344.932 86.8703C340.004 76.523 344.638 64.6531 355.285 60.3662C365.936 56.084 378.569 61.0078 383.501 71.3631L408.734 124.715C409.552 126.443 408.774 128.419 406.997 129.129Z" fill="#434972"/>
<path d="M894.507 366.861C894.225 365.655 893.006 364.844 891.785 365.05L854.082 371.418C849.201 372.229 844.335 368.974 843.22 364.148C842.109 359.322 845.171 354.75 850.058 353.938L888.874 347.385C891.922 346.878 894.963 348.913 895.66 351.929C896.356 354.945 894.442 357.803 891.386 358.31L859.295 363.641C859.293 363.642 859.291 363.642 859.289 363.643C858.069 363.842 856.857 363.03 856.579 361.825C856.301 360.619 857.066 359.476 858.288 359.273L873.779 356.698C875.001 356.495 875.767 355.352 875.488 354.145C875.21 352.939 873.993 352.125 872.771 352.329L857.28 354.904C853.614 355.513 851.318 358.941 852.153 362.561C852.988 366.181 856.636 368.621 860.303 368.012C860.307 368.011 860.311 368.01 860.315 368.009L892.393 362.68C897.894 361.766 901.338 356.623 900.086 351.192C898.832 345.764 893.359 342.102 887.861 343.016L849.044 349.569C841.718 350.786 837.127 357.643 838.794 364.883C840.465 372.124 847.764 377.006 855.096 375.788L892.804 369.418C894.026 369.212 894.788 368.067 894.507 366.861Z" fill="#434972"/>
<path d="M714.904 24.0568C714.622 22.8508 713.403 22.0399 712.182 22.2463L674.479 28.6142C669.598 29.4251 664.732 26.1703 663.617 21.3437C662.506 16.5177 665.568 11.9457 670.455 11.1336L709.271 4.58071C712.319 4.07423 715.36 6.10852 716.057 9.12464C716.752 12.1412 714.839 14.9985 711.783 15.506L679.692 20.8372C679.69 20.8379 679.688 20.8383 679.686 20.8387C678.466 21.0379 677.254 20.2257 676.976 19.0211C676.698 17.8148 677.463 16.6722 678.685 16.4693L694.176 13.8939C695.398 13.6906 696.164 12.5477 695.885 11.3411C695.607 10.1344 694.39 9.32101 693.168 9.52434L677.677 12.0993C674.011 12.7083 671.715 16.1367 672.55 19.7563C673.385 23.3766 677.033 25.8169 680.7 25.2078C680.704 25.2069 680.708 25.2058 680.712 25.205L712.79 19.8758C718.291 18.9618 721.735 13.8191 720.483 8.38823C719.229 2.9593 713.755 -0.701799 708.258 0.211451L669.441 6.76445C662.115 7.9818 657.524 14.8389 659.191 22.0789C660.862 29.3196 668.161 34.2015 675.493 32.9833L713.201 26.6142C714.423 26.4079 715.185 25.2628 714.904 24.0568Z" fill="#434972"/>
<path d="M8.04736 320.02C9.26437 319.787 10.1243 318.603 9.96751 317.375L5.12817 279.466C4.51514 274.558 7.96595 269.829 12.8361 268.91C17.7056 267.994 22.1522 271.235 22.7661 276.148L27.7453 315.177C28.1282 318.241 25.9714 321.196 22.9281 321.771C19.8843 322.345 17.1054 320.319 16.7217 317.247L12.6916 284.984C12.691 284.982 12.6907 284.98 12.6903 284.978C12.5407 283.751 13.4017 282.574 14.6171 282.345C15.8343 282.115 16.9455 282.925 17.0989 284.154L19.0462 299.728C19.2 300.957 20.3115 301.767 21.529 301.537C22.7466 301.308 23.609 300.125 23.4552 298.896L21.5083 283.322C21.0479 279.636 17.7136 277.206 14.0613 277.895C10.4084 278.583 7.82115 282.129 8.28163 285.815C8.2823 285.819 8.28322 285.823 8.28388 285.828L12.3126 318.078C13.0036 323.608 18.0052 327.254 23.485 326.221C28.963 325.187 32.8445 319.867 32.1542 314.34L27.1749 275.311C26.2546 267.946 19.5856 263.085 12.2804 264.46C4.97427 265.838 -0.20155 272.932 0.71939 280.303L5.55968 318.218C5.7165 319.446 6.83035 320.253 8.04736 320.02Z" fill="#434972"/>
<path d="M432.073 227.418C432.148 228.654 433.213 229.658 434.452 229.66L472.688 229.721C477.636 229.742 481.886 233.769 482.173 238.714C482.458 243.658 478.671 247.65 473.717 247.629L434.351 247.563C431.262 247.55 428.606 245.034 428.426 241.943C428.247 238.853 430.614 236.358 433.712 236.371L466.242 236.511C466.244 236.51 466.246 236.51 466.249 236.51C467.485 236.519 468.543 237.524 468.614 238.758C468.685 239.994 467.739 240.991 466.501 240.986L450.797 240.92C449.558 240.915 448.611 241.913 448.683 243.15C448.754 244.386 449.817 245.392 451.056 245.397L466.759 245.463C470.476 245.479 473.315 242.485 473.101 238.777C472.887 235.068 469.701 232.049 465.983 232.033C465.979 232.033 465.975 232.034 465.971 232.034L433.453 231.894C427.877 231.871 423.618 236.361 423.939 241.925C424.263 247.488 429.043 252.017 434.615 252.041L473.981 252.107C481.408 252.138 487.087 246.151 486.66 238.733C486.23 231.315 479.856 225.275 472.424 225.244L434.181 225.183C432.942 225.181 431.998 226.181 432.073 227.418Z" fill="#434972"/>
<path d="M118.685 142.713C119.872 143.725 121.712 143.637 122.795 142.517L156.231 107.927C160.57 103.463 167.932 103.129 172.668 107.187C177.4 111.247 177.715 118.164 173.371 122.634L138.946 158.242C136.237 161.029 131.636 161.238 128.676 158.702C125.717 156.165 125.52 151.843 128.236 149.048L156.762 119.697C156.763 119.694 156.765 119.693 156.767 119.69C157.854 118.578 159.689 118.497 160.87 119.51C162.054 120.524 162.132 122.253 161.046 123.37L147.278 137.541C146.191 138.659 146.27 140.388 147.454 141.403C148.638 142.418 150.478 142.334 151.564 141.215L165.333 127.046C168.592 123.692 168.355 118.506 164.805 115.461C161.254 112.417 155.734 112.667 152.474 116.021C152.471 116.025 152.468 116.029 152.464 116.033L123.95 145.372C119.061 150.404 119.415 158.184 124.742 162.752C130.07 167.316 138.351 166.94 143.237 161.912L177.663 126.304C184.175 119.603 183.702 109.229 176.602 103.138C169.498 97.05 158.456 97.5511 151.939 104.257L118.498 138.852C117.415 139.973 117.499 141.702 118.685 142.713Z" fill="#434972"/>
</svg>
